<?xml version="1.0" standalone="no"?>
<!DOCTYPE svg PUBLIC "-//W3C//DTD SVG 1.1//EN" "http://www.w3.org/Graphics/SVG/1.1/DTD/svg11.dtd" >
<svg xmlns="http://www.w3.org/2000/svg">
<metadata></metadata>
<defs>
<font id="channel_left-slantedregular" horiz-adv-x="1254" >
<font-face units-per-em="2048" ascent="1536" descent="-512" />
<missing-glyph horiz-adv-x="1280" />
<glyph horiz-adv-x="2048" />
<glyph horiz-adv-x="2048" />
<glyph unicode="&#xd;" horiz-adv-x="1280" />
<glyph unicode=" "  horiz-adv-x="1280" />
<glyph unicode="&#x09;" horiz-adv-x="1280" />
<glyph unicode="&#xa0;" horiz-adv-x="1280" />
<glyph unicode="!" horiz-adv-x="678" d="M-133 2107q0 118 20 169q18 49 70.5 65.5t111.5 -5.5t109 -84.5t65 -172.5q10 -74 5 -188t-15 -248.5t-24 -278t-24.5 -278t-12 -247t11.5 -186.5q-36 23 -69 84q-31 51 -65.5 151t-67.5 269t-58.5 345.5t-41 331.5t-15.5 273zM87 133q15 -74 79 -125.5t139 -48.5 q74 3 116 56.5t27 127.5t-79 127t-139 50q-74 -3 -116 -58t-27 -129z" />
<glyph unicode="&#x22;" horiz-adv-x="652" d="M-317 1623q-3 74 49.5 119t129.5 32q87 -13 143 -77q20 41 64 63t97 14q38 -5 73 -23t63 -46t45 -62.5t17 -73.5q10 -61 -1.5 -121t-32 -110t-45 -87.5t-39.5 -57.5t-38.5 -21.5t-40 11.5t-21.5 36t15 51q23 31 9 75.5t-34 82.5q-38 15 -77 44q-10 -97 -51 -171.5 t-67 -107.5q-15 -20 -38 -21.5t-40 11.5t-22 36t16 51q23 31 9 75.5t-35 82.5q-64 20 -104.5 74t-43.5 121z" />
<glyph unicode="#" d="M-10 835q133 -13 263.5 -12t248.5 6.5t217.5 9.5t171.5 -4q72 -5 101 -27t26.5 -45t-29 -41t-67.5 -18h-172t-162.5 1.5t-164 1.5h-175.5q-110 0 -163.5 19t-74.5 45q-26 28 -20 64zM64 330q133 -13 263.5 -11.5t249.5 6.5t219 9t172 -4q72 -5 101 -26.5t26.5 -44.5 t-29.5 -41t-68 -18h-171.5t-162 1t-164 1h-175.5q-110 0 -165 19.5t-76 44.5q-26 28 -20 64zM105 883q-8 72 35.5 111.5t98.5 50t105 -6.5t58 -58q15 -90 29 -171.5t27 -162t28.5 -164t30.5 -175.5q20 -110 -18 -174t-89 -100q-61 -41 -146 -53q-10 131 -34.5 262.5 t-50 250.5t-47.5 218.5t-27 171.5zM561 883q-8 72 35.5 111.5t98.5 50t105 -6.5t58 -58q15 -90 29 -171.5t27 -162t28 -164t31 -175.5q20 -110 -18.5 -174t-89.5 -100q-61 -41 -146 -53q-10 131 -34.5 262.5t-50 250.5t-47 218.5t-26.5 171.5z" />
<glyph unicode="$" horiz-adv-x="3036" d="M-125 1403q-23 136 46 238t193 172.5t284 109t316 46.5q-13 13 -18 41q-5 33 11.5 54.5t50.5 21.5q33 0 58.5 -21.5t30.5 -54.5q3 -18 -2 -39q151 -5 277.5 -35.5t222.5 -80.5t160 -114t87 -136q23 -74 15.5 -124t-34.5 -83.5t-69 -47.5t-83 -14q-64 0 -111.5 43.5 t-57.5 95.5q-10 54 24.5 97t103.5 43q26 0 52.5 -9t49.5 -21q28 -13 51 -31q-15 102 -97 184q-36 33 -88.5 68t-129 60.5t-179 42t-235.5 16.5q-172 0 -319 -36t-245.5 -96t-132 -138t23 -161t216.5 -165t449 -151q18 49 77 48q38 0 71.5 -27t41.5 -65q187 -46 343 -107.5 t272.5 -142t190.5 -185.5t97 -238q26 -143 -19 -248t-142 -174.5t-243 -102.5t-323 -36q13 -10 22 -24t12 -30q5 -31 -13 -53.5t-51 -22.5t-57.5 23t-30.5 53q-8 33 13 57q-169 8 -329 45t-289 97t-213.5 142t-102.5 179q-10 56 10.5 89.5t57.5 47.5t81.5 9t85.5 -28 q36 -20 59 -64t22 -90t-29.5 -88t-92.5 -60q33 -46 116.5 -87t191 -74.5t221.5 -52.5t209 -19q156 0 284 34.5t207.5 91t102.5 130.5t-29.5 154.5t-188.5 161.5t-371 152q-15 -54 -80 -53q-41 0 -72.5 26.5t-39.5 67.5l-3 13q-228 61 -402 122.5t-296.5 138.5t-195.5 177 t-96 238z" />
<glyph unicode="%" horiz-adv-x="1280" d="M-218 1518q-10 54 3 102.5t42.5 85.5t74 57.5t98.5 20.5t106.5 -20.5t94.5 -57.5t71.5 -85.5t39.5 -102.5t-2.5 -102.5t-43 -85.5t-75.5 -57.5t-99 -20.5t-105 20.5t-93 57.5t-72 85.5t-40 102.5zM-26 1498q13 -72 63 -122t109 -50t92 50t21 122q-13 72 -63 121.5 t-109 49.5t-92.5 -49.5t-20.5 -121.5zM-15 -51q120 238 232.5 480t213.5 463.5t187 408t153 314.5q64 128 106 189.5t58.5 68t7.5 -35.5t-47 -119q-77 -164 -147.5 -315t-140.5 -299.5t-143 -302t-153 -322.5q-97 -202 -158.5 -310t-99.5 -156q-46 -59 -69 -64zM630 328 q-10 54 2.5 102.5t43.5 85.5t75.5 57.5t98.5 20.5t106.5 -20.5t94.5 -57.5t71.5 -86t39.5 -102q10 -54 -2.5 -102.5t-43.5 -86t-75.5 -58t-98.5 -20.5t-106.5 20.5t-94.5 58t-71.5 86t-39.5 102.5zM822 307q13 -72 64 -121.5t110 -49.5t92 50t20 121q-13 72 -62.5 122 t-108.5 50t-93.5 -50t-21.5 -122z" />
<glyph unicode="&#x26;" horiz-adv-x="2465" d="M-6 1753.5q9 158.5 85.5 290.5t195.5 226.5t265 147t295 52.5q138 0 243 -37t184 -94.5t134.5 -132t90 -150t52 -143t25.5 -116.5q5 -10 6.5 -19t6.5 -22q15 -92 -38.5 -156t-145.5 -64q-46 0 -89.5 16.5t-79.5 47.5t-60 70.5t-32 85.5q-18 92 35.5 157.5t145.5 65.5 q54 0 105 -23q-20 69 -60 143t-107.5 133t-171.5 97.5t-252 38.5q-118 0 -198.5 -60t-128 -157.5t-61.5 -221.5t2.5 -254.5t65.5 -253.5t127 -219t184 -153.5t242 -52.5q61 0 94.5 -18t37.5 -38.5t-22 -38.5t-79 -18q-195 0 -324.5 -70.5t-202 -184t-93 -259.5t3.5 -298.5 t90.5 -298.5t166.5 -260t229.5 -184t280.5 -70q113 0 189.5 55t126.5 142t76.5 192t38 203.5t11.5 179t-2 116.5q-3 54 8.5 78t29.5 19t33.5 -39.5t20.5 -98.5q3 -41 0.5 -135.5t-20.5 -210t-55.5 -239.5t-104 -226.5t-165 -168t-236.5 -65.5q-225 0 -430 84.5t-366 229.5 t-265 338t-127 413.5t46 456t256 462.5q-179 189 -250.5 370t-62.5 339.5zM717 934q-18 10 7.5 16.5t76.5 12t118 11.5t132 19t117.5 35t75.5 57q61 113 112.5 201.5t95 110t79.5 -45t64 -260.5q77 -15 153.5 -34.5t139.5 -39t107.5 -33.5t60.5 -14q20 0 34 6.5t24.5 13 t22 7.5t29.5 -9q15 -10 19 -24t-14 -39.5t-56.5 -68t-107.5 -106.5q-56 -54 -147 -48.5t-199 38.5q36 -192 82 -336q59 -195 143.5 -313.5t171.5 -118.5q44 0 90 36t87 79q46 49 92 115q8 13 18 23q23 18 49 3q31 -20 19 -35.5t-17 -26.5q-3 -3 -18 -36t-44.5 -77.5t-73 -97 t-98.5 -97.5t-125.5 -74.5t-152.5 -29.5q-84 0 -152 37t-123 95t-97.5 131t-71.5 144.5t-47 137t-26 105.5q-8 41 -32 170.5t-55 298.5q-23 5 -80.5 10t-120.5 7.5t-116.5 1.5t-69.5 -4q-79 -26 -109.5 -24.5t-39.5 13t-9 29.5t-18 28z" />
<glyph unicode="'" horiz-adv-x="0" d="M-829 1623q-3 74 49.5 119t129.5 32q38 -5 72.5 -23t63 -46t45 -62.5t16.5 -73.5q10 -61 -1.5 -121t-32 -110t-45 -87.5t-39.5 -57.5t-38 -21.5t-40 11.5t-22 36t16 51q23 31 9 75.5t-35 82.5q-64 20 -104.5 74t-43.5 121z" />
<glyph unicode="(" horiz-adv-x="757" d="M-113 981q23 133 74.5 235t118 176.5t129 124.5t110 76.5t60.5 34.5q18 10 41 13t38.5 -2.5t18 -15.5t-20.5 -26q-20 -15 -73 -76.5t-100 -174t-70.5 -277.5t15.5 -385q26 -146 72 -279.5t102 -248.5t115 -211t110 -167.5t89.5 -116.5t54.5 -58q23 -20 30.5 -39.5t1 -31 t-25.5 -9t-53 23.5q-23 13 -85.5 57.5t-147 115t-179 169t-180.5 220t-151 265.5t-91 310q-26 164 -3 297z" />
<glyph unicode=")" horiz-adv-x="757" d="M-283 1622.5q-1 10.5 11.5 16t36 2.5t46.5 -13q15 -8 72.5 -34.5t137 -76.5t173 -124.5t179 -176.5t155 -234t102.5 -296t19 -308.5t-56.5 -265t-103.5 -217.5t-120 -167.5t-106.5 -114t-65.5 -58.5q-26 -20 -45 -23t-29 8.5t-9 30.5t17 40q15 20 56 108.5t77 230.5 t50 329t-25 407q-38 220 -117.5 384t-166.5 276.5t-161 174t-100 76.5t-27 25.5z" />
<glyph unicode="*" horiz-adv-x="785" d="M-131 960q79 0 155 9t145 20.5t127.5 20.5t102.5 9q41 3 73 -25.5t49 -63t15.5 -64t-27.5 -29.5q-108 -13 -197 -22t-199 -19q-67 -8 -113 16.5t-74 57.5q-33 38 -57 90zM-47.5 1052.5q-3.5 38.5 9 69t37 44.5t45.5 -4q92 -74 171 -138t172 -138q56 -46 74 -93.5 t15 -88.5q-3 -46 -23 -92q-64 61 -130.5 115t-129 100t-115.5 85.5t-86 70.5q-36 31 -39.5 69.5zM5 668q38 64 67.5 130.5t55.5 129.5t45 115.5t39 88.5q18 33 55.5 38t73 -8t58.5 -37t13 -45q-38 -92 -75 -170t-81 -173q-26 -59 -68 -76.5t-83 -15.5q-46 3 -100 23z" />
<glyph unicode="+" d="M-205 835q133 -13 263.5 -12t248.5 6.5t217.5 9.5t171.5 -4q72 -5 120.5 -55t69 -108t13 -105t-48.5 -47h-172t-162.5 1t-163.5 1h-175q-110 0 -183 49t-117 107q-51 67 -82 157zM164 1034q-8 72 35.5 111.5t100 50t106.5 -6.5t57 -57q15 -90 29.5 -172t27 -162.5 t28 -164t31.5 -175.5q20 -110 -18.5 -174t-89.5 -100q-61 -41 -146 -53q-13 131 -37 262.5t-50 250.5t-47.5 218.5t-26.5 171.5z" />
<glyph unicode="," horiz-adv-x="558" d="M92 445q-3 74 50 119t129 32q38 -5 73 -22.5t63 -46t46 -63t18 -72.5q8 -61 -3.5 -121.5t-32 -110.5t-45 -87t-39.5 -58q-15 -20 -38.5 -21.5t-40 11.5t-21.5 36t15 51q23 31 9 75.5t-34 83.5q-64 20 -105 73.5t-44 120.5z" />
<glyph unicode="-" d="M-205 835q133 -13 263.5 -12t248.5 6.5t217.5 9.5t171.5 -4q72 -5 120.5 -55t69 -108t13 -105t-48.5 -47h-172t-162.5 1t-163.5 1h-175q-110 0 -183 49t-117 107q-51 67 -82 157z" />
<glyph unicode="." horiz-adv-x="537" d="M72 412q-15 74 27 129t116 58t138 -49.5t77 -127.5q15 -74 -25.5 -127.5t-115.5 -56.5q-74 -3 -138 48.5t-79 125.5z" />
<glyph unicode="/" d="M5 -340q120 238 234 479.5t215.5 463t187 408.5t152.5 315q64 128 106 189.5t58.5 68t7.5 -36t-47 -119.5q-77 -164 -147.5 -314.5t-142 -299t-144.5 -302.5t-152 -323q-97 -202 -158.5 -309.5t-100.5 -155.5q-46 -59 -69 -64z" />
<glyph unicode="0" horiz-adv-x="1354" d="M-130.5 930.5q20.5 129.5 79.5 225.5t149.5 151t203.5 55q115 0 225 -55t202.5 -151t159 -225.5t91.5 -275.5q26 -146 5.5 -272.5t-79.5 -222.5t-149.5 -151t-206.5 -55q-115 0 -225 55t-201 151t-157.5 222.5t-91.5 272.5q-26 146 -5.5 275.5zM242 814q-1 -100 27 -207 q28 -108 76.5 -197.5t109 -152t128 -93.5t131.5 -21t111.5 61.5t72 128.5t24.5 174t-26 205q-28 108 -75.5 198.5t-109 153t-129 94.5t-131.5 22q-67 -13 -113 -62.5t-70.5 -126.5t-25.5 -177z" />
<glyph unicode="1" horiz-adv-x="1169" d="M-161 919q0 18 15 33q10 10 36 43.5t60.5 77t74 91t80.5 87t78 65t68 25.5q44 0 97.5 -24t101 -64t83 -91t46.5 -102q5 -33 24 -128t41 -218t46 -258.5t41 -252t20.5 -198.5t-9.5 -97q-23 -23 -84.5 -18t-130.5 28t-126.5 61.5t-72.5 81.5q-10 28 -22 113t-24.5 195 t-28 229t-32 218.5t-36 165t-39.5 65.5q-33 0 -66.5 -18t-64 -42t-56.5 -50t-43 -44q-20 -18 -37 -16.5t-28.5 13t-11.5 29.5z" />
<glyph unicode="2" horiz-adv-x="1374" d="M-114 934.5q-1 15.5 6 22.5q5 8 45 62t106.5 119t153.5 121.5t187 66.5t207.5 -43.5t212.5 -209.5q77 -110 92 -203.5t-10.5 -169t-83 -137t-129 -109t-148.5 -82t-141 -60t-105 -39.5t-41 -22q0 -10 54 -15.5t134.5 -8t177.5 -2.5t183 -1t147.5 -3.5t74.5 -10.5 q18 -10 21.5 -46t-1.5 -77t-18 -79.5t-25 -56.5q-10 -10 -70.5 -17.5t-149 -12.5t-190.5 -6.5t-193 -1.5t-156.5 2.5t-80.5 7.5q-23 5 -55 50t-61.5 100t-47.5 107.5t-13 70.5t29.5 25.5t77 19t138.5 34.5t211 74q95 38 138.5 103.5t50 140t-20.5 151.5t-72 138t-104 99.5 t-117 38.5q-87 0 -146 -20.5t-99 -47.5t-61.5 -53.5t-31.5 -39.5q-20 -20 -37 -19t-27.5 12.5t-11.5 27z" />
<glyph unicode="3" horiz-adv-x="1256" d="M-171.5 997q-2.5 14 5.5 22q5 5 43.5 51t101 100t145.5 101t176.5 55t192 -38t196.5 -177q69 -92 83 -167.5t-10.5 -138.5t-76.5 -114t-119 -89q79 -38 149.5 -89.5t116.5 -115.5t59 -139.5t-23 -167.5q-51 -131 -134.5 -176t-179.5 -36t-195.5 55.5t-181.5 101.5 t-136 99.5t-59 52.5q-10 8 -14 20.5t1 21.5t19.5 9t37.5 -18q15 -10 45.5 -32t77 -45t110.5 -39.5t145 -16.5q56 0 101 36t65.5 93.5t15.5 125.5t-43 134q-23 31 -51.5 49t-51.5 28q-28 10 -56 15q-33 0 -55 8t-27 23q-3 13 17.5 22t54.5 9q31 0 52.5 12.5t37 29.5t23 34.5 t12.5 30.5q13 64 -7.5 130.5t-61.5 121.5t-96 91t-111 36q-82 0 -138.5 -16.5t-95 -39.5t-61.5 -45t-33 -32q-18 -18 -32 -18t-23 9t-11.5 23z" />
<glyph unicode="4" horiz-adv-x="1587" d="M-130.5 780.5q-7.5 102.5 31 201t88 175.5t96 127t51.5 55q10 10 26.5 11.5t28 -6.5t14 -23t-15.5 -41q-10 -13 -30.5 -41t-39.5 -73t-28 -109t6 -151q13 -69 76 -126.5t147 -89.5t176.5 -31t161.5 55q-15 108 -26.5 210.5t-18 183t-6.5 133t10 62.5q18 18 70.5 20.5 t115 -20.5t122.5 -72t91 -128q20 -54 44.5 -158.5t48 -232.5t43.5 -264t34.5 -251t17 -194.5t-10.5 -94.5q-18 -23 -75.5 -20.5t-125.5 24t-129.5 60t-84.5 89.5q-8 18 -18 61.5t-21.5 102.5t-24.5 131t-23 151q-38 -54 -86.5 -92.5t-110 -56.5t-138.5 -7.5t-169 53.5 q-169 77 -239.5 175.5t-78 201z" />
<glyph unicode="5" horiz-adv-x="1574" d="M-57.5 1058.5q1.5 65.5 7.5 121.5t16.5 96t23.5 42q13 3 78 5.5t154.5 2.5t193.5 -1t193.5 -6.5t153.5 -13t77 -17.5q18 -18 43.5 -56.5t46 -79.5t28 -75.5t-7.5 -44.5q-10 -10 -88.5 -13t-183.5 -4t-213.5 -2.5t-180.5 -6.5q-20 0 -33 -25.5t-19.5 -56.5t-7.5 -59 t-1 -30q3 -8 48.5 -15.5t116 -22t157.5 -35t173 -53.5t162.5 -80.5t128 -112.5t67 -152.5t-20.5 -197.5q-51 -156 -147 -209.5t-210 -43.5t-234.5 66.5t-220.5 120.5t-165 117.5t-73 61.5q-8 10 -10.5 25.5t1.5 27t18 11.5t42 -23q18 -13 64 -38.5t114 -51t148.5 -45 t167.5 -19.5t146 59t61.5 141t-64 169t-230.5 146q-82 28 -157.5 48.5t-140.5 34.5t-115 23t-76 14q-13 3 -20.5 41.5t-10 94.5t-1 121.5z" />
<glyph unicode="6" horiz-adv-x="1500" d="M-61 509q-26 164 38 305q20 59 62.5 151t93.5 197t106 212.5t105 193.5t87 141t53 57q26 8 68 -15t80.5 -68t60 -110t3.5 -142q-15 -59 -71 -157.5t-128 -213.5q105 -15 201 -64t172.5 -122t130.5 -166.5t72 -198.5q20 -115 -7 -216t-89.5 -176.5t-158.5 -119t-214 -43.5 t-229 43.5t-202 119t-152.5 176.5t-81.5 216zM332.5 644q-15.5 -88 10.5 -173q23 -84 69 -156t105 -122t126.5 -74.5t134.5 -16.5q69 10 119 50t79.5 101.5t33.5 139.5t-19 163q-23 84 -82 164.5t-136 141t-160 92.5t-155 21q-51 -84 -82 -169q-28 -74 -43.5 -162z" />
<glyph unicode="7" horiz-adv-x="1500" d="M-224 1258q-6 37 22 50q18 10 103.5 14t203.5 3t252.5 -6.5t253.5 -13t203.5 -18t104.5 -22.5q26 -15 24.5 -100t-22 -213t-56.5 -285.5t-78 -320t-87 -317t-84.5 -274t-69 -192t-39.5 -72.5q-23 0 -61.5 20.5t-74.5 57.5t-59 88t-18 115q3 44 26 151.5t53.5 243 t61.5 282.5t50 269t20.5 201t-29.5 79q-82 0 -158.5 -6t-144.5 -7.5t-123 5t-96 31.5q-41 26 -80.5 68.5t-65.5 87t-32 81.5z" />
<glyph unicode="8" horiz-adv-x="1423" d="M-148 812q-18 102 7.5 193t85.5 157.5t149.5 106t199.5 39.5t215 -39.5t189.5 -106t142.5 -157.5t75 -193q23 -141 -27.5 -253.5t-158.5 -179.5q133 -64 225 -178t118 -252q18 -105 -8 -196t-86 -159t-149.5 -107.5t-199.5 -39.5q-113 0 -218 39.5t-189.5 107.5 t-143.5 159t-76 196q-20 138 29.5 250.5t156.5 179.5q-131 67 -222.5 179.5t-114.5 253.5zM215 919q-5 -69 15 -146t64 -141t99 -108.5t119 -66.5t128 -14q61 8 108.5 43.5t75.5 90.5t33.5 125.5t-15.5 147.5q-20 74 -63.5 138t-98.5 109t-119 68t-128 15q-61 -8 -109 -45 t-76 -92t-33 -124zM370 59q-6 -69 14 -146q23 -77 66.5 -141t98.5 -108.5t119.5 -66.5t125.5 -14t108.5 43.5t74.5 90.5t32 125.5t-16 147.5q-20 74 -63.5 138t-98.5 109t-119 66.5t-126 13.5q-61 -8 -108.5 -43.5t-74.5 -90.5t-33 -124z" />
<glyph unicode="9" horiz-adv-x="1482" d="M-133 755q-20 115 6.5 216.5t90.5 177t159 119t212 43.5q118 0 229.5 -43.5t202.5 -119t152 -177t82 -216.5q15 -84 5 -161t-43 -143q-23 -59 -64 -151.5t-92.5 -197.5t-106.5 -212.5t-105 -193t-87 -140.5t-52 -58q-26 -8 -69.5 15.5t-82 68t-59 110t-2.5 142.5 q13 59 70.5 157.5t129.5 213.5q-105 15 -201 63.5t-173 121.5t-130.5 166.5t-71.5 198.5zM-68 872q-4 -78 19 -163q23 -84 82 -165t134.5 -141t159 -93.5t154.5 -20.5q51 82 82 167q28 74 42.5 163.5t-9.5 174.5q-23 84 -69 155.5t-106 121.5t-127.5 74.5t-134.5 16.5 q-67 -10 -117 -49.5t-78 -101t-32 -139.5z" />
<glyph unicode=":" horiz-adv-x="537" d="M-38 1052q-15 74 25.5 129t114.5 58t137 -49.5t78 -127.5q15 -74 -25.5 -127.5t-114.5 -56.5t-137 48.5t-78 125.5zM72 412q-15 74 27 129t116 58t138 -49.5t77 -127.5q15 -74 -25.5 -127.5t-115.5 -56.5q-74 -3 -138 48.5t-79 125.5z" />
<glyph unicode=";" horiz-adv-x="537" d="M-38 1052q-15 74 25.5 129t114.5 58t137 -49.5t78 -127.5q15 -74 -25.5 -127.5t-114.5 -56.5t-137 48.5t-78 125.5zM67 445q-3 74 49.5 119t129.5 32q38 -5 72.5 -22.5t63 -46t46 -63t17.5 -72.5q8 -61 -3.5 -121.5t-32 -110.5t-45 -87t-39.5 -58q-15 -20 -38 -21.5 t-40 11.5t-22 36t16 51q23 31 9 75.5t-35 83.5q-64 20 -104.5 73.5t-43.5 120.5z" />
<glyph unicode="&#x3c;" horiz-adv-x="732" d="M-49 602q-5 20 12 74t43.5 121.5t64 139.5t74.5 129.5t74 92t63 29.5q38 -8 77.5 -54t69 -103.5t45 -112.5t2.5 -86q-10 -28 -55 -78t-95 -102.5t-88 -98.5t-33 -67q3 -15 28.5 -36.5t60 -50t74 -58t71.5 -59t50 -56t10 -44.5q-8 -20 -50 -2.5t-101 57t-126.5 93.5 t-126.5 106.5t-100 98.5t-44 67z" />
<glyph unicode="=" d="M-241 1039q133 -13 264 -11.5t248.5 6.5t217 9t171.5 -4q72 -5 120.5 -55t69 -107.5t13 -105t-48.5 -47.5q-179 0 -335 1.5t-341 1.5q-110 0 -181.5 48.5t-115.5 107.5q-51 67 -82 156zM-177 681q133 -13 262.5 -11.5t247.5 6.5t217.5 9t173.5 -4q72 -5 120.5 -55 t69 -107.5t11.5 -105t-49 -47.5h-172t-162.5 1.5t-164 1.5h-175.5q-110 0 -181.5 48.5t-115.5 107.5q-51 67 -82 156z" />
<glyph unicode="&#x3e;" horiz-adv-x="732" d="M-79 924q-5 56 5 114t33 104t59 54q26 5 74.5 -31t107.5 -93.5t121.5 -130.5t113.5 -139.5t86 -121.5t40 -76q5 -20 -20.5 -66t-65.5 -100t-90 -109t-96 -93.5t-83 -56.5t-52 3q-23 28 5 71.5t70 88.5t79.5 84.5t34.5 62.5q-3 13 -29.5 38.5t-66.5 59t-86 69t-89.5 70 t-76.5 64t-46 47.5q-23 31 -28 87z" />
<glyph unicode="?" horiz-adv-x="1423" d="M-651.5 2036.5q14.5 90.5 74.5 176.5t176.5 151t305.5 81q233 20 426.5 -26t343 -147t251 -253.5t152.5 -346.5q49 -195 16.5 -320.5t-104 -202t-157 -115t-142.5 -59.5q-90 -36 -147.5 -98.5t-88 -133t-38 -138t4.5 -111.5q15 -44 10.5 -63t-17.5 -19t-28.5 21t-25.5 59 q-8 31 -22 103.5t-7.5 158.5t48.5 166.5t147 123.5q138 59 192 184.5t40 279t-88.5 315t-192 291t-272.5 206t-329 63.5q-136 -13 -221.5 -55t-136.5 -99.5t-74.5 -123t-30.5 -121.5q28 23 74 26q67 8 128 -38.5t79 -112.5q18 -72 -19 -124.5t-104 -60.5q-67 -5 -129.5 40 t-79.5 116q0 10 -3 16q0 8 -2.5 16.5t-5.5 19.5q-18 64 -3.5 154.5zM323 15q15 -74 79 -125t138 -49q74 3 116.5 56.5t27.5 128.5q-15 74 -78 126.5t-138 49.5q-74 -3 -116 -58t-29 -129z" />
<glyph unicode="@" horiz-adv-x="2181" d="M-67 640q-41 228 10.5 429t174.5 350.5t308.5 235.5t413.5 86q143 0 276 -54t249.5 -144.5t216.5 -213.5t180.5 -262.5t139.5 -288t95 -292.5h-69q-5 15 -19.5 61.5t-32 99t-33 98.5t-23.5 61q-77 192 -190.5 358.5t-257 283t-312.5 171.5t-359 30 q-189 -26 -324.5 -120.5t-207.5 -239.5t-74.5 -324t77.5 -374q79 -192 221 -352t318.5 -268.5t372.5 -160t385 -25.5q246 36 401 182t196 361l33 -187q-46 -133 -128 -243t-194.5 -188.5t-252 -122t-298.5 -43.5q-228 0 -443 86t-391.5 235.5t-298 348t-160.5 426.5z M535 669.5q18 134.5 108 254.5q64 84 140.5 128t158.5 59q72 15 138.5 10t115 -19t75.5 -32t19 -33q-10 -15 -21.5 -12.5t-33.5 10t-57.5 17.5t-94.5 10q-54 0 -106.5 -24t-94.5 -66.5t-70.5 -98.5t-35.5 -120q-13 -92 7.5 -165t57.5 -122t82 -74.5t81 -25.5q64 0 101 38.5 t53.5 97.5t23 126.5t10.5 125.5t12.5 95t34.5 37t56.5 -41t66.5 -104t77 -136t87 -135.5t94.5 -103.5t102.5 -41q38 0 69 16.5t51 37.5q26 26 44 56l46 74q5 18 25 18q28 0 34 -25q0 -3 -26 -56.5t-77 -117.5t-126.5 -116.5t-175.5 -52.5q-69 0 -133 46t-115 102.5t-83 105 t-35 53.5q-3 -5 -22 -53.5t-57.5 -105t-97 -102.5t-138.5 -46q-131 0 -221.5 75.5t-129 188t-20.5 247z" />
<glyph unicode="A" horiz-adv-x="3023" d="M-950 724q233 -46 529 -63.5t621 -17.5q82 310 161 606.5t143 529.5q72 271 139 515q-31 49 -52 94q-18 38 -28 80q-4 18 -4 33q0 20 7 36q13 26 62.5 46.5t113.5 26.5q24 2 48 2l80 -6q64 -10 108 -43q20 -18 63.5 -106.5t109 -228t154 -318.5t199.5 -379t248 -408.5 t299 -405.5q133 5 229 9q38 2 70 2q47 0 79 -4q133 -8 213 -55t108 -107q17 -36 16 -72q0 -25 -8 -51q-20 -63 -80 -104q-20 -13 -76.5 -24t-146.5 -19q133 -118 279 -218q72 -46 100 -90q16 -25 16 -45q0 -15 -8 -29q-20 -30 -92 -39q-20 -3 -45 -3q-63 0 -155 17 q-87 15 -226.5 116t-308.5 268q-197 -5 -423 -7h-123q-165 0 -331 3q-229 4 -450.5 11.5t-405.5 20.5q-61 -253 -120.5 -487.5t-108 -422.5t-85.5 -312.5t-55 -157.5q-28 -46 -60 -59q-16 -6 -30 -6q-15 0 -27 6q-24 13 -36 50q-5 16 -4 36q0 26 8 58q5 23 36 136.5 t78.5 291.5t107.5 404.5t124 475.5q-79 5 -143 12.5t-115 15.5q-210 33 -361 96t-249 129q-115 74 -192 161zM366 644q333 5 657 19.5t603 30.5q-128 154 -253.5 325t-242 354t-219 374t-181.5 380q-13 -41 -47.5 -179t-83.5 -339t-109 -451t-124 -514z" />
<glyph unicode="B" horiz-adv-x="2764" d="M-1975 1726q-3 18 -3 32q0 30 14 39q8 8 31 0q18 -5 51.5 -25.5t84.5 -69.5q83 -64 199 -78q47 -6 97 -6q71 0 149 12q130 20 270 66.5t273 105.5t252 123t209 120q90 54 194.5 124.5t226.5 132t258.5 105t290.5 43.5t324 -52.5t357 -180.5q138 -97 222.5 -192t127 -186 t51.5 -173q4 -33 4 -65q0 -46 -8 -88q-28 -167 -161 -315q407 -195 634 -438q97 -105 165 -229q68 -123 76 -267q1 -15 1 -32q1 -130 -59 -272q-66 -160 -239 -334q-151 -154 -304.5 -244.5t-304.5 -133t-297 -42.5t-283 31t-263.5 83.5t-236.5 116.5q33 -184 63.5 -344.5 t55 -282t41 -199.5t24.5 -98q17 -48 17 -87q1 -12 -1 -24q-8 -46 -35 -48q-1 0 -2 -1q-26 0 -65 52q-40 54 -78 190q-13 41 -32 129t-43.5 212t-54 278t-59.5 328q-136 92 -231 172.5t-138 111.5q-72 54 -152.5 110t-144.5 108q-65 53 -99 98q-22 28 -21 51q0 13 7 25 q8 12 28 12q19 0 50 -11q63 -22 160.5 -78.5t223 -142t268.5 -185.5q-38 225 -79 463.5t-79.5 465t-73 433.5t-62.5 376q-115 -67 -232 -128t-229.5 -111t-222.5 -84.5t-212 -49.5q-92 -13 -174 -13q-97 0 -182 18q-156 33 -272.5 97t-193.5 150t-120.5 162t-52.5 134z M36 1626q20 -118 46 -259t54 -297q87 13 235.5 60.5t309.5 117.5t314.5 161t255 192t127.5 210q6 24 5 47q0 85 -72 170q-76 88 -197 88h-18q-133 -7 -299.5 -76t-361 -181.5t-399.5 -232.5zM205 681q44 -243 87 -493t87 -488q161 -92 363 -129q140 -26 281 -26q63 -1 125 5 q204 16 392 83t326 183t208 278q47 108 46 238q0 63 -11 131q-31 174 -115 281.5t-207 163.5q-123 54 -271 66q-60 5 -122 5q-90 0 -184 -10q-158 -17 -314 -55t-290.5 -82t-239.5 -84.5t-161 -66.5z" />
<glyph unicode="C" horiz-adv-x="2467" d="M-156 1037v34q0 171 32 339q34 186 109.5 355.5t192 303t276.5 219t365 100.5q58 4 113 4q180 0 324 -44q188 -58 320 -153.5t207.5 -205.5t95.5 -194q5 -13 6.5 -24.5t3.5 -22.5q5 -5 5 -11t3 -12q6 -28 6 -54q-1 -17 -3 -33q-6 -41 -27.5 -73t-57.5 -52.5t-79 -22.5 q-8 -1 -16 -1q-38 1 -74 13q-44 14 -79.5 40.5t-63.5 65t-39 84.5q-8 28 -8 55q0 16 3 32q8 41 29.5 73t56.5 52.5t81 23.5h14q48 0 93 -18q-46 69 -116.5 145.5t-171.5 138t-237 97.5q-100 26 -221 26q-44 0 -91 -3q-172 -13 -282 -142t-165 -330q-55 -200 -57 -454 q0 -13 -1 -27q0 -240 43 -487q45 -260 133 -505.5t216 -432.5q127 -188 293 -296q145 -95 316 -95q23 0 47 2q113 8 205 47.5t163.5 94.5t125.5 120.5t91 125.5t57 108.5t28 71.5q15 46 37 65.5t39 14t22 -34.5q1 -6 1 -14q0 -26 -14 -64q-13 -33 -37.5 -99.5t-68 -148.5 t-108.5 -169t-161 -161.5t-226.5 -127t-302.5 -65.5q-36 -3 -71 -3q-135 0 -261 40q-158 50 -300.5 146t-264.5 230.5t-219 291t-169 326.5t-113 339q-44 169 -48 356z" />
<glyph unicode="D" horiz-adv-x="2526" d="M-2014 2344q-3 8 -2 15q0 23 27 35q26 10 148.5 16.5t304.5 8.5q91 1 192.5 1.5t213.5 -1.5q224 -2 454 -5q538 -10 1206 -28q154 0 330.5 -60t350.5 -169t332.5 -260t277.5 -330t186 -380q57 -172 57 -351q0 -30 -2 -62q-12 -212 -113 -427.5t-316 -420.5 q-138 -133 -296.5 -203.5t-324.5 -93.5q-93 -13 -189 -13q-73 0 -149 8q-172 18 -339 61q3 -31 -9 -49q-11 -17 -32 -16h-2q-23 1 -51.5 26.5t-53.5 84.5q-218 72 -407.5 166.5t-332.5 181.5q-166 102 -307 208q-5 28 2 43q5 13 24.5 13t57.5 -28q28 -20 106.5 -79 t198.5 -132t279 -150t348 -136q-20 79 -51 244.5t-66.5 376.5t-74 446.5t-72 454.5t-61.5 401t-43 284q-261 0 -543 -9t-589 -9q-79 0 -169 24.5t-173 61.5t-154.5 83t-116.5 90t-57 78zM-82 2022q18 -110 50 -296.5t70.5 -410.5t79.5 -463.5t78 -453.5t67.5 -379t48.5 -242 q125 -31 258.5 -48.5t279.5 -17.5q218 0 381.5 101t268.5 265q104 164 148 370q30 140 30 282q0 67 -6 134q-20 210 -106 403t-242 331q-138 123 -297 204t-335.5 128t-370 67.5t-403.5 25.5z" />
<glyph unicode="E" horiz-adv-x="2132" d="M-6 1754q9 158 85.5 290t195.5 226.5t265 147t295 52.5q138 0 243 -37t184 -94.5t134.5 -132t90 -150t52 -143t25.5 -116.5q5 -10 6.5 -19t6.5 -22q3 -20 3 -39q0 -67 -42 -117q-54 -64 -145 -64q-46 0 -89.5 16.5t-79.5 47.5t-60 70.5t-32 85.5q-5 23 -5 45q1 65 41 113 q54 66 145 65q54 0 105 -23q-20 69 -60 143t-107.5 133t-171.5 97.5t-252 38.5q-118 0 -198.5 -60t-128 -157.5t-61.5 -221.5q-6 -57 -6 -115q1 -70 9 -140q16 -130 65 -253t127 -219t184 -154q98 -53 220 -52h22q61 0 94.5 -18t37.5 -38.5t-22 -38.5t-79 -18 q-195 0 -324.5 -70.5t-202 -184t-92.5 -259.5q-9 -67 -10 -136q0 -81 13 -163q24 -152 90.5 -298t166.5 -260t229.5 -184t280.5 -70q113 0 189.5 55t126.5 142t76.5 192t38 203.5t11.5 179t-2 116.5q-1 11 -1 21q-1 38 9 57q12 24 30 19t33.5 -39.5t20.5 -98.5q2 -22 2 -61 q0 -32 -2 -74q-2 -94 -20 -210t-55.5 -240t-104 -226.5t-165 -168t-236.5 -65.5q-225 0 -430 84.5t-366 229.5t-265 338q-104 194 -127 414q-6 55 -6 111q0 169 52 345q69 236 256 462q-179 189 -251 370q-64 161 -63 304q0 18 1 36z" />
<glyph unicode="F" horiz-adv-x="2288" d="M-1440 2224q6 62 69 109.5t196 54.5q30 2 77 2q55 0 133 -3q143 -6 340 -16.5t436.5 -23.5t497 -24t522.5 -15q118 -2 232 -2q143 0 281 3q248 5 469.5 24.5t390.5 54.5q-51 -87 -138 -161q-77 -67 -203.5 -129.5t-323.5 -95.5q-97 -15 -257.5 -29.5t-360 -23.5t-426 -15 t-454.5 -9q15 -82 38 -207.5t51.5 -284t60.5 -344t68 -382.5q207 -13 445 -23.5t471 -11t443 13t363 49.5q-33 -64 -94 -121q-51 -49 -139.5 -96t-224.5 -70q-77 -13 -208.5 -24.5t-295.5 -19t-345.5 -10t-356.5 -2.5q38 -220 78 -438t77 -420t69 -378.5t59 -312.5t45 -223 t26 -107q17 -47 17 -85q0 -14 -2 -26q-8 -46 -34 -48q-1 0 -3 -1q-27 0 -63 52q-38 54 -79 190q-20 67 -55 243t-81 422t-97 539t-102 593q-115 3 -217.5 6.5t-183.5 10t-136 15.5t-75 21q-54 31 -82 77q-25 41 -25 81q1 5 1 10q4 45 47 79.5t135 42.5q16 1 39 0 q53 0 141 -4q126 -7 297 -17q-33 197 -64 381.5t-56.5 343t-46 283t-33.5 203.5q-218 0 -420 4t-363.5 13t-271.5 21.5t-146 33.5q-78 41 -118 103q-35 54 -35 109q0 7 1 15z" />
<glyph unicode="G" horiz-adv-x="2288" d="M-166 1052q-1 36 -1 72q0 150 22 297q27 182 90 349.5t162.5 298t236.5 211t314 91.5q37 2 72 2q172 0 314 -52q172 -63 293.5 -161.5t194.5 -208.5t94 -195q13 -56 12 -77q5 -8 5.5 -16.5t2.5 -18.5q4 -22 4 -42q0 -23 -5 -44q-9 -40 -34.5 -69.5t-61.5 -46t-82 -16.5 q-92 0 -166.5 64t-92.5 154q-3 20 -3 40q0 66 41 116q52 64 144 64q61 0 120 -34q-38 69 -102 153.5t-160 157.5t-226 119q-104 38 -233 38q-30 0 -62 -2q-148 -8 -241.5 -134.5t-138.5 -325.5q-44 -192 -44 -432q0 -8 1 -16q1 -251 43 -511t124 -507t197 -436.5t260 -301.5 q133 -104 288 -104q14 0 28 1q118 8 209 57.5t157 119.5q-67 246 -124.5 434t-69.5 318q-5 42 -5 77q0 79 23 128q33 72 90 89q21 5 43 5q39 0 83 -19q68 -29 122 -98q36 -44 67.5 -133.5t60 -208.5t51.5 -261t39.5 -290.5t27 -298t12.5 -285.5v-28q0 -184 -37 -313 q-40 -140 -88 -227q-56 -102 -131 -164q2 66 2 130q0 243 -30 464q-38 279 -97 522q-84 -97 -213.5 -166.5t-316.5 -81.5q-24 -2 -47 -2q-126 0 -244 45q-139 54 -263.5 154t-232 236.5t-194.5 294t-152 329t-104 340.5q-41 169 -48 356z" />
<glyph unicode="H" horiz-adv-x="2342" d="M-1659 694q184 -38 414.5 -56t484.5 -24q127 -3 256.5 -2.5t261.5 2.5q265 6 521 16q-59 335 -112.5 654t-97.5 572q-49 294 -92 558q-3 22 -3 40q0 32 9 50q14 30 37.5 30t46.5 -29t35 -86q5 -28 34.5 -189.5t74.5 -408.5t100 -555.5t114 -630.5q220 13 419.5 23 t366.5 20q-31 177 -63 352.5t-60 340.5t-55 317.5t-50 282.5q-54 310 -100 584q-4 29 -4 51q0 31 8 50q13 31 35 31q1 -1 2 -1q23 -2 48.5 -33.5t38.5 -92.5q5 -20 19 -102t38.5 -215.5t56.5 -307.5t69 -376t78 -423.5t82 -449.5q128 5 220 9q41 2 75 2q41 0 69 -3 q136 -8 214 -56q78 -46 107 -108q18 -37 18 -75q0 -25 -8 -49q-19 -62 -80 -104q-36 -23 -178 -38.5t-355 -22.5q56 -297 107.5 -571t92.5 -489t70.5 -354.5t39.5 -170.5q18 -54 18 -97q0 -11 -2 -23q-6 -52 -33 -53h-1q-28 0 -66 58q-40 59 -82 207q-15 59 -45 201 t-68.5 339t-84.5 440.5t-94 507.5q-177 -4 -379 -6q-47 0 -94 -1q-157 0 -318 4q51 -274 97 -523.5t83 -445.5t64 -322.5t37 -154.5q17 -51 17 -89q1 -13 -1 -24q-8 -46 -35 -48q-1 0 -2 -1q-27 0 -65 53q-40 55 -80 193q-15 54 -42 183t-61.5 311t-75.5 404.5t-85 466.5 q-187 3 -367.5 10t-339 16t-288 20.5t-213.5 24.5q-207 33 -358.5 96t-248.5 129q-115 74 -192 162z" />
<glyph unicode="I" horiz-adv-x="1205" d="M-270 2246q-3 49 -3 85q0 59 9 81q28 68 86 98q36 19 75 19q23 0 45 -7q62 -18 121.5 -88.5t92.5 -203.5q15 -67 37 -223t50 -375t61.5 -484t74.5 -551.5t87 -579.5t100 -566t114 -511t129 -415q-97 61 -189 164q-82 87 -170.5 226.5t-157.5 344.5q-36 102 -81 284 t-94.5 411t-101 491.5t-99 523.5t-87 507t-65 441.5t-34.5 327.5z" />
<glyph unicode="J" horiz-adv-x="2081" d="M-2061 2281q0 31 43 33q9 1 19 1q37 0 88 -7q65 -9 140.5 -24.5t144.5 -20.5q261 -20 561 -25q206 -4 414 -4h189q303 3 592.5 12t529.5 17q-3 23 -2.5 52.5t5.5 60.5q5 28 62.5 67.5t129.5 69t141 42.5q23 4 42 4q37 0 58 -17q26 -23 46 -60t35.5 -75.5t25.5 -73 t16 -52.5h99q133 -3 206 -17t95 -32q10 -8 10 -16q0 -11 -15 -21q-27 -19 -91 -32q-26 -5 -93.5 -9t-164.5 -9q36 -113 93.5 -310t115 -442.5t101 -523.5t53.5 -551q2 -59 2 -118q0 -209 -28 -402q-35 -249 -139 -439.5t-287 -303t-467 -112.5q-131 0 -237 34.5t-189 90.5 t-143.5 126.5t-102.5 141t-66.5 133.5t-34.5 106q-8 38 -8 61q0 17 4 26q9 23 25.5 19t37 -29.5t28.5 -58.5q10 -33 34.5 -97t89.5 -128t184.5 -113t316.5 -49q166 0 263.5 106.5t139.5 284.5q41 174 41 399v10q-1 232 -32 483t-82 505.5t-105 477.5t-102.5 397t-76.5 263 q-177 -5 -369 -7.5t-385 -3.5t-379 -1t-348.5 1t-294 3.5t-216.5 7.5q-92 5 -171.5 11.5t-145.5 14.5q-118 13 -201.5 23t-137 23t-80.5 31t-27 46z" />
<glyph unicode="K" horiz-adv-x="2260" d="M-369 2414q-3 22 -3 39q0 31 10 51q14 30 37 30t48.5 -29t38.5 -86q5 -26 32 -170.5t66.5 -368.5t89.5 -506.5t104 -585t107.5 -603t102.5 -561.5q31 95 83 203.5t133 221t194.5 222.5t267.5 210q187 120 297 272.5t167 314.5q56 162 68 320q8 99 8 188q0 54 -2 104 q-8 134 -26 232t-23 136q-2 11 -2 22q-1 49 27 112q34 78 88 144q53 66 120 104q43 25 83 24q22 0 42 -7q38 -13 91 -121t81 -280q19 -119 19 -260q0 -64 -4 -130q-12 -218 -104.5 -449.5t-283 -458t-513.5 -418.5q-84 -44 -166 -97q36 -51 126.5 -172.5t234 -275.5 t338 -319t439 -307t536.5 -241q293 -98 629 -116q62 -3 126 -4q281 0 590 65q380 79 800 297q69 44 109 50q41 8 57 -8q12 -11 11 -31q1 -8 -1 -17q-6 -32 -30 -63q-20 -28 -94.5 -105t-194.5 -173t-284 -198t-361 -180.5t-425 -118.5q-139 -24 -285 -24q-94 0 -192 10 q-250 26 -520 135t-552 326.5t-570 562t-577 840.5q-159 -120 -253.5 -249t-145.5 -253.5t-66.5 -236t-15.5 -195.5q36 -184 61.5 -300.5t33.5 -144.5q17 -50 17 -88q0 -13 -2 -25q-8 -46 -34 -48q-1 0 -2 -1q-24 0 -62 53q-40 55 -81 193q-13 46 -35 147t-50 243.5t-60 319 t-68 373.5t-73 407t-73 420q-128 740 -279 1633z" />
<glyph unicode="L" horiz-adv-x="1128" d="M-908 -622q14 64 73 110q26 20 122 40.5t239.5 38.5t327.5 33.5t387 28.5q-36 192 -73 402t-73 422.5t-70.5 418.5t-65.5 393q-72 438 -143 865q-4 25 -4 45q0 27 8 45q14 29 36 29h1q23 -1 47 -30.5t37 -83.5q5 -23 28 -147t57.5 -317.5t78 -440.5t92.5 -517t99 -546.5 t96 -530.5q230 13 463 21t443 11q105 2 200.5 2t181.5 -2q172 -4 276 -14q207 -20 359.5 -76.5t254.5 -115.5q120 -69 202 -151q-220 31 -502 33h-46q-260 0 -544 -16q-308 -17 -620 -47.5t-594 -61.5q46 -253 80.5 -418t47.5 -199q15 -47 15 -84q-1 -14 -3 -26 q-8 -46 -34 -48q-1 0 -2 -1q-26 -1 -64 51q-38 54 -78 190q-15 56 -43.5 190.5t-64.5 326.5q-159 -18 -298.5 -34.5t-253.5 -29.5t-199.5 -20.5t-131.5 -7.5q-136 0 -216.5 42.5t-111.5 102.5q-21 41 -21 84q-1 20 4 40z" />
<glyph unicode="M" horiz-adv-x="3599" d="M-1304 1754q2 144 46.5 256t144 180t271.5 68q148 0 277.5 -37t238 -97.5t199.5 -137t163 -156.5q166 -189 281 -427q-1 31 -1 61q0 202 58 366q26 79 72 156t117.5 137.5t171.5 97.5t235 37q113 0 216.5 -88.5t198.5 -241.5q20 41 52 93.5t75.5 102t99 88t119.5 46.5 q84 11 160 11q98 -1 183 -19q151 -34 267.5 -104t203.5 -167t152 -201t112.5 -202.5t85.5 -172.5q28 -56 68 -178t84.5 -284.5t91 -353t84.5 -385t67.5 -380.5t41.5 -337q6 -85 6 -154q0 -55 -4 -101q-9 -104 -44 -136q-25 -22 -50 -22q-18 0 -35 12q-41 28 -85.5 86.5 t-97 129t-116.5 116.5q-33 23 -63 157.5t-63 337t-74 450.5t-98.5 501.5t-137 489t-188.5 412t-251 271.5q-107 72 -238 72q-43 0 -88 -8q-51 -8 -96 -36t-81 -63.5t-62.5 -73t-42.5 -65.5q84 -151 161 -340.5t144 -399.5t122 -427.5t99.5 -423.5t78 -390.5t52.5 -327.5 q20 -143 26 -233q3 -40 2 -66q0 -32 -4 -41q-19 -43 -71 -43q-4 1 -8 1q-59 4 -132 57.5t-149.5 158.5t-130.5 261q-102 671 -225 1200q-54 225 -117 440.5t-136 384.5t-152 272.5t-166 103.5q-141 0 -227 -82t-128 -221.5t-50 -326.5q-2 -58 -2 -117q0 -135 12 -281 q18 -211 52.5 -433.5t74.5 -434t79.5 -401t66.5 -334t35 -230.5q2 -21 1 -38q0 -50 -17 -55q-19 -5 -37 -5q-35 1 -65 21q-44 30 -85 82.5t-87 115t-112 108.5q-33 23 -66.5 151t-73.5 320t-87 431.5t-110 485.5t-143.5 479t-183 414.5t-230.5 291.5t-286 110 q-141 0 -219 -61.5t-110 -163.5q-28 -88 -28 -198q0 -17 1 -35q5 -131 32 -269t67.5 -273.5t79 -247t68 -187t32.5 -93.5q8 -38 -4 -56t-29.5 -17t-35.5 21.5t-23 59.5q-3 18 -35 101t-73 204.5t-83 269.5t-68 302q-25 145 -25 282q1 8 1 16z" />
<glyph unicode="N" horiz-adv-x="2378" d="M-1250 1841v6q0 16 11 35q15 31 46 91t77 120t107.5 107.5t135.5 57.5q57 7 112 8q82 0 158 -17q127 -27 235.5 -83.5t198.5 -134.5t164 -162q172 -197 292 -466q-1 26 -1 52q0 207 57 375q26 79 72 156t116.5 137.5t170 97.5t235.5 37q108 0 209 -82t191.5 -223 t172.5 -330t154 -401.5t132 -440.5t108.5 -444.5t84.5 -412t56.5 -348t28.5 -250.5q4 -50 3 -79q0 -27 -3 -35q-19 -43 -71 -43q-5 1 -9 1q-60 4 -132.5 57.5t-149 158.5t-130.5 261q-102 671 -225 1200q-54 225 -116.5 440.5t-135.5 384.5t-152.5 272.5t-166.5 103.5 q-141 0 -226.5 -82t-128 -221.5t-50.5 -326.5q-2 -55 -2 -112q0 -137 13 -286q18 -211 52.5 -433.5t74 -434t79 -401t66.5 -334t35 -230.5q2 -22 2 -39q0 -49 -17 -54q-19 -5 -37 -5q-35 1 -65 21q-44 30 -85 82.5t-87 115t-113 108.5q-33 23 -69 155t-78 331.5t-93.5 445.5 t-116.5 498t-147 486.5t-185 412.5q-102 179 -228 277q-103 81 -226 81q-26 0 -53 -4q-54 -8 -101 -38.5t-83 -69t-62.5 -78t-39.5 -65.5q-15 -26 -29.5 -32t-24 0.5t-11.5 24.5z" />
<glyph unicode="O" horiz-adv-x="2787" d="M-169 1506q41 282 160 490t306 329.5t425 121.5q159 0 315 -55t300.5 -156t275 -242t234.5 -312.5t179.5 -368.5t113.5 -409q32 -186 32 -358q0 -124 -16 -242q-40 -280 -160 -489t-306.5 -330.5t-424.5 -121.5t-468.5 121.5t-422.5 330t-331.5 489t-196.5 600.5 q-32 185 -32 357q0 126 17 245zM122 1367q12 -248 101 -517q92 -266 241.5 -487.5t329 -374t372.5 -222.5q128 -47 251 -47q63 0 124 12q182 36 307.5 169t184.5 333q50 170 50 374q1 36 -1 74q-10 248 -103 517q-92 269 -242 490.5t-329 372.5q-180 151 -374 221 q-129 47 -251 47q-63 0 -123 -12q-182 -36 -306 -169t-184 -333q-50 -168 -50 -369q0 -39 2 -79z" />
<glyph unicode="P" horiz-adv-x="2288" d="M-1894 2493q-3 11 -4 19q0 25 27 35q26 8 142 13t289 6q86 1 182 1q98 0 204 -1q212 -2 429 -3q513 -8 1145 -21q146 0 311 -45t326 -125.5t307 -192t252.5 -244.5t161.5 -283q41 -113 41 -229q0 -37 -4 -77q-18 -158 -121.5 -317t-316.5 -312q-138 -100 -293 -152.5 t-316 -68.5q-87 -9 -175 -9q-75 0 -150 6q-164 14 -320 50q38 -218 75 -433t71.5 -412t65.5 -367.5t55.5 -298.5t41 -207t21.5 -92q11 -26 11 -48q0 -13 -4 -24q-10 -31 -36 -32h-1q-25 -1 -57 33q-33 34 -64 122q-15 44 -47 211.5t-77 416t-96 550.5t-103 614 q-200 54 -372.5 123t-302.5 133q-151 74 -280 151q-3 23 6 33q5 10 23 10.5t53 -20.5q26 -15 96.5 -57.5t182 -93.5t258.5 -107.5t326 -97.5q-33 207 -66.5 407t-63 380.5t-55 334t-43.5 268.5q-253 8 -520.5 8h-554.5q-77 0 -164 33.5t-169 86t-152 113.5t-116.5 116 t-58.5 96zM-31 2035q18 -118 45 -275t57.5 -340.5t66.5 -387t72 -412.5q120 -20 248 -33.5t266 -13.5q207 0 374 67t284.5 173t181.5 238q64 133 68 263v15q0 122 -59 229q-63 114 -198 185q-279 148 -632.5 210t-773.5 82z" />
<glyph unicode="Q" horiz-adv-x="2718" d="M-222 1626q48 245 171 427t312.5 288t427.5 106t465.5 -106t416 -288t321.5 -427.5t184 -524.5q26 -144 26 -278q0 -123 -22 -238q-45 -240 -168 -424q82 -74 146 -148t113 -149q87 -131 119 -237t45 -162q2 -25 2 -48q0 -83 -29 -130q-37 -60 -78 -93q-44 -31 -72 -44 t-31 -13q4 32 4 74v17q-1 53 -12.5 114.5t-38.5 129t-70 136.5q-49 84 -127 169t-175 162q-113 -87 -250 -134.5t-296 -47.5q-253 0 -491 117.5t-433 322.5q-46 -13 -79.5 -23t-53.5 -15q-55 -18 -90 -18q-38 0 -53 21q-14 18 -14 44q0 33 21 78q28 64 90 133 q-102 151 -172.5 324t-104.5 360q-26 144 -26 280q0 126 22 245zM66 1506q6 -218 90 -451q44 -118 100 -224.5t128 -200.5q74 20 197 30q45 4 94 4q83 0 175 -11q184 -20 387.5 -90.5t385.5 -183.5q46 -28 89.5 -57.5t84.5 -60.5q84 87 135.5 207.5t69.5 262.5q9 68 9 140 q0 78 -11 161q-19 158 -80 325q-87 233 -231.5 426t-320 326.5t-368.5 193.5q-127 40 -250 40q-63 0 -125 -11q-182 -31 -310 -147.5t-192 -288.5q-58 -157 -58 -351q0 -19 1 -39zM748 271q169 -118 349 -171q113 -33 223 -33q65 0 129 12q13 0 28 5q-13 5 -24.5 11.5 t-24.5 12.5q-161 79 -337.5 118.5t-342.5 44.5z" />
<glyph unicode="R" horiz-adv-x="2736" d="M-1445 2534q-4 11 -4 21q0 24 26 33q26 8 142 13t290 6q87 1 183 1q98 0 204 -1q212 -2 430 -3q512 -8 1144 -21q146 0 311 -45t326.5 -125.5t306 -192t250.5 -244.5q107 -132 162 -282q41 -113 41 -230q0 -38 -4 -76q-18 -156 -121.5 -316.5t-316.5 -313.5 q-95 -69 -198.5 -114t-216.5 -73l13 -3q415 -607 965 -967q233 -154 521 -269t625 -147q104 -10 213 -9q243 0 509 48q385 72 815 295q64 41 101 47q36 6 52 -9q12 -11 12 -31q0 -6 -1 -14q-5 -30 -28 -60q-20 -26 -92 -100t-187 -166t-272.5 -189.5t-347.5 -171.5 q-189 -73 -408 -111q-123 -21 -252 -21q-102 1 -208 13q-240 30 -498.5 138.5t-527.5 325t-545.5 554t-552.5 826.5q-129 -21 -260 -21q-28 1 -56 1q-160 6 -316.5 32.5t-305 68.5t-278.5 93q49 -269 94.5 -521t83 -454t64 -334t37.5 -157q14 -41 14 -73q0 -14 -3 -27 q-9 -42 -33 -44h-2q-23 0 -59 48q-38 50 -73 172q-15 54 -45 195t-65.5 336.5t-78 432.5t-85.5 488q-108 44 -195 87t-151 77q-74 38 -131 74q-3 23 6 33q5 10 23 10.5t53 -20.5q31 -20 129.5 -75.5t254.5 -121.5q-28 172 -57.5 343t-56 331t-49.5 303.5t-41 261.5h-617 q-77 0 -163 33.5t-169 85.5t-154.5 113.5t-116.5 116.5t-59 96zM-38 2086q20 -123 45.5 -274t55 -317t61.5 -345.5t63 -358.5q197 -72 444 -124.5t541 -52.5q207 0 374 67t284.5 173t181.5 238t68 262v16q0 122 -58 229q-62 114 -197 185q-177 92 -384 150t-442.5 91 t-495.5 46t-541 15z" />
<glyph unicode="S" horiz-adv-x="3036" d="M-282 1526q-9 50 -9 98q-1 92 33 172q50 122 152.5 219t248.5 167.5t312.5 118t342 70.5t339.5 23q246 0 450.5 -45t360.5 -120.5t257.5 -176.5t139.5 -216q29 -87 29 -153q0 -20 -2 -38q-12 -78 -54 -127t-106 -70.5t-128 -21.5q-49 0 -93.5 18t-79.5 47.5t-56.5 66.5 t-29.5 78q-3 18 -3 35q0 23 6 45q10 38 34.5 68.5t65.5 48.5t94 18q36 0 78.5 -15.5t78.5 -33.5q40 -20 81 -46q-23 159 -148 282q-54 54 -136 103.5t-198.5 90.5t-273.5 65.5t-362 24.5q-200 0 -381.5 -37t-325 -102.5t-241.5 -152.5q-99 -88 -131 -186q-14 -43 -14 -88 q0 -58 23 -118q41 -108 176.5 -211t372.5 -199t595 -176q325 -72 597.5 -148.5t479 -184t338 -258.5t170.5 -374q13 -79 13 -151q0 -130 -44 -233q-69 -161 -222.5 -266t-380.5 -155t-500 -50q-274 0 -543 51t-486.5 144.5t-363.5 225.5t-174 291q-5 27 -5 51q-1 49 21 85 q32 52 88 74q41 15 90 15q18 -1 36 -3q69 -8 131 -43q56 -31 89.5 -97.5t33.5 -137t-43.5 -134.5t-141.5 -92q33 -46 102.5 -91t163 -84.5t203.5 -73t224 -57.5t225 -38t206 -14q246 0 445.5 65t320 171.5t148.5 243.5q6 31 6 62q0 107 -75 218q-97 143 -334 280t-641 245 q-384 102 -678.5 177.5t-503 170.5t-331.5 230.5t-162 358.5z" />
<glyph unicode="T" horiz-adv-x="1587" d="M-1518 2414q174 -36 389 -54t453 -24q119 -2 241 -2q123 0 247 2q250 5 491.5 14.5t463 22.5t406 23t317.5 16q86 4 143 3q31 0 54 -1q131 -8 207 -52t102 -102q15 -33 15 -68q0 -24 -8 -50q-19 -60 -75 -99q-33 -23 -174 -37t-347 -22q-205 -8 -459 -9h-85 q-212 0 -425 4q20 -108 53.5 -298.5t77 -430t92 -512t97 -542.5t95 -522.5t84.5 -452t64 -330t36 -158.5q17 -44 17 -79q0 -12 -2 -24q-8 -44 -34 -46h-2q-25 0 -60 49q-37 51 -75 179q-18 56 -47.5 202t-68 348.5t-82 448t-88.5 504t-88.5 514.5t-81.5 479t-67.5 399.5 t-45.5 273.5q-169 3 -327.5 9.5t-298 15.5t-252 18t-189.5 21q-200 31 -342 92.5t-237 122.5q-110 72 -184 154z" />
<glyph unicode="U" horiz-adv-x="2304" d="M-376 2071q-2 9 -2 20q0 33 18 81q24 63 65.5 124.5t94 112.5t100.5 67q17 6 33 6q29 0 55 -20q40 -30 58 -130q8 -38 24.5 -185.5t47 -363.5t77 -478.5t111.5 -531.5t153.5 -522.5t201 -449t253.5 -314.5t312 -119q138 0 229 82t145 224t74 330q19 175 20 372v28 q-2 212 -23.5 439t-51 442t-64 409.5t-65.5 343t-51.5 241t-22.5 104.5q-5 31 2.5 44t20.5 10.5t24.5 -17t16.5 -37.5q3 -8 27 -109t60 -266t76.5 -384t75.5 -462t59 -499t24 -496.5t-29.5 -455.5t-99.5 -375t-188 -253.5t-292 -93.5q-220 0 -396.5 97t-320 263.5 t-253.5 389.5t-196 471t-148.5 510.5t-110 509.5t-82 464.5t-62.5 376.5z" />
<glyph unicode="V" horiz-adv-x="2342" d="M-1089 2376q19 28 87 38q21 3 46 3q58 0 142 -16q79 -15 186.5 -75t241 -194.5t292 -353.5t340.5 -549t388 -787t434 -1064q13 41 50 185.5t88 356t112.5 468.5t126.5 524.5t128 525t118 464.5t96 348t61 177q26 41 56 53q15 7 29 7q13 1 24 -5q25 -12 35 -46 q5 -15 4 -35q0 -24 -7 -53q-5 -18 -24 -92.5t-50 -189.5t-70.5 -266t-87 -325.5t-97.5 -363.5t-101 -379q-179 -671 -404 -1510q28 -46 48 -90q18 -36 27 -77q4 -17 4 -31q0 -20 -8 -35q-13 -26 -60 -45q-47 -20 -106 -26q-23 -3 -47 -2q-35 0 -73 6q-62 10 -103 44 q-20 15 -67.5 135.5t-118 311t-165 435t-212.5 513.5t-256 543t-297 522t-337 454t-372 340q-68 44 -94 86q-15 24 -15 44q0 14 8 26z" />
<glyph unicode="W" horiz-adv-x="2777" d="M-1214 2376q16 28 71 38q17 3 38 3q48 0 119 -16q67 -15 158 -75t205 -194.5t252 -353.5t298 -549t343 -787t390 -1064q15 64 38.5 215t48 335.5t51 374t54.5 332.5q-108 259 -208.5 506t-184 446.5t-142 334t-79.5 172.5q-31 54 -31 100t22 78q23 32 61 48q27 11 56 10 q12 0 26 -2q44 -6 88 -39.5t78 -94.5q59 -108 112.5 -229.5t119 -285t152.5 -382.5t212.5 -516t298 -687.5t410.5 -897.5q10 41 30.5 193.5t50 376.5t64 498t72 558t73 556.5t67.5 494t59 370t42 184.5q18 41 44 53q14 7 25 7q11 1 20 -5q19 -12 29 -46q5 -17 5 -39.5 t-5 -48.5t-29.5 -182t-60 -393t-81.5 -531.5t-93.5 -600.5t-92.5 -596.5t-82 -521t-61.5 -376t-29.5 -158.5q-10 -26 -49 -45q-38 -20 -86 -26q-19 -3 -39 -2q-30 0 -61 6q-51 10 -85 44q-15 15 -72.5 139t-141 320t-187 445.5t-213.5 516.5q-33 -177 -70.5 -378t-70.5 -378 q-38 -205 -77 -409q26 -46 44 -90q15 -36 24 -77q4 -19 4 -35q0 -18 -5 -31q-10 -26 -48 -45q-40 -20 -88 -26q-19 -3 -38 -2q-30 0 -62 6q-52 10 -87 44q-18 15 -60 135.5t-106 311t-150 435t-191 513.5t-226.5 543t-261 522t-291.5 454t-319 340q-59 44 -82 86 q-14 25 -14 45q0 14 6 25z" />
<glyph unicode="X" horiz-adv-x="2229" d="M-279 2432q-1 8 -1 15q0 23 12 31q7 4 17 4q15 0 35 -9q34 -15 73 -61q15 -20 95.5 -124t206 -265.5t285.5 -367.5t337 -434q110 243 235.5 462t265 384t290.5 262.5t312 97.5q68 10 118 10q22 0 40 -2q60 -6 84 -26.5t12.5 -48.5t-57.5 -59q-138 -20 -273.5 -148 t-265 -329t-248.5 -453t-224 -519q141 -182 281.5 -362t268.5 -344t239.5 -305t198.5 -249.5t143.5 -177.5t74.5 -85q51 -51 70 -99q10 -25 10 -40t-8 -22q-6 -5 -16 -5q-21 0 -60 22q-58 32 -160 144q-46 49 -153.5 181t-256 318.5t-325 414.5t-363.5 469 q-105 -274 -191 -534t-151 -465t-106 -333t-54 -138q-26 -24 -76 -30q-31 -4 -62 -4q-18 0 -38 2q-52 4 -98 17t-64 31q-3 2 -3 13q-1 20 9 71q14 79 43.5 212.5t78.5 308.5t111.5 377.5t140.5 419t170 431.5q-192 248 -364.5 473t-305.5 400q-156 202 -287 378 q-41 54 -46 90z" />
<glyph unicode="Y" horiz-adv-x="2521" d="M-410 2452q0 24 17 32q9 5 20.5 5t26.5 -5q29 -8 62 -39q26 -23 92.5 -116.5t158.5 -232t200.5 -307.5t221.5 -344t221.5 -345.5t198.5 -311t152.5 -236.5t85.5 -124q28 422 91 731.5t146 528.5t177.5 357.5t189.5 220.5t180.5 116.5t149.5 44.5q68 10 118 10q22 0 41 -1 q62 -7 86 -28q16 -13 16 -31q0 -8 -4 -17q-11 -28 -57 -59q-115 -15 -213.5 -121t-182 -276.5t-150 -392t-121.5 -467t-98.5 -504t-76.5 -503t-59 -462.5t-43.5 -384t-32 -266t-24.5 -110q-26 -23 -76 -29q-30 -5 -62 -5q-19 0 -40 2q-52 4 -97 16.5t-63 30.5q-8 6 -8 52v25 q3 69 14.5 175t28 239.5t34.5 271.5q44 323 105 724q-374 553 -673 999q-128 189 -252 373.5t-224 334t-168 248.5t-80 116q-29 39 -29 64z" />
<glyph unicode="Z" horiz-adv-x="2132" d="M-946 2060q0 20 12 34q12 15 38 13q10 0 128 -19.5t300 -34.5t400 -17q15 0 30 1q204 0 414 19q225 20 431.5 60t367.5 88q138 38 229 76.5t122 51.5q3 3 5 4t5 4q18 13 33 13q23 6 44 6q60 -1 107 -49q64 -66 75 -180q1 -5 1 -11q0 -52 -41 -176q-45 -138 -122 -335 t-178 -436.5t-212 -488t-226.5 -489t-215.5 -440.5q69 -92 179.5 -218.5t260 -265t337.5 -273t412 -242t486 -173.5q256 -65 542 -66h13q294 2 622 81.5t686 263.5q64 41 103 47q38 8 54 -8q11 -11 10 -29q0 -7 -2 -15q-6 -28 -29 -59q-20 -26 -88 -96.5t-178 -160 t-258.5 -185.5t-330.5 -170q-182 -75 -390 -117q-153 -31 -318 -31q-60 1 -122 5q-230 16 -479.5 104t-508 273.5t-526 481t-536.5 728.5q-56 -108 -103.5 -192.5t-83.5 -143.5q-120 -187 -239 -294t-214 -164q-113 -67 -213 -84q108 154 219.5 362.5t221.5 447.5t218.5 499 t210 516t192 496.5t167.5 444t136 357.5t97 235q-41 -13 -87 -28t-97 -28q-169 -46 -381.5 -82t-443.5 -51q-169 -11 -333 -11q-55 0 -109 1q-218 5 -395 25q-87 8 -158.5 19.5t-122.5 19t-79.5 13t-25.5 2.5q-31 8 -47 27q-16 20 -16 44z" />
<glyph unicode="[" horiz-adv-x="1305" d="M-8871.5 -1804.5q-1.5 56.5 16.5 134.5t62.5 172.5t138 190.5t242 187t372.5 162.5t534 116.5t723.5 50t939.5 -38.5t1186 -148.5q745 -120 1363.5 -179t1128 -72t914 15.5t722 87t554 142t405.5 178.5q599 335 617 883q-15 84 -73 180t-145 178t-195.5 138.5t-224 66.5 t-229 -40t-213.5 -180q-36 -46 -52.5 -47.5t-22 15t-4.5 28.5l2 35q51 72 118 128q59 49 142 89.5t198 40.5q113 0 253.5 -25.5t274 -105t241 -228t150.5 -396.5q20 -123 -15.5 -284.5t-148 -334t-312.5 -343t-505.5 -315t-729.5 -248t-982 -142t-1262 2.5t-1574 184 q-819 136 -1474.5 213t-1160 98.5t-866.5 -10.5t-592.5 -114t-335.5 -212.5t-100 -307.5q5 -77 -6.5 -107.5t-28 -26.5t-30.5 36t-14 78q0 18 -1.5 74.5z" />
<glyph unicode="\" d="M-270 1575.5q-1 19.5 36 -11.5t101 -107q141 -161 269 -308.5t254.5 -293.5t257 -295.5t274.5 -316.5q172 -197 261 -314.5t128 -179.5q46 -72 46 -100q-202 241 -409.5 478t-395.5 450.5t-346.5 395t-266.5 312.5t-158 201t-51 89.5z" />
<glyph unicode="]" horiz-adv-x="1305" d="M-7534 -1776.5q0 79.5 38.5 187t134.5 230.5t285.5 234t490 195.5t751 116.5t1070 -2.5t1444.5 -162.5q609 -95 1109.5 -139.5t906 -47t723 30.5t561 92t417.5 138.5t294 168.5q422 315 356 812q-15 84 -73 180t-145 178t-195.5 138.5t-224 66.5t-229 -40t-213.5 -180 q-36 -46 -52.5 -47.5t-22 15t-4.5 28.5l2 35q51 72 118 128q59 49 142 89.5t198 40.5q113 0 253.5 -25.5t274 -105t241 -228t150.5 -396.5q20 -123 1 -274t-98 -307t-225 -306t-376.5 -273t-554.5 -207.5t-756.5 -110t-984 20.5t-1237.5 182q-783 156 -1422 226.5 t-1139.5 69t-866.5 -65.5t-604.5 -176.5t-351 -263.5t-107.5 -328q5 -77 -6.5 -107.5t-28 -26.5t-30.5 36t-14 78v102.5z" />
<glyph unicode="^" horiz-adv-x="1323" d="M-115 1542q10 40 40.5 92.5t73 111.5t87.5 109t84.5 82t59.5 32t79.5 -26t133.5 -65.5t153.5 -88t146 -97t110 -91t40.5 -68.5q-3 -36 -42 -67.5t-93 -52t-109 -26t-88 12.5q-31 15 -90 69t-123 113t-117.5 105t-74.5 46q-20 0 -52 -43.5t-66.5 -93.5t-72 -85.5 t-67.5 -18.5q-23 10 -13 50z" />
<glyph unicode="_" d="M36 -31q133 -13 263.5 -11.5t248.5 6.5t218 9t174 -4q72 -5 120 -55t68.5 -107.5t12 -105t-49.5 -47.5h-172t-162.5 1.5t-164 1.5h-175.5q-110 0 -183 48.5t-116 107.5q-51 67 -82 156z" />
<glyph unicode="`" horiz-adv-x="1707" d="M-218 1915q20 67 83 72t146.5 -27t180.5 -91t186.5 -123t162.5 -123t114 -90q23 -18 33.5 -42t8 -43.5t-18 -24.5t-46.5 16q-20 15 -94.5 42t-174 64t-209.5 82t-197.5 93.5t-138.5 97t-36 97.5z" />
<glyph unicode="a" horiz-adv-x="1822" d="M-92 549q0 111 34.5 225t111.5 219q82 113 183 169.5t206 76.5q70 13 135 13q24 0 47 -2q87 -6 152 -24t99.5 -42t24.5 -42q-13 -20 -28 -18t-43.5 13.5t-75.5 24.5t-124 13q-72 0 -140 -32t-124 -87t-93 -129.5t-48 -155.5q-5 -43 -5 -82q0 -73 18 -135 q28 -94 75.5 -159t106.5 -98t105 -33q84 0 131.5 51t70.5 126.5t30.5 164t14 164t18 125.5t45.5 50q33 0 72.5 -55t87 -136t100 -177t112.5 -176.5t124 -135.5t133 -55q51 0 91 21.5t68 50.5q31 31 54 71l61 100q3 10 13 16.5t23 6.5q36 0 41 -36q0 -3 -14 -36t-43.5 -83 t-74.5 -107.5t-103.5 -106t-131.5 -82t-160 -33.5q-92 0 -175.5 60.5t-148.5 134.5t-106 137t-46 70q-3 -8 -28.5 -70.5t-77 -136.5t-128 -134.5t-181.5 -60.5q-113 0 -204 45t-153.5 122t-97 178t-34.5 212z" />
<glyph unicode="b" horiz-adv-x="1694" d="M-184 1658q12 250 71 445.5t174.5 314.5t302.5 119q108 0 155 -83t51 -219v-28q0 -125 -28 -279q-30 -172 -77.5 -351t-105 -349.5t-106.5 -300.5q18 -102 37.5 -197t34.5 -177q15 102 48.5 216t93.5 210t152 157.5t228 61.5q143 0 251 -52.5t178 -135.5q72 -83 106 -188 q31 -94 31 -188q0 -11 -1 -22q-4 -105 -45 -200t-123 -159q-95 -77 -215 -115t-239 -54q-108 -14 -205 -14h-18q-104 2 -165 7q1 -17 1 -34q-1 -80 -13 -143q-14 -77 -44.5 -126.5t-75.5 -67.5q-21 -9 -46 -9q-27 0 -58 11q-33 10 -81.5 138t-100 329t-94.5 455 q-44 254 -64 516q-13 168 -14 330q0 92 4 182zM146 2007q-2 -46 -2 -94q0 -87 6 -181q9 -147 28 -307t45 -317q49 141 95 294.5t81.5 301t57.5 279.5t23 233v8q0 95 -22 152q-23 59 -77 59q-79 0 -127.5 -55.5t-75.5 -150t-32 -222.5zM351 422q15 -77 26.5 -137t16.5 -98 q38 -13 89.5 -22t110.5 -9t120.5 16.5t117.5 57.5q51 38 88 108t55 150q16 71 16 145q-1 10 -1 21q-2 86 -26 161.5t-74 129t-125 71.5q-23 6 -44 6q-36 0 -68 -16q-51 -26 -93.5 -77t-75.5 -119t-60 -138t-45 -137t-28 -113z" />
<glyph unicode="c" horiz-adv-x="1336" d="M-136 617q-9 48 -9 99q1 56 11 116q20 115 77 213.5t157 164t246 65.5q82 0 154.5 -25.5t130.5 -68t96 -96t54 -110.5q10 -41 14 -82q1 -14 2 -27q0 -26 -6 -50q-8 -36 -27 -62.5t-50 -41.5q-26 -18 -61 -18q-59 0 -107.5 39.5t-59.5 98.5q-2 14 -2 26q0 42 26 74 q34 41 92 41q51 0 99 -36q-8 26 -25.5 69.5t-53.5 85.5t-95 74t-148 32q-87 0 -127 -75.5t-40 -189.5t38.5 -247t110.5 -247t171.5 -189.5t225.5 -75.5q72 0 156 31q69 28 158.5 88t179.5 183q10 23 24 25.5t26 -7.5q10 -10 16 -26q3 -7 3 -13q0 -7 -3 -12q-5 -13 -70 -84.5 t-170 -153.5t-242 -147.5t-286 -65.5q-151 0 -270 61.5t-206 154t-139.5 202.5t-70.5 207z" />
<glyph unicode="d" horiz-adv-x="1817" d="M-95 549q0 111 34.5 225t111.5 219t170.5 160t190.5 78q3 0 23.5 4t30.5 -14q13 -20 -5 -38q-46 -26 -89.5 -68t-78 -96t-59 -113t-32.5 -118q-4 -39 -4 -75q0 -79 20 -145q28 -97 78 -165t111 -103.5t115 -35.5q97 0 146 64t69 153q-44 92 -80.5 211.5t-65.5 272.5 q-54 307 -55 591v10q0 278 59 492q60 218 187 348.5t332 130.5q108 0 148 -82q36 -73 37 -188q0 -15 -1 -29q-5 -134 -43.5 -306.5t-89.5 -355.5t-103.5 -360t-83.5 -320q28 -133 80.5 -243t96.5 -177q10 -20 21.5 -37t21.5 -32l10 -10v-3q59 -82 122 -133t132 -51 q51 0 90.5 21.5t67.5 50.5q31 31 57 71l59 100q3 10 13 16.5t23 6.5q35 0 40 -36q0 -3 -14 -36t-43.5 -83t-74 -107.5t-103.5 -106t-132 -82t-160 -33.5q-79 0 -153.5 46t-135.5 108q-51 44 -100 96t-97 127q-13 -33 -42.5 -96t-79.5 -126t-120.5 -109t-162.5 -46 q-113 0 -203.5 45t-153.5 122t-97.5 178t-34.5 212zM890 1732q6 -147 23.5 -306t43.5 -315q33 156 74.5 315t79.5 306t67 275q28 129 36 223q2 28 2 52q0 60 -13 98q-18 56 -71 55q-79 0 -129.5 -55.5t-77 -150t-34.5 -222.5q-4 -71 -4 -147q0 -62 3 -128z" />
<glyph unicode="e" horiz-adv-x="1336" d="M-133 617q-9 49 -9 101q0 55 10 114q19 115 77 213.5t157.5 164t245.5 65.5q118 0 196 -34.5t123 -88.5t63 -118t18 -123q-3 -64 -37.5 -139.5t-83 -149.5t-104 -143t-101.5 -121q67 -82 151.5 -133t186.5 -51q72 0 156 31q69 28 159 88t179 183q10 23 24.5 25.5t26 -7.5 t16.5 -26q2 -8 2.5 -14t-2.5 -11q-5 -13 -70.5 -84.5t-170.5 -153.5t-242 -147.5t-285 -65.5q-151 0 -270 61.5t-206 154t-139.5 202.5t-70.5 207zM220 929q0 -115 38.5 -249.5t110.5 -249.5q46 46 98.5 106t98.5 125.5t75.5 131t29.5 121.5q-3 79 -27 134t-64 88.5t-90 49 t-101 15.5q-87 0 -128 -78.5t-41 -193.5z" />
<glyph unicode="f" horiz-adv-x="1167" d="M-160 1352q-1 34 -1 67q0 206 21 391q25 215 85 376.5t160 256t251 94.5q97 0 144.5 -68t59.5 -179q4 -41 4 -87q0 -79 -12 -171q-20 -148 -58 -306.5t-87 -320t-97 -299.5q41 38 84 66q31 20 80 20q1 1 3 1q47 0 101 -13q57 -13 113.5 -34.5t105 -42t83 -37t44.5 -16.5 q15 0 23 6t15.5 12.5t14 8t19.5 -8.5t16 -24v-6q0 -14 -8 -34q-11 -26 -35 -68.5t-65 -106.5q-28 -44 -73 -46h-9q-41 0 -91 17q-55 19 -115 51t-116.5 61.5t-103.5 47.5q-28 10 -49 10q-15 0 -27 -5q-26 -13 -41 -28t-26 -31q36 -236 77 -457t77 -404t60 -310t27 -168 q5 -57 5 -109.5t-5 -99.5q-10 -93 -39.5 -153t-78.5 -85q-25 -12 -54 -12t-61 11q-26 8 -66.5 109t-87 269t-92.5 386.5t-84.5 464.5t-62.5 503t-28 501zM166 2035q-5 -75 -5 -159q0 -120 9 -258q17 -236 53 -489q49 141 93.5 292t79 295.5t55 275t21.5 228.5q1 7 1 12 q0 91 -22 145q-23 58 -77 58q-100 0 -148.5 -109t-59.5 -291z" />
<glyph unicode="g" horiz-adv-x="1433" d="M-86 681q27 166 135 312q82 113 183 169.5t203 76.5q70 13 136 13q24 0 47 -2q89 -6 154 -24t99.5 -42t24.5 -42q-13 -20 -28.5 -18t-44.5 13.5t-76.5 24.5t-124.5 13q-72 0 -139.5 -32t-122.5 -87t-93.5 -129.5t-48.5 -155.5q-4 -40 -4 -77q0 -76 18 -140 q27 -93 75.5 -158.5t106 -98.5t103.5 -33q87 0 134.5 51t70.5 126.5t30.5 164t14 164t18 125.5t44.5 50q23 0 51.5 -32t56.5 -83.5t57.5 -118t55.5 -135.5q61 -161 120 -366q118 -297 138 -511q6 -62 6 -118q0 -137 -35 -237q-50 -140 -156.5 -214.5t-239.5 -95.5 q-57 -8 -117 -8q-79 0 -163 15q-147 27 -278 91q-159 77 -217 180q-49 84 -49 176q0 20 3 40q12 114 82.5 234t170.5 235q-146 23 -247 125.5t-141 247.5q-24 87 -24 181q0 63 11 130zM186 -407q-5 -27 -5 -53q0 -51 19 -96q28 -66 103.5 -107t205.5 -41q133 0 216.5 45 t127 121.5t53.5 181.5q4 47 4 97q0 63 -6 131q-13 123 -40 256t-58 269q-26 -79 -66 -151q-36 -61 -88.5 -123t-124.5 -97l-5 -6q-90 -44 -161.5 -115t-116 -150.5t-58.5 -161.5z" />
<glyph unicode="h" horiz-adv-x="1774" d="M-172 1559q10 251 70.5 447t175.5 315t302 119q108 0 156 -84q46 -84 50 -218q0 -14 1 -28q-1 -124 -27 -278q-30 -172 -78 -352t-104.5 -350t-104.5 -301q20 -108 39.5 -207t37.5 -189q31 136 76.5 286.5t97 277.5t105 210t102.5 83q56 0 110 -80.5t107.5 -199.5 t108.5 -260t113 -260t120.5 -199.5t131.5 -80.5q51 0 91 21.5t68 50.5q31 31 54 71q18 26 30 49q13 20 21 35.5t10 15.5q0 10 11.5 16.5t24.5 6.5t25.5 -10t15.5 -26q0 -3 -14 -36t-43.5 -83t-74.5 -107.5t-103.5 -106t-131.5 -82t-160 -33.5q-95 0 -175.5 58t-147.5 145 t-119 189t-92 189t-67 146t-42 62h-6q-32 1 -57 -47q-27 -52 -47.5 -135.5t-34.5 -183.5t-21.5 -188.5t-11.5 -152.5t-4 -77q1 -20 1 -39q0 -82 -11 -146q-13 -80 -42.5 -133t-75.5 -72q-22 -9 -48 -9q-27 0 -59 10q-33 10 -83 138.5t-101.5 329t-95.5 454.5t-64 516 q-13 171 -13 336q-1 89 3 177zM162 1907q-3 -54 -2 -111q0 -79 5 -164q9 -147 28 -306t45 -315q49 141 95 293.5t82 299.5t57.5 280t23.5 233v12q0 92 -22 147q-23 59 -77 59q-79 0 -128 -55t-75 -150t-32 -223z" />
<glyph unicode="i" horiz-adv-x="1221" d="M-110 376q-4 6 -4 14t4 17q79 141 126.5 296t91 285.5t100 216t153.5 85.5q41 0 71.5 -46t52.5 -123t40 -173t36 -198t38.5 -198t48.5 -173t65 -123t88 -46t101 21.5t89 50.5q46 31 87 71l59 100q3 10 12.5 16.5t22.5 6.5q36 0 41 -36q0 -3 -16.5 -36t-49.5 -83 t-82 -107.5t-110.5 -106t-137 -82t-162.5 -33.5q-125 0 -207 65.5t-132 161.5t-77 210t-41 210t-23 161t-24 65q-20 -64 -49.5 -146t-58 -154.5t-50 -126.5t-24.5 -62q-10 -18 -26.5 -21.5t-30.5 3t-22 18.5zM23 1702q-3 20 -3 38q0 62 39 110q51 62 141 62t161.5 -61.5 t86.5 -148.5q3 -21 3 -40q1 -64 -37 -111q-50 -61 -140 -61t-163 61.5t-88 150.5z" />
<glyph unicode="j" horiz-adv-x="1218" d="M-118 394q64 59 118 148.5t104 189.5t97 200t98.5 179t109 129t129.5 50q84 0 129 -70.5t79.5 -224t73 -397.5t107.5 -595q50 -252 50 -432q0 -71 -8 -131q-27 -211 -124 -307q-91 -90 -232 -90q-9 0 -19 1q-154 6 -335 96q-192 92 -280.5 218.5t-92.5 265.5v15 q0 132 70 267q75 143 205 268q33 33 77 56t88.5 41t88 33.5t74.5 30.5q-31 189 -59 341q-13 64 -25.5 125.5t-24 110t-20.5 78t-17 29.5q-13 -44 -40 -102.5t-62.5 -124t-76.5 -134.5t-82 -129.5t-78 -109t-65 -73.5q-20 -18 -42 -23.5t-33 2.5q-11 7 -11 23q0 20 29 46z M41 -260q-1 -14 -1 -27q0 -86 28 -161q32 -87 97.5 -151t157.5 -87q27 -7 51 -7q66 0 110 54q59 73 80 210q11 78 11 171q0 70 -7 148q-15 182 -59 374h-2q-156 -56 -257.5 -142t-152.5 -183.5t-56 -198.5zM49 1702q-3 20 -3 38q0 63 39 110q51 62 140 62q87 0 159 -61.5 t87 -148.5q3 -21 3 -40q0 -64 -38 -111q-49 -61 -136 -61q-90 0 -163 61.5t-88 150.5z" />
<glyph unicode="k" horiz-adv-x="1564" d="M-201 1542q4 201 34.5 379t96 311t168 211.5t253.5 78.5q108 0 155 -84t51 -218v-32q1 -122 -25 -274q-30 -172 -79 -352t-105 -350t-105 -301l10 -59q28 69 69.5 143.5t97.5 140t129 114t163 63.5q51 10 97 9q85 0 149 -34q98 -52 145 -145q40 -80 39 -178v-33 q-8 -118 -69 -220q-49 -79 -126 -132t-169 -79.5t-190 -30.5q-18 -1 -36 -1q-79 0 -150 15q31 -51 97.5 -138t171.5 -182t249 -182q145 -88 333 -136q170 -44 377 -44q21 0 43 1q232 5 513 92q31 26 49 29q17 4 25 -5q6 -7 6 -18v-9q-2 -18 -13 -35q-13 -20 -61.5 -79.5 t-128 -129.5t-188.5 -133t-241 -90q-67 -14 -139 -14q-69 0 -143 13q-151 26 -316.5 133.5t-340.5 314.5t-357 545q20 -100 33 -172.5t16 -106.5q5 -56 5 -107q0 -53 -6 -101q-10 -94 -40 -153t-78 -83q-25 -12 -53 -12t-59 11q-26 8 -64 93.5t-79 223.5t-81 320t-70.5 384 t-48.5 414q-15 174 -15 341q0 36 1 73zM134 1992q-3 -54 -2 -111q0 -79 5 -165q9 -148 28 -307.5t45 -315.5q49 141 95 294.5t81.5 301t57.5 279t23 232.5v9q1 95 -21 151q-22 59 -77 59q-79 0 -128 -55t-75 -149.5t-32 -222.5zM294 630l16 -69l20 -3q20 -4 44 -5 q30 -1 64 7q62 12 119 44.5t102 83t60 111.5q11 46 11 95q0 16 -1 32q-5 66 -33 112q-28 48 -76 62q-13 4 -27 3q-40 0 -91 -30q-54 -31 -90 -88.5t-60 -121.5t-37 -127t-21 -106z" />
<glyph unicode="l" horiz-adv-x="980" d="M-310 1252q-11 135 -11 260q0 205 29 382q20 120 58.5 235.5t101.5 206.5t157.5 146t225.5 55t191 -89.5t66 -235.5q1 -23 1 -47q0 -129 -29 -285q-35 -186 -91 -380q-133 -458 -389 -1037l-79 21q225 543 350 970q54 182 91 358q36 176 42 312q1 17 1 34q-1 114 -33 186 q-38 84 -131 83q-95 0 -149 -95t-74 -251q-13 -100 -14 -218q0 -65 4 -137q12 -200 48 -407.5t92.5 -407t128 -356t153.5 -251t169 -94.5q8 -1 15 -1q39 0 80 21q44 20 96 73t109 160q5 13 17.5 14.5t25.5 -5.5q12 -6 20 -19q6 -10 6 -20v-5q-5 -13 -41 -83.5t-104 -148.5 t-167.5 -141t-233.5 -63q-105 0 -194.5 59t-162.5 159t-133 229t-106 270t-81 282t-55 261z" />
<glyph unicode="m" horiz-adv-x="2803" d="M-253 1037q3 49 18 95t48 81.5t87 57.5t136 22q108 0 151 -61.5t43 -156.5t-32 -210t-74 -220t-80.5 -188t-51.5 -114q-15 5 -21.5 14t-10.5 19.5t-7.5 22t-16.5 21.5q28 36 66.5 110t74.5 165t61.5 187t27.5 174q0 6 1 13q0 69 -26 115q-28 50 -100 50t-72 -66.5 t42.5 -165t114 -214t147 -214t141 -165t95.5 -66.5q31 0 51.5 70.5t37 175.5t33.5 228t40 227.5t55 175t80 70.5h3q5 0 10 -1t10 -1q54 -13 108 -79.5t105 -160t102.5 -201t97.5 -207.5q64 -123 119 -208.5t98 -88.5h5q23 5 42.5 52.5t32.5 103.5q15 64 25 144l10 89 q10 97 23 197t32.5 180.5t50 130.5t76.5 50q56 0 110 -80.5t108 -199.5t109 -260t112.5 -260t120 -199.5t131.5 -80.5q51 0 91 21.5t68 50.5q31 31 54 71l59 100q3 10 14 16.5t24 6.5q33 0 39 -36q0 -3 -14.5 -36t-44 -83t-73 -107.5t-102 -106t-131.5 -82t-160 -33.5 q-95 0 -172 56.5t-137 139.5t-106 181.5t-79.5 182t-56.5 140t-38 56.5t-26.5 -56.5t-26 -140t-35 -182t-52.5 -181.5t-79 -139.5t-116 -56.5h-23h-3h-18q-87 0 -160 58t-130.5 145t-103.5 189t-80.5 189t-60.5 145t-41 58q-18 0 -25.5 -58t-16.5 -145t-25.5 -189t-50 -189 t-90 -145t-145.5 -58q-72 0 -134.5 33.5t-119 90t-102.5 126.5t-85 145q-89 173 -153 396q-35 113 -35 208q0 23 2 46z" />
<glyph unicode="n" horiz-adv-x="1843" d="M-261 1037q3 49 18 95t48.5 81.5t87 57.5t135.5 22q97 0 140 -50q44 -51 52 -131q2 -21 2 -44q0 -62 -16 -134q-22 -98 -58 -199q49 -77 103 -147.5t102.5 -124t88 -87t60.5 -33.5q23 0 41 70.5t35.5 175.5t37 228t44 227.5t59 175t80.5 70.5q56 0 110 -80.5 t107.5 -199.5t108.5 -260t112.5 -260t120.5 -199.5t132 -80.5q51 0 90.5 21.5t68.5 50.5q31 31 53 71l62 100q3 10 13 16.5t23 6.5q36 0 41 -36q0 -3 -14.5 -36t-43.5 -83t-74 -107.5t-104 -106t-132 -82t-160 -33.5q-95 0 -171.5 56.5t-136.5 139.5t-105 181.5t-79.5 182 t-56.5 140t-37 56.5q-23 0 -38.5 -56.5t-32 -140t-37 -182t-54 -181.5t-82 -139.5t-119.5 -56.5q-72 0 -135 33.5t-118 90t-101 126.5t-84 145q-87 174 -154 396q-35 113 -35 208q0 23 2 46zM-14 1103q12 -59 45 -134.5t82 -156.5q25 80 43 156q17 72 17 129v6q-1 59 -27 95 t-87 36q-51 0 -68 -36q-10 -21 -10 -51q0 -20 5 -44z" />
<glyph unicode="o" horiz-adv-x="1359" d="M-141 617q-11 62 -11 120q0 65 14 125q26 114 91 198t163.5 134t221.5 50t239.5 -50t212.5 -134.5t162.5 -198t89.5 -244.5q11 -60 11 -117q0 -66 -15 -128q-27 -114 -92 -198t-165 -134t-223 -50t-238 50t-210 134.5t-161.5 198t-89.5 244.5zM212 780q10 -94 52 -191 q41 -97 102.5 -178t134 -133.5t149.5 -75.5q43 -13 84 -13q32 0 62 8q69 18 114 70.5t64 128.5q13 51 13 110q0 28 -3 58q-9 94 -50 191t-103.5 176.5t-134.5 133.5q-70 53 -146 75q-41 12 -81 12q-33 0 -65 -8q-69 -18 -116 -70q-46 -53 -66 -127q-13 -48 -13 -104 q-1 -30 3 -63z" />
<glyph unicode="p" horiz-adv-x="1367" d="M-148 1142q-6 7 -6 14q0 13 16 28q25 24 83 42t143 24q23 2 47 2q66 0 139 -13q110 -20 231.5 -76.5t244.5 -169.5q113 -105 189.5 -219t116.5 -225t41 -212v-5q0 -98 -36 -173q-37 -77 -112.5 -122t-188.5 -45q-110 0 -209.5 63t-176.5 140q-90 87 -172 202 q26 -202 72 -375t88 -310t66 -233q14 -53 14 -91q0 -30 -9 -51q-13 -36 -45 -102.5t-70.5 -125.5t-79.5 -92q-21 -17 -40 -17q-17 0 -32 14q-18 18 -43.5 90t-53.5 178t-56 233t-51 255t-38.5 243t-18.5 197q-3 123 -9 254q-4 78 -4 148q0 46 2 90q4 107 24.5 175t68.5 68 q33 0 62.5 -50t61.5 -125.5t70.5 -164t88.5 -164t114 -126.5t151 -51q46 0 93.5 33t73.5 99q20 52 20 122q0 18 -2 36q-6 94 -65 217q-38 82 -100.5 156t-137 129t-154 87t-150.5 32q-77 0 -119.5 -13t-66.5 -24.5t-39.5 -14t-35.5 18.5z" />
<glyph unicode="q" horiz-adv-x="1635" d="M-131 549q0 111 35 225t111 219q82 113 183.5 169.5t205.5 76.5q70 13 136 13q24 0 48 -2q88 -6 153 -24t100 -42t24 -42q-13 -20 -28 -18t-44.5 13.5t-77 24.5t-124.5 13q-72 0 -139.5 -32t-124 -87t-93.5 -129.5t-47 -155.5q-5 -43 -5 -82q0 -74 18 -135 q28 -93 75.5 -158.5t106 -98.5t104.5 -33q87 0 133.5 51t69.5 126.5t30.5 164t14 164t18 125.5t44.5 50q49 0 93.5 -68t85.5 -175.5t82 -238t82 -253.5q3 -10 5.5 -18t7.5 -18q123 54 231.5 133.5t160.5 196.5q3 10 14 16.5t22.5 4t19.5 -14.5q4 -7 4 -16.5t-4 -22.5 q-5 -20 -37 -84t-84.5 -143.5t-121.5 -164t-151 -146.5q28 -138 49.5 -291.5t36 -286.5t15.5 -227v-13q0 -82 -12 -101q-10 -15 -27 -15q-18 0 -44 17q-52 34 -112 93t-115 125.5t-81 102.5q-44 54 -51 168t-15 277q-54 -15 -102 -22q-15 -2 -29 -2q-27 0 -46 9 q-33 15 -37 53q-1 9 -1 19q0 29 9 60q11 42 30.5 80.5t32.5 51.5q8 5 39.5 15t82.5 23q-8 77 -21.5 159t-34.5 169q-41 -115 -100 -202q-51 -77 -129 -140t-186 -63q-113 0 -203.5 45t-153 122t-97.5 178t-35 212z" />
<glyph unicode="r" horiz-adv-x="1758" d="M-114 382q-1 4 -1 8q0 15 10 35q79 154 122.5 267.5t65.5 194.5t27 128t5 68q-41 13 -76.5 23t-48.5 23q-79 41 -95 128q-3 16 -3 31q0 42 26 74q36 44 95 43q56 0 102 -35.5t64 -86.5q3 -13 8 -23q5 -13 7.5 -26t2.5 -28q56 -15 148.5 -21.5t184.5 -13t169 -19.5 t105 -44q31 -33 63 -113.5t67.5 -180.5t78 -206t91 -194.5t106 -146t126.5 -57.5q51 0 101 21.5t89 50.5q46 31 87 71l59 100q3 10 14.5 16.5t21.5 6.5q36 0 40 -36q0 -3 -16.5 -36t-49.5 -83t-82 -107.5t-110.5 -106t-137 -82t-162.5 -33.5q-136 0 -235.5 65.5t-171 166.5 t-120.5 222.5t-83.5 231.5t-60 194.5t-51.5 113.5q-20 20 -52 31.5t-69 18t-73 11.5t-62 13q-18 0 -33 8q-3 -61 -23 -155t-52 -192.5t-70.5 -190.5t-74.5 -154q-13 -18 -28 -23t-28 3t-17 26z" />
<glyph unicode="s" horiz-adv-x="1036" d="M-290 1104q6 54 44.5 96t114 67.5t200.5 25.5q102 0 149 -36q48 -35 56 -97q2 -16 2 -35q0 -49 -16 -111q-22 -84 -55 -185q54 -46 109 -95.5t106 -98.5t93 -91l73 -73q20 -20 52.5 -61t62 -95t51 -118t21.5 -132t-25.5 -137t-92.5 -133q-101 -95 -205 -110 q-33 -5 -65 -5q-69 0 -134 22q-95 32 -174.5 96t-127.5 125q-20 28 -18 41t15 15.5t31 -5t26 -23.5q54 -82 107 -111q54 -28 98 -30q4 0 7 -1q39 1 65 15q30 16 37 25q8 10 28.5 32t34.5 63q11 33 11 79q-1 13 -1 25q-4 62 -47 152q-49 97 -130.5 181.5t-166.5 161.5 l-56 -121q-13 -28 -49 -10q-13 10 -18 24.5t0 26.5l64 136q-51 46 -97 92t-77 92q-28 44 -56 99q-28 56 -41 112q-9 38 -9 74q1 18 3 36zM-10 1122q8 -50 43.5 -110t102.5 -121q32 74 48 137q13 51 13 90q0 10 -1 19q-4 46 -32.5 71.5t-89.5 25.5q-52 0 -72 -31 q-15 -23 -15 -55q1 -13 3 -26z" />
<glyph unicode="t" horiz-adv-x="908" d="M-570 1084q14 37 60.5 79.5t115.5 84.5t141 76q-28 161 -54 326t-44 302q-17 137 -25 233q-3 35 -3 61q0 45 8 61q20 44 57.5 109t79.5 121t80 87q22 18 40 18q13 0 22 -10q15 -18 34.5 -139.5t42.5 -305t49.5 -408.5t62.5 -450q77 -15 154 -34.5t139.5 -39t106 -33.5 t59.5 -14q20 0 34 6.5t25.5 13t23 7.5t29.5 -9q15 -10 18 -24t-14 -39.5t-56.5 -68t-108.5 -106.5q-51 -49 -130 -49q-8 1 -17 1q-91 6 -199 38q38 -192 82 -335q61 -195 146 -314t172 -119q44 0 91 36t85 79q46 49 90 115q8 13 18 23q23 18 48 3q23 -15 23 -28q0 -4 -2 -8 q-10 -16 -15 -26q-3 -5 -18.5 -37t-45 -76.5t-73 -97t-98.5 -97.5t-125.5 -74.5t-151.5 -29.5q-84 0 -152.5 37.5t-123.5 95t-97 130.5t-71.5 144.5t-47.5 137t-26 106.5q-5 41 -30.5 170t-53.5 298q-44 13 -82 17q-13 1 -24 1q-23 0 -43 -5q-49 -13 -75.5 -34.5t-43 -39.5 t-29.5 -27t-33 4q-28 15 -28 39q-1 8 3 18z" />
<glyph unicode="u" horiz-adv-x="1766" d="M-223 993q-2 21 -2 41q0 66 21 120q28 70 66 106q36 33 70 33q2 -1 5 -1q37 -2 45 -48q15 -82 42 -181.5t63 -201t78 -196t87 -167.5t91 -118t90 -45q61 0 100.5 41t64 109t36 153.5t16.5 175.5t7.5 175.5t8 152t18 107.5t38.5 41q56 0 110 -80.5t106.5 -199.5 t107.5 -260t112.5 -260t120 -199.5t132.5 -80.5q51 0 92 21.5t69 50.5q31 31 54 71l58 100q3 10 14.5 16.5t24.5 6.5q33 0 38 -36q0 -3 -14 -36t-43.5 -83t-74 -107.5t-102.5 -106t-130.5 -82t-160.5 -33.5q-95 0 -166.5 46t-125 115.5t-92 148.5t-65.5 148.5t-45 115.5 t-33 46q-8 -174 -41 -310q-15 -59 -37 -114t-52.5 -98.5t-73 -70.5t-95.5 -27q-90 0 -169.5 46t-146 124.5t-121.5 180.5t-96 213.5t-66.5 224t-33.5 212.5z" />
<glyph unicode="v" horiz-adv-x="1208" d="M-238 1037q3 49 18 95t48.5 81.5t87 57.5t135.5 22q97 0 142 -50q45 -51 53 -131q2 -20 1 -40q0 -64 -17 -138q-23 -98 -56 -199q49 -77 102.5 -147.5t101 -124t87 -87t60.5 -33.5q20 0 40.5 48.5t43.5 126.5t45 177t43.5 196t41 184t37.5 144q5 18 17.5 24t27 3.5 t24.5 -14.5q8 -9 8 -22q0 -4 -1 -9q-10 -61 -24 -141t-27 -149q-15 -82 -36 -163q-44 -212 -99 -379q-23 -72 -54 -140t-65.5 -120.5t-74 -84.5t-83.5 -32q-72 0 -136 33.5t-119 90t-101 126.5t-84 145q-87 174 -154 396q-35 113 -35 208q0 23 2 46zM-8 1100 q12 -60 49.5 -137t86.5 -159q26 79 41 157q12 63 12 115q-1 12 -1 24q-4 60 -32 97t-89 37q-51 0 -65 -37q-7 -20 -7 -46q-1 -22 5 -51z" />
<glyph unicode="w" horiz-adv-x="1948" d="M-248 1037q3 49 18 95t48.5 81.5t87 57.5t135.5 22q97 0 141 -50q43 -51 51 -131q2 -21 2 -42q0 -62 -17 -136q-23 -98 -57 -199q49 -77 102.5 -147.5t102.5 -124t88.5 -87t60.5 -33.5q26 0 53.5 82t58.5 205q-31 95 -48.5 188t-25.5 175q-2 21 -2 41q0 66 21 120 q28 70 66 106q36 33 70 33q2 -1 5 -1q37 -2 45 -48q15 -82 43 -181.5t64 -201t78.5 -196t87 -167.5t90.5 -118t90 -45q61 0 101 58t63 136t33 156t13 119q3 38 5 97t3.5 120.5t1.5 114v80.5t11.5 41t27 13t28 -14t15.5 -40q2 -13 1 -42q0 -30 -1 -74q-3 -90 -6.5 -201 t-10 -219.5t-14.5 -172.5q-8 -67 -25.5 -155t-51 -167.5t-86 -136t-131.5 -56.5q-82 0 -153.5 38.5t-135.5 105t-118 153.5t-95 187q-23 -82 -55 -167.5t-71.5 -156t-85.5 -115.5t-98 -45q-72 0 -134.5 33.5t-117.5 90t-101 126.5t-84 145q-87 174 -154 396q-35 113 -35 208 q0 23 2 46zM-19 1100q14 -60 51 -137t86 -159q26 79 40 157q11 61 11 111q0 14 -1 28q-4 60 -32.5 97t-89.5 37q-51 0 -65 -37q-7 -18 -7 -42.5t7 -54.5z" />
<glyph unicode="x" horiz-adv-x="1413" d="M-241 1037q3 49 18.5 95t48.5 81.5t87 57.5t136 22q97 0 142 -50q45 -51 53 -131q2 -20 2 -40q0 -64 -18 -138q-23 -98 -56 -199q44 -67 106 -142.5t142 -147.5q133 284 281 727q13 38 30 50t31 4.5t19 -31t-5 -53.5q-5 -15 -25.5 -85.5t-55.5 -175.5t-83.5 -235.5 t-109.5 -269.5q90 -74 191 -120t200 -46q110 0 183 21.5t117 50.5q51 31 79 71l59 100q3 10 13 16.5t23 6.5q36 0 41 -36q0 -3 -13 -36t-45 -83t-83 -107.5t-126.5 -106t-176.5 -82t-232 -33.5q-115 0 -209.5 22t-176.5 63q-97 -169 -215 -308.5t-256 -221.5q-18 -8 -32 -8 q-7 1 -15 3q-20 8 -29 23t-5 33t27 31q13 8 50 27t94.5 71.5t132 146t163.5 251.5q-136 84 -224 197t-142 216q-64 120 -100 245q-38 116 -38 213q0 21 2 41zM-9 1100q14 -60 50 -137t84 -159q25 79 41 157q12 62 13 113q0 14 -1 26q-4 60 -32.5 97t-89.5 37q-51 0 -65 -37 q-7 -18 -7 -42.5t7 -54.5z" />
<glyph unicode="y" horiz-adv-x="1461" d="M-138 810q10 168 79 342q26 64 58 88q21 17 39 17q10 0 20 -5q26 -13 39 -62q7 -27 7 -65q0 -29 -4 -65q-9 -63 -9 -117q0 -85 21 -152q36 -110 97.5 -178t133.5 -98.5t118 -30.5q84 0 131.5 55t69.5 138t27 180.5t8.5 180.5t15 138t45.5 55q23 0 52.5 -34.5t59 -90.5 t58.5 -129t58 -148q64 -176 128 -399q118 -297 137 -510q5 -59 5 -113q0 -140 -36 -242q-50 -141 -156.5 -215t-239.5 -94q-58 -9 -118 -9q-79 0 -161 15q-146 26 -276 90q-128 61 -191 139.5t-74 165.5q-4 24 -4 48q0 64 23 133q31 93 91 187.5t140.5 187t170.5 176.5 q46 46 75.5 68t43.5 28.5t16.5 0t-2.5 -22.5q-10 -33 -59 -105l121 95q8 3 -15.5 -30.5t-54.5 -74.5q-36 -46 -87 -107q-87 -46 -158.5 -116.5t-117.5 -151.5t-59 -163q-4 -25 -4 -49q0 -53 20 -97q28 -66 102 -107t205 -41q136 0 219 43.5t125 121.5t53 183q4 47 4 97 q0 63 -7 131q-13 123 -40 256t-57 269q-41 -115 -100 -205q-51 -77 -129.5 -139.5t-185.5 -62.5q-169 0 -276.5 82t-156.5 216q-40 112 -40 246q0 28 2 56z" />
<glyph unicode="z" horiz-adv-x="801" d="M-209 1248q-2 9 -2 19q0 29 19 69q49 100 91 141t73 46q6 1 11 1q23 0 37 -18q18 -22 16 -49q0 -15 -10 -57q-8 -34 -9 -66q1 -8 1 -16q2 -41 28 -69q20 -22 68 -22q14 0 29 2q72 8 145 16.5t137 11.5q20 1 39 1q40 0 72 -4q48 -6 68 -28q5 -5 5 -13q-1 -19 -31 -55 q-44 -50 -107.5 -114t-127.5 -129t-84 -111q-21 -48 -35 -92q-9 -27 -8 -55q0 -17 3 -35q9 -46 46 -101t122 -124q67 -67 165 -147.5t216 -213.5q59 -67 102.5 -152.5t56.5 -176.5q4 -30 4 -59q0 -61 -18 -123q-27 -91 -109 -162q-84 -83 -175 -117q-73 -28 -142 -27 q-17 -1 -33 1q-84 8 -158.5 58.5t-123.5 142.5q-41 80 -41 154q0 10 1 19q6 83 46 164t105 163t137 166.5t141 175t120 190.5q8 15 23 19t29.5 0t20.5 -18t-4 -37q-13 -23 -51.5 -83t-81.5 -124q-49 -74 -110 -161q-113 -110 -190 -215q-33 -46 -60 -95t-41 -96 q-12 -40 -12 -79v-14q2 -46 32 -85q41 -56 83 -74q40 -17 75 -17h4q37 1 65.5 16.5t35.5 23.5q8 10 29.5 33t35.5 64q11 30 11 71q1 16 -1 32q-6 62 -49 153q-44 90 -117 168t-149.5 148.5t-148.5 135.5t-115 132q-28 38 -52.5 92t-40 111.5t-15.5 112.5t23 98q8 26 41.5 86 t75.5 124t88 115.5t77 58.5q-32 -3 -80 -5q-22 -1 -43 -1q-28 -1 -56 1q-51 2 -100 14t-81 33.5t-41 56.5z" />
<glyph unicode="{" horiz-adv-x="1305" d="M-10349 -1808.5q-1 52.5 17 124t64 158.5t138 176.5t242 174t374 154t533.5 115.5t723 57.5t939.5 -18t1184 -111.5q975 -123 1781.5 -187t1463.5 -78t1174 14t915 87t690 142.5t497 180.5q722 340 660 896q-15 84 -73 180t-145 178t-195.5 138.5t-224 66.5t-229 -40 t-213.5 -180q-36 -46 -52.5 -47.5t-22 15t-4.5 28.5l2 35q51 72 118 128q59 49 142 89.5t198 40.5q113 0 253.5 -25.5t274 -105t241 -228t150.5 -396.5q18 -100 20.5 -228t-34.5 -269t-128 -286.5t-263.5 -281.5t-437.5 -252.5t-650.5 -198.5t-905 -120t-1199.5 -16.5 t-1532.5 108.5t-1904.5 259q-819 133 -1471.5 194.5t-1154.5 61.5t-859 -56.5t-585 -159t-331.5 -247t-98.5 -321.5q5 -77 -6.5 -107.5t-28 -26.5t-31 36t-14.5 78q0 18 -1 70.5z" />
<glyph unicode="|" d="M325.5 1674.5q-2.5 79.5 6 93.5t24 -29.5t31.5 -135.5q33 -197 65 -376.5t62.5 -357.5t61.5 -359.5t64 -384.5q20 -120 33 -213.5t20.5 -162.5t10.5 -119t3 -83q-3 -79 -18 -97q-44 289 -92.5 578t-96 550.5t-87 483t-62.5 377.5t-25.5 235.5z" />
<glyph unicode="}" horiz-adv-x="1305" d="M-4215 -1787q-1 74 23 176.5t87 218t191 221.5t336.5 189t522 119t747.5 11.5t1015 -131.5q525 -97 902.5 -105t638.5 48.5t418.5 160t242.5 226.5q197 289 102 725q-15 84 -74 180t-146 178t-194.5 138.5t-222.5 66.5t-230.5 -40t-215.5 -180q-36 -46 -51 -47.5t-20 15 t-5 27.5l2 35q49 72 115 128q59 49 142.5 90t198.5 41q113 0 253.5 -25.5t275 -105t240.5 -228t150 -396.5q28 -166 10 -349.5t-101 -353.5t-240.5 -314.5t-408.5 -230.5t-601.5 -101.5t-821.5 74.5q-707 133 -1298.5 163.5t-1017.5 -37t-659 -234t-225 -430.5 q5 -77 -6.5 -107.5t-27 -26.5t-31 36t-15.5 78q0 23 -1 97z" />
<glyph unicode="~" horiz-adv-x="1707" d="M-75.5 1592q6.5 23 52.5 64q102 87 200.5 111.5t188.5 13t169 -46t144.5 -65.5t114 -45t74.5 17q13 15 39.5 21.5t44.5 1.5t18 -23t-41 -51q-72 -74 -138.5 -94.5t-131.5 -12t-128 36.5t-127 54q-128 49 -227.5 62t-150.5 -39q-23 -26 -51.5 -34.5t-42.5 -1t-7.5 30.5z " />
<glyph unicode="&#xa1;" horiz-adv-x="678" d="M36 1201q15 -74 79 -127t139 -50q74 3 116 58t27 129t-79 125.5t-139 48.5q-74 -3 -116 -56.5t-27 -127.5zM236 -547q5 114 15 248.5t24 278t24.5 278t12 247t-11.5 186.5q36 -23 69 -84q31 -51 65.5 -151t67.5 -269t58.5 -345.5t41 -331.5t15.5 -273t-20 -169 q-18 -49 -70.5 -65.5t-111.5 5.5t-109 84.5t-65 172.5q-10 74 -5 188z" />
<glyph unicode="&#xa2;" horiz-adv-x="1336" d="M-136 617q-15 95 0.5 203.5t66.5 204.5t140.5 165.5t220.5 81.5q-5 5 -5 11.5t-3 14.5q-5 28 10.5 48.5t43.5 20.5t52.5 -20.5t29.5 -48.5q5 -18 -3 -28q69 -13 129.5 -41t107.5 -69t80.5 -88.5t46.5 -96.5q10 -41 14 -82t-4 -76.5t-27 -62.5t-50 -42q-26 -18 -61 -18 q-59 0 -107.5 39.5t-59.5 98.5q-10 59 23.5 100t92.5 41q51 0 99 -36q-5 23 -20 61.5t-46 78t-79.5 73t-120.5 43.5l3 -5q5 -26 -10.5 -42.5t-40.5 -16.5q-26 0 -45 15.5t-25 38.5q-49 -23 -75.5 -82t-30.5 -138.5t13 -171.5t52.5 -184t88 -175.5t121.5 -144.5q13 33 57 33 q33 0 61 -23t33 -56q3 -23 -5 -44q56 -23 126 -23q72 0 156 31q69 28 158.5 88t179.5 183q10 23 24 25.5t25.5 -7.5t17 -25.5t-0.5 -25.5q-5 -13 -57.5 -72t-139.5 -132t-202 -140.5t-246 -93.5q8 -8 13 -25q5 -28 -11.5 -47.5t-44.5 -19.5t-48.5 19t-25.5 48l-3 12h-3 q-151 0 -270 61.5t-206 154t-139.5 202.5t-70.5 207z" />
<glyph unicode="&#xa3;" horiz-adv-x="1128" d="M-992 -141q14 64 73 110q26 20 122 41t239 39t327.5 33t386.5 28q-148 538 -200.5 914t-37.5 623t83 383t163 197q220 141 599 -36q82 -46 109 -84.5t15.5 -60t-52.5 -21.5t-90 33q-110 69 -217.5 100t-197 -10t-150 -166.5t-72 -365t32 -606.5t164.5 -892 q230 13 464.5 20.5t444 11.5t381 0t276.5 -14q207 -20 359.5 -76.5t255.5 -115.5q120 -69 202 -151q-220 31 -503 32t-590 -15.5t-619.5 -47.5t-594.5 -62q46 -253 81 -418t47 -198q20 -64 13 -110.5t-34 -49t-65.5 51.5t-79.5 189q-15 56 -43.5 191t-66.5 327 q-156 -18 -295.5 -35t-253.5 -29.5t-200 -20.5t-132 -8q-136 0 -216.5 42.5t-111 102.5t-16.5 124zM-228 1347q133 -13 263.5 -12t248.5 6.5t217.5 9.5t171.5 -4q72 -5 120.5 -55t69 -108t11.5 -105t-50 -47h-171.5t-162 1t-164 1h-175.5q-110 0 -181.5 49t-115.5 107 q-51 67 -82 157z" />
<glyph unicode="&#xa4;" horiz-adv-x="1707" d="M54 1439q-13 74 30.5 126.5t117.5 52.5q51 0 97.5 -25.5t76.5 -69.5q105 56 233 57q108 0 206.5 -36t188.5 -103l-3 18q-10 59 23 100t92 41t107.5 -41t59.5 -100q10 -59 -23.5 -100t-92.5 -41q-23 0 -33 3q67 -77 113 -170.5t66 -198.5q31 -184 -33 -335 q44 -5 79.5 -38.5t43.5 -76.5q8 -49 -20.5 -82t-76.5 -33q-41 0 -74.5 21.5t-51.5 57.5q-67 -67 -155 -104t-196 -37q-148 0 -286 72q-33 -67 -118 -67q-67 0 -118 43.5t-64 110.5q-5 38 4 71.5t37 53.5q-120 154 -156 343q-18 92 -7.5 176.5t40.5 159.5q-41 26 -69 64 t-38 87zM484 1114.5q10 -93.5 51 -190.5t102.5 -177.5t134.5 -133t150 -76t146 -5.5t113.5 70.5t64 128t10.5 169t-50 191.5q-41 97 -104 176.5t-134.5 133t-147 75.5t-144.5 4t-116.5 -70.5t-66.5 -127t-9 -168z" />
<glyph unicode="&#xa5;" horiz-adv-x="1896" d="M-417 2465.5q0 20.5 12.5 27t37 -1.5t50.5 -31q20 -20 74 -95.5t128 -187t163.5 -250t180.5 -280.5t179.5 -280t160 -252t124 -192t70.5 -101q23 343 74 594t117.5 428.5t145 290.5t155 179.5t145.5 94.5t123 36q79 13 129 7.5t69.5 -22t10.5 -39.5t-48 -49 q-95 -13 -174 -98.5t-145.5 -223.5t-121.5 -317.5t-100 -380.5t-79.5 -411t-61.5 -408t-47.5 -375t-35.5 -312.5t-26.5 -216t-19.5 -88.5q-20 -18 -61 -24.5t-83.5 -2.5t-79.5 14t-53 26q-8 8 -5 63t10.5 142t21.5 194.5t30 219.5q36 261 84 589q-302 451 -545 812 q-105 154 -205 303.5t-181.5 269.5t-137 201t-65.5 96q-20 31 -20 51.5zM320 717q108 -10 214 -9t202 5t178 6.5t141 -2.5t98.5 -46t56 -87t10 -84.5t-39.5 -38.5q-146 0 -272.5 1t-275.5 1q-90 0 -150 38.5t-95 87.5q-44 56 -67 128zM371 425q108 -10 214 -9t202 5t178 6.5 t141 -2.5t98.5 -46t56 -87t10.5 -84.5t-40 -38.5q-146 0 -272.5 1.5t-274.5 1.5q-90 0 -150 38t-96 87q-44 56 -67 128z" />
<glyph unicode="&#xa6;" horiz-adv-x="266" d="M-185.5 1777q6.5 33 19 39.5t25.5 -13t18 -57.5q31 -166 52.5 -312t50.5 -318q15 -102 12.5 -159.5t-12.5 -86.5q-10 -33 -31 -41q-13 123 -32 246t-41 234.5t-38.5 206t-21.5 161.5q-8 67 -1.5 100zM-6.5 704q6.5 33 18 39.5t24.5 -12.5t18 -58q28 -166 51 -312t51 -317 q15 -102 12.5 -160t-12.5 -86q-10 -33 -31 -41q-13 123 -32 245.5t-40.5 234t-38 206t-19.5 161.5q-8 67 -1.5 100z" />
<glyph unicode="&#xa7;" horiz-adv-x="1059" d="M-153.5 1564q7.5 54 46 96t114 68t200.5 26q102 0 149.5 -36t55.5 -97.5t-14 -146t-55 -184.5q54 -46 107.5 -96t105 -98.5t93.5 -90.5l73 -73q20 -20 52 -61.5t61.5 -95t51.5 -117.5t22 -132t-25.5 -137t-92.5 -133q-18 -15 -32 -28t-35 -23q8 -8 18.5 -18t30.5 -28 q20 -20 51 -61.5t60.5 -95t51 -117.5t23 -132t-25.5 -137t-93 -133q-100 -95 -204 -110.5t-200 16.5t-175 96t-130 126q-20 28 -18 41t16 15.5t32 -5.5t26 -23q54 -82 107.5 -111.5t97 -30.5t73 14t37.5 26q8 10 29.5 31.5t35.5 62.5t9 104t-49 152q-49 97 -129.5 182 t-164.5 161l-61 57q-51 46 -98.5 92t-76.5 92q-41 61 -75.5 145.5t-26.5 161.5t73 133.5t227 66.5q-28 26 -65.5 63t-72 74t-64 71.5t-44.5 57.5q-28 44 -56.5 99t-41 111t-5 110zM123 1583q8 -50 45 -110t103 -121q31 74 49 136.5t14 109t-33.5 72t-90.5 25.5 q-51 0 -73 -31t-14 -81zM170.5 861.5q-6.5 -60.5 37 -145t125.5 -174t179 -150.5q18 41 16.5 106t-49.5 162q-44 84 -90 141t-113 118q-7 3 -17 3q-82 0 -88.5 -60.5z" />
<glyph unicode="&#xa8;" horiz-adv-x="1707" d="M56 1654q-15 74 27 129t117 58q74 3 136.5 -50t78.5 -127q15 -74 -26 -128t-115 -56q-74 -3 -139.5 48.5t-78.5 125.5zM515 1654q-15 74 27 129t116 58t137 -50t78 -127t-26 -128t-115 -56q-74 -3 -139 48.5t-78 125.5z" />
<glyph unicode="&#xa9;" horiz-adv-x="2787" d="M-124 1249.5q40 281.5 159 490t307 330t426 121.5t467 -121.5t422.5 -330t333 -490t195.5 -601.5t15.5 -600.5t-159.5 -489t-306 -330t-425 -121.5t-468.5 121.5t-424 330t-333 489t-193.5 600.5q-56 320 -16 601.5zM165.5 1111q11.5 -248 103.5 -517 q92 -266 240.5 -487.5t327.5 -374t373.5 -223t376.5 -34.5t307.5 169t184.5 333t48.5 448t-102.5 517t-242 490.5t-329 372.5t-373.5 221.5t-373.5 34.5q-182 -36 -309 -169t-185.5 -333t-47 -448zM507 617q-18 100 1 215t77 213.5t159 164t247 65.5q82 0 155 -25.5 t130.5 -68t96 -96t53.5 -110.5q10 -41 14 -82t-4 -76.5t-27 -62.5t-50 -42q-26 -18 -61 -18q-59 0 -107.5 39.5t-58.5 98.5t23 100t92 41q51 0 100 -36q-8 26 -26 69.5t-54 85.5t-94.5 74t-148.5 32q-87 0 -126.5 -75.5t-39.5 -189.5t38 -247t110 -247t171.5 -189.5 t225.5 -75.5q72 0 156 31q69 28 158.5 88t179.5 183q10 23 24 25.5t25.5 -7.5t17 -25.5t0.5 -25.5q-5 -13 -70.5 -84.5t-170.5 -153.5t-242 -147.5t-285 -65.5q-151 0 -270.5 61.5t-206.5 154t-140.5 202.5t-71.5 207z" />
<glyph unicode="&#xaa;" horiz-adv-x="1822" d="M-169 1312q0 111 34.5 225t111.5 219q82 113 183 169.5t206 76.5q95 18 182 11.5t152 -24.5t99.5 -42t24.5 -42q-13 -20 -28 -18t-43.5 13.5t-75.5 24.5t-124 13q-72 0 -140 -32t-124 -87t-93 -129.5t-48 -155.5q-15 -123 13 -216.5t75.5 -159t106.5 -98.5t105 -33 q84 0 131.5 51t70.5 126.5t30.5 164t14 164t18 125.5t45.5 50q33 0 72.5 -55t87 -136t100 -177t112.5 -176.5t124 -135.5t133 -55q51 0 91 21.5t68 50.5q31 31 54 71l61 100q3 10 13 16.5t23 6.5q36 0 41 -36q0 -3 -14 -36t-43.5 -83t-74.5 -107.5t-103.5 -106t-131.5 -82 t-160 -33.5q-92 0 -175.5 60.5t-148.5 134.5t-106 137t-46 70q-3 -8 -28.5 -70.5t-77 -136.5t-128 -134.5t-181.5 -60.5q-113 0 -204 45t-153.5 122t-97 178t-34.5 212z" />
<glyph unicode="&#xab;" horiz-adv-x="977" d="M-49 602q-5 20 12 74t43.5 121.5t64 139.5t74.5 129.5t74 92t63 29.5q38 -8 77.5 -54t69 -103.5t45 -112.5t2.5 -86q-10 -28 -55 -78t-95 -102.5t-88 -98.5t-33 -67q3 -15 28.5 -36.5t60 -50t74 -58t71.5 -59t50 -56t10 -44.5q-8 -20 -50 -2.5t-101 57t-126.5 93.5 t-126.5 106.5t-100 98.5t-44 67zM205 602q-5 20 11.5 74t44.5 121.5t64 139.5t74.5 129.5t75.5 92t63 29.5q38 -8 77.5 -54t69 -103.5t45 -112.5t2.5 -86q-10 -28 -55 -78t-95 -102.5t-88 -98.5t-33 -67q3 -15 28.5 -36.5t60 -50t74 -58t71.5 -59t50 -56t10 -44.5 q-8 -20 -50 -2.5t-102 57t-128 93.5t-127 106.5t-98.5 98.5t-44.5 67z" />
<glyph unicode="&#xac;" horiz-adv-x="1052" d="M-205 835q133 -13 263.5 -12t248.5 6.5t217.5 9.5t171.5 -4q49 -3 87.5 -48t66.5 -106t46 -129t23 -122t-4 -82t-32 -8q-100 87 -188 125.5t-172.5 51.5t-169 9t-176.5 -4q-110 0 -183 49t-117 107q-51 67 -82 157z" />
<glyph unicode="&#xad;" horiz-adv-x="1134" d="M-36 819h909l20 -115h-908z" />
<glyph unicode="&#xae;" horiz-adv-x="2787" d="M-133 1300.5q41 281.5 160 490t306 330.5t425 122q159 0 315 -55.5t300.5 -156.5t275 -241.5t234.5 -312t179.5 -369t113.5 -409.5q56 -320 16.5 -600.5t-158.5 -489t-306 -330t-425 -121.5q-159 0 -315 55t-302 156t-275 240.5t-234 311t-182 368.5t-113 410 q-56 320 -15 601.5zM156 1162.5q10 -248.5 103 -517.5q92 -266 241.5 -487.5t329 -374t372.5 -223t375 -34.5t307.5 169t184 333t48.5 448t-102 517t-240.5 490.5t-328 372.5t-374 221.5t-376.5 34.5t-307 -169t-184 -332.5t-49 -448zM334 381.5q4 -17.5 17 -25.5t28 -3 t28 23q36 61 74.5 153.5t71.5 191t53.5 192t23.5 155.5q15 -8 33 -8q26 -8 61.5 -13t73 -11.5t69.5 -18t52 -31.5q26 -28 51.5 -113t60 -195t83 -231.5t120.5 -222.5t171.5 -166.5t235.5 -65.5q87 0 162.5 33.5t137 82t110 106t82 107.5t50 83.5t16.5 35.5q-5 36 -41 36 q-10 0 -21.5 -6.5t-14.5 -16.5l-59 -100q-41 -41 -87 -71q-38 -28 -88 -50t-101 -22q-69 0 -126.5 57.5t-106.5 146t-91 194.5t-78 206t-68 180.5t-63 113.5q-28 31 -104.5 44t-169 19.5t-184.5 12.5t-148 22q0 15 -2.5 28t-8.5 26q-5 10 -7 23q-18 51 -64 86.5t-103 35.5 q-61 0 -97 -43.5t-23 -104.5q15 -87 95 -128q13 -13 50 -23t78 -23q0 -20 -5 -67.5t-27 -128.5t-67 -194.5t-124 -267.5q-13 -26 -9 -43.5z" />
<glyph unicode="&#xaf;" d="M-164 1687q133 -13 263.5 -11.5t248.5 6.5t217.5 9t171.5 -4q72 -5 117 -44.5t60 -83t2.5 -79.5t-53.5 -36h-172t-162.5 1t-163.5 1h-176q-110 0 -177.5 37.5t-106.5 83.5q-46 51 -69 120z" />
<glyph unicode="&#xb0;" horiz-adv-x="778" d="M-189 1692q-10 54 2.5 102.5t42 85.5t74 57.5t98.5 20.5t106.5 -20.5t94.5 -57.5t71.5 -85.5t39.5 -102.5t-2.5 -102.5t-43 -85.5t-75.5 -57.5t-99 -20.5t-105 20.5t-93 57.5t-71.5 85.5t-39.5 102.5zM0 1672q13 -72 64 -122t110 -50t92.5 50t20.5 122t-63 121.5 t-109 49.5t-92 -49.5t-23 -121.5z" />
<glyph unicode="&#xb1;" d="M-26 835q133 -13 264 -12t248.5 6.5t217.5 9.5t172 -4q72 -5 120 -55t68.5 -108t13 -105t-48.5 -47h-171.5t-162.5 1t-164 1h-175q-110 0 -183 49t-117 107q-51 67 -82 157zM102 90q133 -13 265 -12t250 6.5t217.5 9.5t171.5 -4q72 -5 120.5 -55t69 -108t13 -105 t-48.5 -47h-172t-162.5 1t-163.5 1h-176q-110 0 -184 49t-118 107q-51 67 -82 157zM343 1034q-8 72 35.5 111.5t100 50t106.5 -6.5t58 -57q15 -90 29 -172t27 -162.5t28 -164t31 -175.5q20 -110 -18.5 -174t-89.5 -100q-61 -41 -146 -53q-13 131 -37 262.5t-49.5 250.5 t-47.5 218.5t-27 171.5z" />
<glyph unicode="&#xb2;" horiz-adv-x="1374" d="M-165 1784.5q-1 15.5 6 22.5q5 8 45 62t106.5 119t153.5 121.5t187 66.5t207.5 -43.5t212.5 -209.5q77 -110 92 -203.5t-10.5 -169t-83 -137t-129 -109t-148.5 -82t-141 -60t-105 -39.5t-41 -22q0 -10 54 -15.5t134.5 -8t177.5 -2.5t183 -1t147.5 -3.5t74.5 -10.5 q18 -10 21.5 -46t-1.5 -77t-18 -79.5t-25 -56.5q-10 -10 -70.5 -17.5t-149 -12.5t-190.5 -6.5t-193 -1.5t-156.5 2.5t-80.5 7.5q-23 5 -55 50t-61.5 100t-47.5 107.5t-13 70.5t29.5 25.5t77 19t138.5 34.5t211 74q95 38 138.5 103.5t50 140t-20.5 151.5t-72 138t-104 99.5 t-117 38.5q-87 0 -146 -20.5t-99 -47.5t-61.5 -53.5t-31.5 -39.5q-20 -20 -37 -19t-27.5 12.5t-11.5 27z" />
<glyph unicode="&#xb3;" horiz-adv-x="1256" d="M-276.5 1893q-2.5 14 5.5 22q5 5 43.5 51t101 100t145.5 101t176.5 55t192 -38t196.5 -177q69 -92 83 -167.5t-10.5 -138.5t-76.5 -114t-119 -89q79 -38 149.5 -89.5t116.5 -115.5t59 -139.5t-23 -167.5q-51 -131 -134.5 -176t-179.5 -36t-195.5 55.5t-181.5 101.5 t-136 99.5t-59 52.5q-10 8 -14 20.5t1 21.5t19.5 9t37.5 -18q15 -10 45.5 -32t77 -45t110.5 -39.5t145 -16.5q56 0 101 36t65.5 93.5t15.5 125.5t-43 134q-23 31 -51.5 49t-51.5 28q-28 10 -56 15q-33 0 -55 8t-27 23q-3 13 17.5 22t54.5 9q31 0 52.5 12.5t37 29.5t23 34.5 t12.5 30.5q13 64 -7.5 130.5t-61.5 121.5t-96 91t-111 36q-82 0 -138.5 -16.5t-95 -39.5t-61.5 -45t-33 -32q-18 -18 -32 -18t-23 9t-11.5 23z" />
<glyph unicode="&#xb4;" horiz-adv-x="1707" d="M205 1519.5q0 16.5 31 29.5q20 8 70 55t118 110t146 129.5t151 111t135.5 56.5t98.5 -32q51 -64 34.5 -121.5t-74 -110t-143.5 -97.5t-175.5 -81t-167.5 -62.5t-119 -39.5q-23 -8 -48.5 0t-41 22t-15.5 30.5z" />
<glyph unicode="&#xb7;" horiz-adv-x="537" d="M0 832q-15 74 26 129t115 58t138 -50t77 -127q15 -74 -26 -128t-115 -56q-74 -3 -138 48.5t-77 125.5z" />
<glyph unicode="&#xb8;" horiz-adv-x="1154" d="M262.5 -384q1.5 13 16.5 14t33 -2.5t18 -8.5q0 -3 25.5 -12t64 -16.5t83.5 -11.5t83.5 5t64 33.5t25.5 70.5q0 69 -36 87t-84.5 16.5t-96 -9t-67.5 10.5t-16.5 56t16 80.5t26 78t10.5 48.5q-5 13 26.5 17t70.5 6q46 3 105 0q-23 -38 -36 -71q-13 -28 -19.5 -60t6.5 -53 q8 -15 28.5 -7.5t48.5 20.5t60 23t61.5 -1.5t56.5 -50t45 -122.5t-14 -135.5t-90 -78.5t-133.5 -33.5t-147 1.5t-128 24.5t-76.5 36.5q-31 31 -29.5 44z" />
<glyph unicode="&#xb9;" horiz-adv-x="1169" d="M-338 1820q0 18 15 33q10 10 36 43.5t60.5 77t74 91t80.5 87t78 65t68 25.5q44 0 97.5 -24t101 -64t83 -91t46.5 -102q5 -33 24 -128t41 -218t46 -258.5t41 -252t20.5 -198.5t-9.5 -97q-23 -23 -84.5 -18t-130.5 28t-126.5 61.5t-72.5 81.5q-10 28 -22 113t-24.5 195 t-28 229t-32 218.5t-36 165t-39.5 65.5q-33 0 -66.5 -18t-64 -42t-56.5 -50t-43 -44q-20 -18 -37 -16.5t-28.5 13t-11.5 29.5z" />
<glyph unicode="&#xba;" horiz-adv-x="1359" d="M-231 1426q-23 131 2.5 244.5t91 198t164 134.5t221.5 50t239.5 -50t212.5 -134.5t162.5 -198t89.5 -244.5t-4 -244.5t-92 -198t-165 -134.5t-223 -50t-238 50t-210 134.5t-161.5 198t-89.5 244.5zM122.5 1588.5q10.5 -93.5 51.5 -190.5t102.5 -178t134 -133.5 t149.5 -75.5t146 -5t114 70.5t64 128t10 169t-50 190.5t-103.5 176.5t-134 133.5t-147 75.5t-145.5 3.5q-69 -18 -116 -70.5t-66.5 -126.5t-9 -167.5z" />
<glyph unicode="&#xbb;" horiz-adv-x="1013" d="M-79 924q-5 56 5 114t33 104t59 54q26 5 74.5 -31t107.5 -93.5t121.5 -130.5t113.5 -139.5t86 -121.5t40 -76q5 -20 -20.5 -66t-65.5 -100t-90 -109t-96 -93.5t-83 -56.5t-52 3q-23 28 5 71.5t70 88.5t79.5 84.5t34.5 62.5q-3 13 -29.5 38.5t-66.5 59t-86 69t-89.5 70 t-76.5 64t-46 47.5q-23 31 -28 87zM174 924q-5 56 5 114t34.5 104t60.5 54q26 5 74.5 -31t107.5 -93.5t121.5 -130.5t113.5 -139.5t86 -121.5t40 -76q5 -20 -20.5 -66t-65.5 -100t-90 -109t-96 -93.5t-83 -56.5t-52 3q-23 28 5 71.5t70 88.5t79.5 84.5t34.5 62.5 q-5 20 -59 66.5t-123 100t-131.5 103.5t-83.5 78q-23 31 -28 87z" />
<glyph unicode="&#xbc;" horiz-adv-x="2882" d="M-161 919q0 18 15 33q10 10 36 43.5t60.5 77t74 91t80.5 87t78 65t68 25.5q44 0 97.5 -24t101 -64t83 -91t46.5 -102q5 -33 24 -128t41 -218t46 -258.5t41 -252t20.5 -198.5t-9.5 -97q-23 -23 -84.5 -18t-130.5 28t-126.5 61.5t-72.5 81.5q-10 28 -22 113t-24.5 195 t-28 229t-32 218.5t-36 165t-39.5 65.5q-33 0 -66.5 -18t-64 -42t-56.5 -50t-43 -44q-20 -18 -37 -16.5t-28.5 13t-11.5 29.5zM671 -340q120 238 234 479.5t215.5 463t187 408.5t152.5 315q64 128 106 189.5t58.5 68t7.5 -36t-47 -119.5q-77 -164 -147.5 -314.5t-142 -299 t-144.5 -302.5t-152 -323q-97 -202 -158.5 -309.5t-100.5 -155.5q-46 -59 -69 -64zM1423.5 780.5q-7.5 102.5 31 201t88 175.5t96 127t51.5 55q10 10 26.5 11.5t28 -6.5t14 -23t-15.5 -41q-10 -13 -30.5 -41t-39.5 -73t-28 -109t6 -151q13 -69 76 -126.5t147 -89.5 t176.5 -31t161.5 55q-15 108 -26.5 210.5t-18 183t-6.5 133t10 62.5q18 18 70.5 20.5t115 -20.5t122.5 -72t91 -128q20 -54 44.5 -158.5t48 -232.5t43.5 -264t34.5 -251t17 -194.5t-10.5 -94.5q-18 -23 -75.5 -20.5t-125.5 24t-129.5 60t-84.5 89.5q-8 18 -18 61.5 t-21.5 102.5t-24.5 131t-23 151q-38 -54 -86.5 -92.5t-110 -56.5t-138.5 -7.5t-169 53.5q-169 77 -239.5 175.5t-78 201z" />
<glyph unicode="&#xbd;" horiz-adv-x="2682" d="M-161 919q0 18 15 33q10 10 36 43.5t60.5 77t74 91t80.5 87t78 65t68 25.5q44 0 97.5 -24t101 -64t83 -91t46.5 -102q5 -33 24 -128t41 -218t46 -258.5t41 -252t20.5 -198.5t-9.5 -97q-23 -23 -84.5 -18t-130.5 28t-126.5 61.5t-72.5 81.5q-10 28 -22 113t-24.5 195 t-28 229t-32 218.5t-36 165t-39.5 65.5q-33 0 -66.5 -18t-64 -42t-56.5 -50t-43 -44q-20 -18 -37 -16.5t-28.5 13t-11.5 29.5zM676 -340q120 238 234 479.5t215.5 463t187 408.5t152.5 315q64 128 106 189.5t58.5 68t7.5 -36t-47 -119.5q-77 -164 -147.5 -314.5t-142 -299 t-144.5 -302.5t-152 -323q-97 -202 -158.5 -309.5t-100.5 -155.5q-46 -59 -69 -64zM1419 934.5q-1 15.5 6 22.5q5 8 45 62t106.5 119t153.5 121.5t187 66.5t207.5 -43.5t212.5 -209.5q77 -110 92 -203.5t-10.5 -169t-83 -137t-129 -109t-148.5 -82t-141 -60t-105 -39.5 t-41 -22q0 -10 54 -15.5t134.5 -8t177.5 -2.5t183 -1t147.5 -3.5t74.5 -10.5q18 -10 21.5 -46t-1.5 -77t-18 -79.5t-25 -56.5q-10 -10 -70.5 -17.5t-149 -12.5t-190.5 -6.5t-193 -1.5t-156.5 2.5t-80.5 7.5q-23 5 -55 50t-61.5 100t-47.5 107.5t-13 70.5t29.5 25.5t77 19 t138.5 34.5t211 74q95 38 138.5 103.5t50 140t-20.5 151.5t-72 138t-104 99.5t-117 38.5q-87 0 -146 -20.5t-99 -47.5t-61.5 -53.5t-31.5 -39.5q-20 -20 -37 -19t-27.5 12.5t-11.5 27z" />
<glyph unicode="&#xbe;" horiz-adv-x="2941" d="M-171.5 997q-2.5 14 5.5 22q5 5 43.5 51t101 100t145.5 101t176.5 55t192 -38t196.5 -177q69 -92 83 -167.5t-10.5 -138.5t-76.5 -114t-119 -89q79 -38 149.5 -89.5t116.5 -115.5t59 -139.5t-23 -167.5q-51 -131 -134.5 -176t-179.5 -36t-195.5 55.5t-181.5 101.5 t-136 99.5t-59 52.5q-10 8 -14 20.5t1 21.5t19.5 9t37.5 -18q15 -10 45.5 -32t77 -45t110.5 -39.5t145 -16.5q56 0 101 36t65.5 93.5t15.5 125.5t-43 134q-23 31 -51.5 49t-51.5 28q-28 10 -56 15q-33 0 -55 8t-27 23q-3 13 17.5 22t54.5 9q31 0 52.5 12.5t37 29.5t23 34.5 t12.5 30.5q13 64 -7.5 130.5t-61.5 121.5t-96 91t-111 36q-82 0 -138.5 -16.5t-95 -39.5t-61.5 -45t-33 -32q-18 -18 -32 -18t-23 9t-11.5 23zM729 -340q120 238 234 479.5t215.5 463t187 408.5t152.5 315q64 128 106 189.5t58.5 68t7.5 -36t-47 -119.5 q-77 -164 -147.5 -314.5t-142 -299t-144.5 -302.5t-152 -323q-97 -202 -158.5 -309.5t-100.5 -155.5q-46 -59 -69 -64zM1474.5 780.5q-7.5 102.5 31 201t88 175.5t96 127t51.5 55q10 10 26.5 11.5t28 -6.5t14 -23t-15.5 -41q-10 -13 -30.5 -41t-39.5 -73t-28 -109t6 -151 q13 -69 76 -126.5t147 -89.5t176.5 -31t161.5 55q-15 108 -26.5 210.5t-18 183t-6.5 133t10 62.5q18 18 70.5 20.5t115 -20.5t122.5 -72t91 -128q20 -54 44.5 -158.5t48 -232.5t43.5 -264t34.5 -251t17 -194.5t-10.5 -94.5q-18 -23 -75.5 -20.5t-125.5 24t-129.5 60 t-84.5 89.5q-8 18 -18 61.5t-21.5 102.5t-24.5 131t-23 151q-38 -54 -86.5 -92.5t-110 -56.5t-138.5 -7.5t-169 53.5q-169 77 -239.5 175.5t-78 201z" />
<glyph unicode="&#xbf;" horiz-adv-x="1423" d="M44.5 82.5q32.5 125.5 104 202t157 115t142.5 59.5q90 36 147.5 98.5t88 133t38 138t-4.5 111.5q-15 44 -10.5 63t17.5 19t28.5 -21t25.5 -59q8 -31 22 -103.5t7.5 -158.5t-48.5 -166.5t-147 -123.5q-138 -59 -192 -184.5t-40 -279t88.5 -315t192 -291t272.5 -206 t329 -63.5q136 13 221.5 55t136.5 99.5t74.5 123t30.5 121.5q-28 -23 -74 -26q-67 -8 -128 38.5t-79 112.5q-18 72 19 124.5t104 60.5q67 5 129.5 -40t79.5 -116q0 -10 3 -16q0 -8 2.5 -16.5t5.5 -19.5q18 -64 3.5 -154.5t-74.5 -176.5t-176.5 -151t-305.5 -81 q-233 -20 -426.5 26t-343 147t-251 253.5t-152.5 346.5q-49 195 -16.5 320.5zM455 1408q15 -74 78 -126.5t138 -49.5q74 3 116 58t29 129q-15 74 -79 125t-138 49q-74 -3 -116.5 -56.5t-27.5 -128.5z" />
<glyph unicode="&#xc0;" horiz-adv-x="3023" d="M-950 724q233 -46 529 -63.5t621 -17.5q82 310 161 606.5t143 529.5q72 271 139 515q-31 49 -52 94q-18 38 -28 79.5t3 69.5q13 26 62.5 46.5t113.5 26.5t128 -4t108 -43q20 -18 63.5 -106.5t109 -228t154 -318.5t199.5 -379t248 -408.5t299 -405.5q133 5 229 9t149 -2 q133 -8 212.5 -55t108 -107t9 -123t-80.5 -104q-20 -13 -76.5 -24t-146.5 -19q133 -118 279 -218q72 -46 100 -89.5t7.5 -74t-92 -39.5t-199.5 14q-87 15 -226.5 116t-308.5 268q-197 -5 -422.5 -6.5t-454.5 2.5t-450.5 11.5t-405.5 20.5q-61 -253 -120.5 -487.5 t-108 -422.5t-85.5 -312.5t-55 -157.5q-28 -46 -60 -59t-56.5 0t-36 50t3.5 94q5 23 36 136.5t78.5 291.5t107.5 404.5t124 475.5q-79 5 -143 12.5t-115 15.5q-210 33 -361 96t-249 129q-115 74 -192 161zM258 3146q20 67 83 72t146.5 -27t180.5 -91t186.5 -123t162.5 -123 t114 -90q23 -18 33.5 -42t8 -43.5t-18 -24.5t-46.5 16q-20 15 -94.5 42t-174 64t-209.5 82t-197.5 93.5t-138.5 97t-36 97.5zM366 645q333 5 657 19t603 30q-128 154 -253.5 325t-242 354t-219 374t-181.5 380q-13 -41 -47.5 -179t-83.5 -339t-109 -450.5t-124 -513.5z" />
<glyph unicode="&#xc1;" horiz-adv-x="3023" d="M-950 724q233 -46 529 -63.5t621 -17.5q82 310 161 606.5t143 529.5q72 271 139 515q-31 49 -52 94q-18 38 -28 79.5t3 69.5q13 26 62.5 46.5t113.5 26.5t128 -4t108 -43q20 -18 63.5 -106.5t109 -228t154 -318.5t199.5 -379t248 -408.5t299 -405.5q133 5 229 9t149 -2 q133 -8 212.5 -55t108 -107t9 -123t-80.5 -104q-20 -13 -76.5 -24t-146.5 -19q133 -118 279 -218q72 -46 100 -89.5t7.5 -74t-92 -39.5t-199.5 14q-87 15 -226.5 116t-308.5 268q-197 -5 -422.5 -6.5t-454.5 2.5t-450.5 11.5t-405.5 20.5q-61 -253 -120.5 -487.5 t-108 -422.5t-85.5 -312.5t-55 -157.5q-28 -46 -60 -59t-56.5 0t-36 50t3.5 94q5 23 36 136.5t78.5 291.5t107.5 404.5t124 475.5q-79 5 -143 12.5t-115 15.5q-210 33 -361 96t-249 129q-115 74 -192 161zM366 645q333 5 657 19t603 30q-128 154 -253.5 325t-242 354 t-219 374t-181.5 380q-13 -41 -47.5 -179t-83.5 -339t-109 -450.5t-124 -513.5zM407 2745.5q0 16.5 31 29.5q20 8 70 55t118 110t146 129.5t151 111t135.5 56.5t98.5 -32q51 -64 34.5 -121.5t-74 -110t-143.5 -97.5t-175.5 -81t-167.5 -62.5t-119 -39.5q-23 -8 -48.5 0 t-41 22t-15.5 30.5z" />
<glyph unicode="&#xc2;" horiz-adv-x="3023" d="M-950 724q233 -46 529 -63.5t621 -17.5q82 310 161 606.5t143 529.5q72 271 139 515q-31 49 -52 94q-18 38 -28 79.5t3 69.5q13 26 62.5 46.5t113.5 26.5t128 -4t108 -43q20 -18 63.5 -106.5t109 -228t154 -318.5t199.5 -379t248 -408.5t299 -405.5q133 5 229 9t149 -2 q133 -8 212.5 -55t108 -107t9 -123t-80.5 -104q-20 -13 -76.5 -24t-146.5 -19q133 -118 279 -218q72 -46 100 -89.5t7.5 -74t-92 -39.5t-199.5 14q-87 15 -226.5 116t-308.5 268q-197 -5 -422.5 -6.5t-454.5 2.5t-450.5 11.5t-405.5 20.5q-61 -253 -120.5 -487.5 t-108 -422.5t-85.5 -312.5t-55 -157.5q-28 -46 -60 -59t-56.5 0t-36 50t3.5 94q5 23 36 136.5t78.5 291.5t107.5 404.5t124 475.5q-79 5 -143 12.5t-115 15.5q-210 33 -361 96t-249 129q-115 74 -192 161zM284 2863q10 40 40.5 92.5t73 111.5t87.5 109t84.5 82t59.5 32 t79.5 -26t133.5 -65.5t153.5 -88t146 -97t110 -91t40.5 -68.5q-3 -36 -42 -67.5t-93 -52t-109 -26t-88 12.5q-31 15 -90 69t-123 113t-117.5 105t-74.5 46q-20 0 -52 -43.5t-66.5 -93.5t-72 -85.5t-67.5 -18.5q-23 10 -13 50zM366 645q333 5 657 19t603 30 q-128 154 -253.5 325t-242 354t-219 374t-181.5 380q-13 -41 -47.5 -179t-83.5 -339t-109 -450.5t-124 -513.5z" />
<glyph unicode="&#xc3;" horiz-adv-x="3023" d="M-950 724q233 -46 529 -63.5t621 -17.5q82 310 161 606.5t143 529.5q72 271 139 515q-31 49 -52 94q-18 38 -28 79.5t3 69.5q13 26 62.5 46.5t113.5 26.5t128 -4t108 -43q20 -18 63.5 -106.5t109 -228t154 -318.5t199.5 -379t248 -408.5t299 -405.5q133 5 229 9t149 -2 q133 -8 212.5 -55t108 -107t9 -123t-80.5 -104q-20 -13 -76.5 -24t-146.5 -19q133 -118 279 -218q72 -46 100 -89.5t7.5 -74t-92 -39.5t-199.5 14q-87 15 -226.5 116t-308.5 268q-197 -5 -422.5 -6.5t-454.5 2.5t-450.5 11.5t-405.5 20.5q-61 -253 -120.5 -487.5 t-108 -422.5t-85.5 -312.5t-55 -157.5q-28 -46 -60 -59t-56.5 0t-36 50t3.5 94q5 23 36 136.5t78.5 291.5t107.5 404.5t124 475.5q-79 5 -143 12.5t-115 15.5q-210 33 -361 96t-249 129q-115 74 -192 161zM190.5 2885q6.5 23 52.5 64q102 87 200.5 111.5t188.5 13t169 -46 t144.5 -65.5t114 -45t74.5 17q13 15 39.5 21.5t44.5 1.5t18 -23t-41 -51q-72 -74 -138.5 -94.5t-131.5 -12t-128 36.5t-127 54q-128 49 -227.5 62t-150.5 -39q-23 -26 -51.5 -34.5t-42.5 -1t-7.5 30.5zM366 645q333 5 657 19t603 30q-128 154 -253.5 325t-242 354t-219 374 t-181.5 380q-13 -41 -47.5 -179t-83.5 -339t-109 -450.5t-124 -513.5z" />
<glyph unicode="&#xc4;" horiz-adv-x="3023" d="M-950 724q233 -46 529 -63.5t621 -17.5q82 310 161 606.5t143 529.5q72 271 139 515q-31 49 -52 94q-18 38 -28 79.5t3 69.5q13 26 62.5 46.5t113.5 26.5t128 -4t108 -43q20 -18 63.5 -106.5t109 -228t154 -318.5t199.5 -379t248 -408.5t299 -405.5q133 5 229 9t149 -2 q133 -8 212.5 -55t108 -107t9 -123t-80.5 -104q-20 -13 -76.5 -24t-146.5 -19q133 -118 279 -218q72 -46 100 -89.5t7.5 -74t-92 -39.5t-199.5 14q-87 15 -226.5 116t-308.5 268q-197 -5 -422.5 -6.5t-454.5 2.5t-450.5 11.5t-405.5 20.5q-61 -253 -120.5 -487.5 t-108 -422.5t-85.5 -312.5t-55 -157.5q-28 -46 -60 -59t-56.5 0t-36 50t3.5 94q5 23 36 136.5t78.5 291.5t107.5 404.5t124 475.5q-79 5 -143 12.5t-115 15.5q-210 33 -361 96t-249 129q-115 74 -192 161zM299 2965q-15 74 27 129t117 58q74 3 136.5 -50t78.5 -127 q15 -74 -26 -128t-115 -56q-74 -3 -139.5 48.5t-78.5 125.5zM366 645q333 5 657 19t603 30q-128 154 -253.5 325t-242 354t-219 374t-181.5 380q-13 -41 -47.5 -179t-83.5 -339t-109 -450.5t-124 -513.5zM758 2965q-15 74 27 129t116 58t137 -50t78 -127t-26 -128t-115 -56 q-74 -3 -139 48.5t-78 125.5z" />
<glyph unicode="&#xc5;" horiz-adv-x="3023" d="M-950 724q233 -46 529 -63.5t621 -17.5q82 310 161 606.5t143 529.5q72 271 139 515q-31 49 -52 94q-18 38 -28 79.5t3 69.5q13 26 62.5 46.5t113.5 26.5t128 -4t108 -43q20 -18 63.5 -106.5t109 -228t154 -318.5t199.5 -379t248 -408.5t299 -405.5q133 5 229 9t149 -2 q133 -8 212.5 -55t108 -107t9 -123t-80.5 -104q-20 -13 -76.5 -24t-146.5 -19q133 -118 279 -218q72 -46 100 -89.5t7.5 -74t-92 -39.5t-199.5 14q-87 15 -226.5 116t-308.5 268q-197 -5 -422.5 -6.5t-454.5 2.5t-450.5 11.5t-405.5 20.5q-61 -253 -120.5 -487.5 t-108 -422.5t-85.5 -312.5t-55 -157.5q-28 -46 -60 -59t-56.5 0t-36 50t3.5 94q5 23 36 136.5t78.5 291.5t107.5 404.5t124 475.5q-79 5 -143 12.5t-115 15.5q-210 33 -361 96t-249 129q-115 74 -192 161zM366 645q333 5 657 19t603 30q-128 154 -253.5 325t-242 354 t-219 374t-181.5 380q-13 -41 -47.5 -179t-83.5 -339t-109 -450.5t-124 -513.5zM433 3039q-10 54 2.5 102.5t42 85.5t74 57.5t98.5 20.5t106.5 -20.5t94.5 -57.5t71.5 -85.5t39.5 -102.5t-2.5 -102.5t-43 -85.5t-75.5 -57.5t-99 -20.5t-105 20.5t-93 57.5t-71.5 85.5 t-39.5 102.5zM622 3019q13 -72 64 -122t110 -50t92.5 50t20.5 122t-63 121.5t-109 49.5t-92 -49.5t-23 -121.5z" />
<glyph unicode="&#xc6;" horiz-adv-x="3502" d="M-504 724q202 -46 486 -63.5t612 -17.5l742 1651q-3 49 8 94q8 38 24.5 79.5t47.5 69.5q20 18 84 20.5t147.5 -5t171.5 -22t157 -29.5t104 -28t12 -18q-125 -28 -225.5 -146t-142.5 -320t-9 -480t174 -623l-466 -617q-133 -5 -209.5 -6.5t-125.5 0t-79.5 4t-74 6t-110 10 t-184.5 14.5l-502 -1219q-54 -46 -93.5 -58.5t-56 0t-5 50t60.5 93.5l432 1147q-38 3 -101 6.5t-128 7.5t-120 6.5t-78 7.5q-187 33 -296 96t-168 129q-67 74 -89 161zM758 645q166 3 263.5 5.5t174 7.5t161 11.5t228.5 14.5q59 118 69 201t-10.5 148t-64 122.5t-89.5 123 t-87 146t-59 194.5t-2.5 267.5t81.5 363.5zM1322 1753.5q9 158.5 86 290.5t196 226.5t265 147t294 52.5q138 0 243 -37t184.5 -94.5t134.5 -132t89.5 -150t52.5 -143t26 -116.5q5 -10 6 -19t7 -22q15 -92 -39 -156t-146 -64q-46 0 -89.5 16.5t-79.5 47.5t-60 70.5t-32 85.5 q-18 92 36 157.5t146 65.5q54 0 105 -23q-20 69 -60 143t-108 133t-171.5 97.5t-251.5 38.5q-118 0 -199 -60t-128 -157.5t-61 -221.5t2.5 -254.5t65 -253.5t126.5 -219t184.5 -153.5t241.5 -52.5q61 0 94.5 -18t37.5 -38.5t-21.5 -38.5t-79.5 -18q-195 0 -324 -70.5 t-202 -184t-93.5 -259.5t4 -298.5t91 -298.5t166.5 -260t229 -184t280 -70q113 0 189.5 55t126.5 142t77 192t38.5 203.5t11.5 179t-2 116.5q-3 54 8.5 78t29.5 19t33.5 -39.5t20.5 -98.5q3 -41 0 -135.5t-21 -210t-55 -239.5t-103.5 -226.5t-165 -168t-236.5 -65.5 q-225 0 -430 84.5t-366.5 229.5t-265 338t-126.5 413.5t46 456t256 462.5q-179 189 -251 370t-63 339.5z" />
<glyph unicode="&#xc7;" horiz-adv-x="2467" d="M-155.5 1037q-3.5 187 31 372.5t110 355.5t192 303.5t276.5 219t365 100.5q248 18 436.5 -40.5t320.5 -153.5t207.5 -205t95.5 -194q5 -13 6.5 -24.5t3.5 -22.5q5 -5 5 -11t3 -12q10 -46 3.5 -87t-28 -73t-57.5 -52.5t-79 -22.5q-46 -3 -89.5 11.5t-79.5 41t-64 65 t-39 84.5q-13 46 -5 87t29.5 73t56.5 52.5t81 23.5q56 3 107 -18q-46 69 -116.5 145.5t-171.5 138t-236.5 97.5t-312.5 23q-172 -13 -282 -142t-165 -330t-57.5 -454.5t42.5 -513.5t133 -505.5t216 -432.5t293.5 -295.5t362.5 -93.5q113 8 205 47.5t163.5 94.5t125.5 120.5 t91 125.5t57 108.5t28 71.5q15 46 37 65.5t39 14t22 -34.5t-13 -78q-13 -33 -37.5 -99.5t-68 -148.5t-108.5 -169t-161 -161.5t-226.5 -127t-302.5 -65.5q-174 -13 -332.5 37t-300.5 146t-264 230.5t-219 291t-169 326.5t-113 339q-44 169 -47.5 356zM1002.5 -1096 q1.5 13 16.5 14t33 -2.5t18 -8.5q0 -3 25.5 -12t64 -16.5t83.5 -11.5t83.5 5t64 33.5t25.5 70.5q0 69 -36 87t-84.5 16.5t-96 -9t-67.5 10.5t-16.5 56t16 80.5t26 78t10.5 48.5q-5 13 26.5 17t70.5 6q46 3 105 0q-23 -38 -36 -71q-13 -28 -19.5 -60t6.5 -53q8 -15 28.5 -7.5 t48.5 20.5t60 23t61.5 -1.5t56.5 -50t45 -122.5t-14 -135.5t-90 -78.5t-133.5 -33.5t-147 1.5t-128 24.5t-76.5 36.5q-31 31 -29.5 44z" />
<glyph unicode="&#xc8;" horiz-adv-x="2132" d="M-6 1753.5q9 158.5 85.5 290.5t195.5 226.5t265 147t295 52.5q138 0 243 -37t184 -94.5t134.5 -132t90 -150t52 -143t25.5 -116.5q5 -10 6.5 -19t6.5 -22q15 -92 -38.5 -156t-145.5 -64q-46 0 -89.5 16.5t-79.5 47.5t-60 70.5t-32 85.5q-18 92 35.5 157.5t145.5 65.5 q54 0 105 -23q-20 69 -60 143t-107.5 133t-171.5 97.5t-252 38.5q-118 0 -198.5 -60t-128 -157.5t-61.5 -221.5t2.5 -254.5t65.5 -253.5t127 -219t184 -153.5t242 -52.5q61 0 94.5 -18t37.5 -38.5t-22 -38.5t-79 -18q-195 0 -324.5 -70.5t-202 -184t-93 -259.5t3.5 -298.5 t90.5 -298.5t166.5 -260t229.5 -184t280.5 -70q113 0 189.5 55t126.5 142t76.5 192t38 203.5t11.5 179t-2 116.5q-3 54 8.5 78t29.5 19t33.5 -39.5t20.5 -98.5q3 -41 0.5 -135.5t-20.5 -210t-55.5 -239.5t-104 -226.5t-165 -168t-236.5 -65.5q-225 0 -430 84.5t-366 229.5 t-265 338t-127 413.5t46 456t256 462.5q-179 189 -250.5 370t-62.5 339.5zM105 3082q20 67 83 72t146.5 -27t180.5 -91t186.5 -123t162.5 -123t114 -90q23 -18 33.5 -42t8 -43.5t-18 -24.5t-46.5 16q-20 15 -94.5 42t-174 64t-209.5 82t-197.5 93.5t-138.5 97t-36 97.5z" />
<glyph unicode="&#xc9;" horiz-adv-x="2132" d="M-6 1753.5q9 158.5 85.5 290.5t195.5 226.5t265 147t295 52.5q138 0 243 -37t184 -94.5t134.5 -132t90 -150t52 -143t25.5 -116.5q5 -10 6.5 -19t6.5 -22q15 -92 -38.5 -156t-145.5 -64q-46 0 -89.5 16.5t-79.5 47.5t-60 70.5t-32 85.5q-18 92 35.5 157.5t145.5 65.5 q54 0 105 -23q-20 69 -60 143t-107.5 133t-171.5 97.5t-252 38.5q-118 0 -198.5 -60t-128 -157.5t-61.5 -221.5t2.5 -254.5t65.5 -253.5t127 -219t184 -153.5t242 -52.5q61 0 94.5 -18t37.5 -38.5t-22 -38.5t-79 -18q-195 0 -324.5 -70.5t-202 -184t-93 -259.5t3.5 -298.5 t90.5 -298.5t166.5 -260t229.5 -184t280.5 -70q113 0 189.5 55t126.5 142t76.5 192t38 203.5t11.5 179t-2 116.5q-3 54 8.5 78t29.5 19t33.5 -39.5t20.5 -98.5q3 -41 0.5 -135.5t-20.5 -210t-55.5 -239.5t-104 -226.5t-165 -168t-236.5 -65.5q-225 0 -430 84.5t-366 229.5 t-265 338t-127 413.5t46 456t256 462.5q-179 189 -250.5 370t-62.5 339.5zM323 2566.5q0 16.5 31 29.5q20 8 70 55t118 110t146 129.5t151 111t135.5 56.5t98.5 -32q51 -64 34.5 -121.5t-74 -110t-143.5 -97.5t-175.5 -81t-167.5 -62.5t-119 -39.5q-23 -8 -48.5 0t-41 22 t-15.5 30.5z" />
<glyph unicode="&#xca;" horiz-adv-x="2132" d="M-6 1753.5q9 158.5 85.5 290.5t195.5 226.5t265 147t295 52.5q138 0 243 -37t184 -94.5t134.5 -132t90 -150t52 -143t25.5 -116.5q5 -10 6.5 -19t6.5 -22q15 -92 -38.5 -156t-145.5 -64q-46 0 -89.5 16.5t-79.5 47.5t-60 70.5t-32 85.5q-18 92 35.5 157.5t145.5 65.5 q54 0 105 -23q-20 69 -60 143t-107.5 133t-171.5 97.5t-252 38.5q-118 0 -198.5 -60t-128 -157.5t-61.5 -221.5t2.5 -254.5t65.5 -253.5t127 -219t184 -153.5t242 -52.5q61 0 94.5 -18t37.5 -38.5t-22 -38.5t-79 -18q-195 0 -324.5 -70.5t-202 -184t-93 -259.5t3.5 -298.5 t90.5 -298.5t166.5 -260t229.5 -184t280.5 -70q113 0 189.5 55t126.5 142t76.5 192t38 203.5t11.5 179t-2 116.5q-3 54 8.5 78t29.5 19t33.5 -39.5t20.5 -98.5q3 -41 0.5 -135.5t-20.5 -210t-55.5 -239.5t-104 -226.5t-165 -168t-236.5 -65.5q-225 0 -430 84.5t-366 229.5 t-265 338t-127 413.5t46 456t256 462.5q-179 189 -250.5 370t-62.5 339.5zM259 2778q10 40 40.5 92.5t73 111.5t87.5 109t84.5 82t59.5 32t79.5 -26t133.5 -65.5t153.5 -88t146 -97t110 -91t40.5 -68.5q-3 -36 -42 -67.5t-93 -52t-109 -26t-88 12.5q-31 15 -90 69t-123 113 t-117.5 105t-74.5 46q-20 0 -52 -43.5t-66.5 -93.5t-72 -85.5t-67.5 -18.5q-23 10 -13 50z" />
<glyph unicode="&#xcb;" horiz-adv-x="2132" d="M-6 1753.5q9 158.5 85.5 290.5t195.5 226.5t265 147t295 52.5q138 0 243 -37t184 -94.5t134.5 -132t90 -150t52 -143t25.5 -116.5q5 -10 6.5 -19t6.5 -22q15 -92 -38.5 -156t-145.5 -64q-46 0 -89.5 16.5t-79.5 47.5t-60 70.5t-32 85.5q-18 92 35.5 157.5t145.5 65.5 q54 0 105 -23q-20 69 -60 143t-107.5 133t-171.5 97.5t-252 38.5q-118 0 -198.5 -60t-128 -157.5t-61.5 -221.5t2.5 -254.5t65.5 -253.5t127 -219t184 -153.5t242 -52.5q61 0 94.5 -18t37.5 -38.5t-22 -38.5t-79 -18q-195 0 -324.5 -70.5t-202 -184t-93 -259.5t3.5 -298.5 t90.5 -298.5t166.5 -260t229.5 -184t280.5 -70q113 0 189.5 55t126.5 142t76.5 192t38 203.5t11.5 179t-2 116.5q-3 54 8.5 78t29.5 19t33.5 -39.5t20.5 -98.5q3 -41 0.5 -135.5t-20.5 -210t-55.5 -239.5t-104 -226.5t-165 -168t-236.5 -65.5q-225 0 -430 84.5t-366 229.5 t-265 338t-127 413.5t46 456t256 462.5q-179 189 -250.5 370t-62.5 339.5zM297 2811q-15 74 27 129t117 58q74 3 136.5 -50t78.5 -127q15 -74 -26 -128t-115 -56q-74 -3 -139.5 48.5t-78.5 125.5zM756 2811q-15 74 27 129t116 58t137 -50t78 -127t-26 -128t-115 -56 q-74 -3 -139 48.5t-78 125.5z" />
<glyph unicode="&#xcc;" horiz-adv-x="1205" d="M-702 3139q20 67 83 72t146.5 -27t180.5 -91t186.5 -123t162.5 -123t114 -90q23 -18 33.5 -42t8 -43.5t-18 -24.5t-46.5 16q-20 15 -94.5 42t-174 64t-209.5 82t-197.5 93.5t-138.5 97t-36 97.5zM-270 2246.5q-9 131.5 6 165.5q28 67 86 97.5t120.5 12.5t121.5 -88.5 t92 -203.5q15 -67 37 -223t50 -375t61.5 -484t74.5 -551.5t87 -579.5t100 -566t114 -511t129 -415q-97 61 -189 164q-82 87 -170.5 226.5t-157.5 344.5q-36 102 -81 284t-94.5 411t-101 491.5t-99 523.5t-87 507t-65 442t-34.5 327.5z" />
<glyph unicode="&#xcd;" horiz-adv-x="1205" d="M-391 2835.5q0 16.5 31 29.5q20 8 70 55t118 110t146 129.5t151 111t135.5 56.5t98.5 -32q51 -64 34.5 -121.5t-74 -110t-143.5 -97.5t-175.5 -81t-167.5 -62.5t-119 -39.5q-23 -8 -48.5 0t-41 22t-15.5 30.5zM-270 2246.5q-9 131.5 6 165.5q28 67 86 97.5t120.5 12.5 t121.5 -88.5t92 -203.5q15 -67 37 -223t50 -375t61.5 -484t74.5 -551.5t87 -579.5t100 -566t114 -511t129 -415q-97 61 -189 164q-82 87 -170.5 226.5t-157.5 344.5q-36 102 -81 284t-94.5 411t-101 491.5t-99 523.5t-87 507t-65 442t-34.5 327.5z" />
<glyph unicode="&#xce;" horiz-adv-x="1205" d="M-507 2732q10 40 40.5 92.5t73 111.5t87.5 109t84.5 82t59.5 32t79.5 -26t133.5 -65.5t153.5 -88t146 -97t110 -91t40.5 -68.5q-3 -36 -42 -67.5t-93 -52t-109 -26t-88 12.5q-31 15 -90 69t-123 113t-117.5 105t-74.5 46q-20 0 -52 -43.5t-66.5 -93.5t-72 -85.5 t-67.5 -18.5q-23 10 -13 50zM-270 2246.5q-9 131.5 6 165.5q28 67 86 97.5t120.5 12.5t121.5 -88.5t92 -203.5q15 -67 37 -223t50 -375t61.5 -484t74.5 -551.5t87 -579.5t100 -566t114 -511t129 -415q-97 61 -189 164q-82 87 -170.5 226.5t-157.5 344.5q-36 102 -81 284 t-94.5 411t-101 491.5t-99 523.5t-87 507t-65 442t-34.5 327.5z" />
<glyph unicode="&#xcf;" horiz-adv-x="1205" d="M-553 2770q-15 74 27 129t117 58q74 3 136.5 -50t78.5 -127q15 -74 -26 -128t-115 -56q-74 -3 -139.5 48.5t-78.5 125.5zM-270 2246.5q-9 131.5 6 165.5q28 67 86 97.5t120.5 12.5t121.5 -88.5t92 -203.5q15 -67 37 -223t50 -375t61.5 -484t74.5 -551.5t87 -579.5 t100 -566t114 -511t129 -415q-97 61 -189 164q-82 87 -170.5 226.5t-157.5 344.5q-36 102 -81 284t-94.5 411t-101 491.5t-99 523.5t-87 507t-65 442t-34.5 327.5zM-94 2770q-15 74 27 129t116 58t137 -50t78 -127t-26 -128t-115 -56q-74 -3 -139 48.5t-78 125.5z" />
<glyph unicode="&#xd0;" horiz-adv-x="2526" d="M-2013.5 2343.5q-11.5 34.5 24.5 50.5q26 10 148.5 16.5t304.5 9t406 0t454 -5.5q538 -10 1206 -28q154 0 330.5 -60t350.5 -169t332.5 -260t277.5 -330t186 -380t55.5 -413.5t-113 -427.5t-316.5 -420q-138 -133 -296.5 -203.5t-325 -93.5t-338 -5t-338.5 61 q3 -31 -8.5 -48.5t-34.5 -16.5t-51.5 26.5t-53.5 84.5q-218 72 -407.5 166.5t-332.5 181.5q-166 102 -307 208q-5 28 2 43q5 13 24.5 13t57.5 -28q28 -20 106.5 -79t198.5 -132t279 -150t348 -136q-20 79 -51 244.5t-66.5 376.5t-74 446.5t-72 454.5t-61.5 401t-43 284 q-261 0 -543 -9t-589 -9q-79 0 -169 24.5t-173 61.5t-154.5 83t-116.5 89.5t-56.5 78zM-494 835q133 -13 263.5 -12t248.5 6.5t217.5 9.5t171.5 -4q72 -5 120.5 -55t69 -108t13 -105t-48.5 -47h-172t-162.5 1t-162.5 1h-174q-110 0 -184.5 49t-117.5 107q-51 67 -82 157z M-82 2022q18 -110 50 -296.5t70.5 -410.5t79.5 -463.5t78 -453.5t67.5 -379t48.5 -242q125 -31 258.5 -48.5t279.5 -17.5q218 0 381.5 101t268.5 265t148.5 370t23 416t-106 403t-241.5 331q-138 123 -297 204t-335.5 128t-370 67.5t-403.5 25.5z" />
<glyph unicode="&#xd1;" horiz-adv-x="2378" d="M-1249.5 1841q-2.5 18 10.5 41q15 31 46 91t77 120t107.5 107.5t135.5 57.5q143 18 270 -9t235.5 -83.5t198.5 -134.5t164 -162q172 -197 292 -466q-8 238 56 427q26 79 72 156t116.5 137.5t170 97.5t235.5 37q108 0 209 -82t191.5 -223t172.5 -330t154 -401.5 t132 -440.5t108.5 -444.5t84.5 -412t56.5 -348t28 -250t0.5 -114.5q-20 -46 -79.5 -42.5t-132.5 57.5t-149.5 159t-130.5 261q-102 671 -225 1200q-54 225 -116.5 440.5t-135.5 384.5t-152.5 272.5t-166.5 103.5q-141 0 -226.5 -82t-128 -221.5t-50 -326.5t10.5 -398 t52.5 -433.5t74 -434t79 -401t66.5 -334t35 -230.5t-15 -93q-59 -15 -102.5 15.5t-84.5 83t-87 115t-113 108.5q-33 23 -69 155t-78 331.5t-93.5 445.5t-116.5 498t-147 486.5t-184.5 412.5t-228 276.5t-279.5 77.5q-54 -8 -101 -38.5t-83 -69t-62.5 -78t-39.5 -65.5 q-15 -26 -29.5 -32t-23.5 0.5t-11.5 24.5zM-116.5 2480q6.5 23 52.5 64q102 87 200.5 111.5t188.5 13t169 -46t144.5 -65.5t114 -45t74.5 17q13 15 39.5 21.5t44.5 1.5t18 -23t-41 -51q-72 -74 -138.5 -94.5t-131.5 -12t-128 36.5t-127 54q-128 49 -227.5 62t-150.5 -39 q-23 -26 -51.5 -34.5t-42.5 -1t-7.5 30.5z" />
<glyph unicode="&#xd2;" horiz-adv-x="2787" d="M-169 1505.5q41 281.5 160 490t306 330t425 121.5q159 0 315 -55t300.5 -156t275 -242t234.5 -312.5t179.5 -368.5t113.5 -409q56 -320 15.5 -600.5t-160 -489t-306 -330t-424.5 -121.5t-468.5 121.5t-422.5 330t-331.5 489t-196.5 600.5q-56 320 -15 601.5zM121.5 1367 q11.5 -248 101.5 -517q92 -266 241.5 -487.5t329 -374t372.5 -223t375 -34.5t307.5 169t184.5 333t48.5 448t-102.5 517t-242 490.5t-329 372.5t-373.5 221.5t-374.5 34.5q-182 -36 -306 -169t-184 -333t-48.5 -448zM250 2983q20 67 83 72t146.5 -27t180.5 -91t186.5 -123 t162.5 -123t114 -90q23 -18 33.5 -42t8 -43.5t-18 -24.5t-46.5 16q-20 15 -94.5 42t-174 64t-209.5 82t-197.5 93.5t-138.5 97t-36 97.5z" />
<glyph unicode="&#xd3;" horiz-adv-x="2787" d="M-169 1505.5q41 281.5 160 490t306 330t425 121.5q159 0 315 -55t300.5 -156t275 -242t234.5 -312.5t179.5 -368.5t113.5 -409q56 -320 15.5 -600.5t-160 -489t-306 -330t-424.5 -121.5t-468.5 121.5t-422.5 330t-331.5 489t-196.5 600.5q-56 320 -15 601.5zM121.5 1367 q11.5 -248 101.5 -517q92 -266 241.5 -487.5t329 -374t372.5 -223t375 -34.5t307.5 169t184.5 333t48.5 448t-102.5 517t-242 490.5t-329 372.5t-373.5 221.5t-374.5 34.5q-182 -36 -306 -169t-184 -333t-48.5 -448zM371 2625.5q0 16.5 31 29.5q20 8 70 55t118 110 t146 129.5t151 111t135.5 56.5t98.5 -32q51 -64 34.5 -121.5t-74 -110t-143.5 -97.5t-175.5 -81t-167.5 -62.5t-119 -39.5q-23 -8 -48.5 0t-41 22t-15.5 30.5z" />
<glyph unicode="&#xd4;" horiz-adv-x="2787" d="M-169 1505.5q41 281.5 160 490t306 330t425 121.5q159 0 315 -55t300.5 -156t275 -242t234.5 -312.5t179.5 -368.5t113.5 -409q56 -320 15.5 -600.5t-160 -489t-306 -330t-424.5 -121.5t-468.5 121.5t-422.5 330t-331.5 489t-196.5 600.5q-56 320 -15 601.5zM121.5 1367 q11.5 -248 101.5 -517q92 -266 241.5 -487.5t329 -374t372.5 -223t375 -34.5t307.5 169t184.5 333t48.5 448t-102.5 517t-242 490.5t-329 372.5t-373.5 221.5t-374.5 34.5q-182 -36 -306 -169t-184 -333t-48.5 -448zM338 2630q10 40 40.5 92.5t73 111.5t87.5 109t84.5 82 t59.5 32t79.5 -26t133.5 -65.5t153.5 -88t146 -97t110 -91t40.5 -68.5q-3 -36 -42 -67.5t-93 -52t-109 -26t-88 12.5q-31 15 -90 69t-123 113t-117.5 105t-74.5 46q-20 0 -52 -43.5t-66.5 -93.5t-72 -85.5t-67.5 -18.5q-23 10 -13 50z" />
<glyph unicode="&#xd5;" horiz-adv-x="2787" d="M-169 1505.5q41 281.5 160 490t306 330t425 121.5q159 0 315 -55t300.5 -156t275 -242t234.5 -312.5t179.5 -368.5t113.5 -409q56 -320 15.5 -600.5t-160 -489t-306 -330t-424.5 -121.5t-468.5 121.5t-422.5 330t-331.5 489t-196.5 600.5q-56 320 -15 601.5zM121.5 1367 q11.5 -248 101.5 -517q92 -266 241.5 -487.5t329 -374t372.5 -223t375 -34.5t307.5 169t184.5 333t48.5 448t-102.5 517t-242 490.5t-329 372.5t-373.5 221.5t-374.5 34.5q-182 -36 -306 -169t-184 -333t-48.5 -448zM167.5 2675q6.5 23 52.5 64q102 87 200.5 111.5t188.5 13 t169 -46t144.5 -65.5t114 -45t74.5 17q13 15 39.5 21.5t44.5 1.5t18 -23t-41 -51q-72 -74 -138.5 -94.5t-131.5 -12t-128 36.5t-127 54q-128 49 -227.5 62t-150.5 -39q-23 -26 -51.5 -34.5t-42.5 -1t-7.5 30.5z" />
<glyph unicode="&#xd6;" horiz-adv-x="2787" d="M-169 1505.5q41 281.5 160 490t306 330t425 121.5q159 0 315 -55t300.5 -156t275 -242t234.5 -312.5t179.5 -368.5t113.5 -409q56 -320 15.5 -600.5t-160 -489t-306 -330t-424.5 -121.5t-468.5 121.5t-422.5 330t-331.5 489t-196.5 600.5q-56 320 -15 601.5zM121.5 1367 q11.5 -248 101.5 -517q92 -266 241.5 -487.5t329 -374t372.5 -223t375 -34.5t307.5 169t184.5 333t48.5 448t-102.5 517t-242 490.5t-329 372.5t-373.5 221.5t-374.5 34.5q-182 -36 -306 -169t-184 -333t-48.5 -448zM268 2778q-15 74 27 129t117 58q74 3 136.5 -50 t78.5 -127q15 -74 -26 -128t-115 -56q-74 -3 -139.5 48.5t-78.5 125.5zM727 2778q-15 74 27 129t116 58t137 -50t78 -127t-26 -128t-115 -56q-74 -3 -139 48.5t-78 125.5z" />
<glyph unicode="&#xd7;" horiz-adv-x="1167" d="M-69 399q87 84 161 176.5t139.5 181t120.5 161.5t101 119t111.5 38.5t119 -41t83 -78.5t6.5 -73q-54 -64 -101 -121.5t-96 -114t-97.5 -115t-102.5 -122.5q-64 -79 -140.5 -89.5t-143.5 7.5q-79 20 -161 71zM-60 945q-4 64 20.5 111t65.5 69t74 -6q74 -64 142 -121.5 t134.5 -115.5t135.5 -118t146 -124q92 -77 116.5 -156.5t19.5 -145.5q-8 -77 -46 -149q-100 102 -209 193.5t-211.5 172t-188 149.5t-139.5 123q-56 54 -60 118z" />
<glyph unicode="&#xd8;" horiz-adv-x="2787" d="M-169 1505.5q41 281.5 160 490t306 330t425 121.5q159 0 315 -55t300.5 -156t275 -242t234.5 -312.5t179.5 -368.5t113.5 -409q56 -320 15.5 -600.5t-160 -489t-306 -330t-424.5 -121.5t-468.5 121.5t-422.5 330t-331.5 489t-196.5 600.5q-56 320 -15 601.5zM121.5 1367 q11.5 -248 101.5 -517q92 -266 241.5 -487.5t329 -374t372.5 -223t375 -34.5t307.5 169t184.5 333t48.5 448t-102.5 517t-242 490.5t-329 372.5t-373.5 221.5t-374.5 34.5q-182 -36 -306 -169t-184 -333t-48.5 -448zM356 -463q192 351 374.5 706.5t345 682t299.5 602 t245 464.5q102 188 169.5 278.5t93.5 100.5t12 -53t-75 -176q-124 -242 -236.5 -463.5t-227 -440.5t-231.5 -446t-244 -476q-155 -297 -253.5 -455.5t-160.5 -229.5q-74 -87 -111 -94z" />
<glyph unicode="&#xd9;" horiz-adv-x="2304" d="M-376 2071q-8 38 16.5 101t65.5 124.5t93.5 112.5t101 67.5t88 -14t57.5 -130.5q8 -38 24.5 -185.5t47 -363.5t77 -478.5t111.5 -531.5t153.5 -522.5t201 -449t253.5 -314.5t312 -119q138 0 229 82t145 224t74.5 330t19 400.5t-23 439t-51 441.5t-64 409.5t-65.5 343 t-51.5 241t-22.5 104.5q-5 31 2.5 44t20.5 10.5t24.5 -17t16.5 -37.5q3 -8 27 -109t60 -266t76.5 -384t75.5 -462t59 -499t24 -496.5t-29.5 -455.5t-99.5 -375t-188 -253.5t-292 -93.5q-220 0 -396.5 97t-320 263.5t-253.5 389.5t-196 471t-148.5 510.5t-110 509.5 t-82 464.5t-62.5 376.5zM99 3085q20 67 83 72t146.5 -27t180.5 -91t186.5 -123t162.5 -123t114 -90q23 -18 33.5 -42t8 -43.5t-18 -24.5t-46.5 16q-20 15 -94.5 42t-174 64t-209.5 82t-197.5 93.5t-138.5 97t-36 97.5z" />
<glyph unicode="&#xda;" horiz-adv-x="2304" d="M-376 2071q-8 38 16.5 101t65.5 124.5t93.5 112.5t101 67.5t88 -14t57.5 -130.5q8 -38 24.5 -185.5t47 -363.5t77 -478.5t111.5 -531.5t153.5 -522.5t201 -449t253.5 -314.5t312 -119q138 0 229 82t145 224t74.5 330t19 400.5t-23 439t-51 441.5t-64 409.5t-65.5 343 t-51.5 241t-22.5 104.5q-5 31 2.5 44t20.5 10.5t24.5 -17t16.5 -37.5q3 -8 27 -109t60 -266t76.5 -384t75.5 -462t59 -499t24 -496.5t-29.5 -455.5t-99.5 -375t-188 -253.5t-292 -93.5q-220 0 -396.5 97t-320 263.5t-253.5 389.5t-196 471t-148.5 510.5t-110 509.5 t-82 464.5t-62.5 376.5zM284 2656.5q0 16.5 31 29.5q20 8 70 55t118 110t146 129.5t151 111t135.5 56.5t98.5 -32q51 -64 34.5 -121.5t-74 -110t-143.5 -97.5t-175.5 -81t-167.5 -62.5t-119 -39.5q-23 -8 -48.5 0t-41 22t-15.5 30.5z" />
<glyph unicode="&#xdb;" horiz-adv-x="2304" d="M-376 2071q-8 38 16.5 101t65.5 124.5t93.5 112.5t101 67.5t88 -14t57.5 -130.5q8 -38 24.5 -185.5t47 -363.5t77 -478.5t111.5 -531.5t153.5 -522.5t201 -449t253.5 -314.5t312 -119q138 0 229 82t145 224t74.5 330t19 400.5t-23 439t-51 441.5t-64 409.5t-65.5 343 t-51.5 241t-22.5 104.5q-5 31 2.5 44t20.5 10.5t24.5 -17t16.5 -37.5q3 -8 27 -109t60 -266t76.5 -384t75.5 -462t59 -499t24 -496.5t-29.5 -455.5t-99.5 -375t-188 -253.5t-292 -93.5q-220 0 -396.5 97t-320 263.5t-253.5 389.5t-196 471t-148.5 510.5t-110 509.5 t-82 464.5t-62.5 376.5zM182 2763q10 40 40.5 92.5t73 111.5t87.5 109t84.5 82t59.5 32t79.5 -26t133.5 -65.5t153.5 -88t146 -97t110 -91t40.5 -68.5q-3 -36 -42 -67.5t-93 -52t-109 -26t-88 12.5q-31 15 -90 69t-123 113t-117.5 105t-74.5 46q-20 0 -52 -43.5t-66.5 -93.5 t-72 -85.5t-67.5 -18.5q-23 10 -13 50z" />
<glyph unicode="&#xdc;" horiz-adv-x="2304" d="M-376 2071q-8 38 16.5 101t65.5 124.5t93.5 112.5t101 67.5t88 -14t57.5 -130.5q8 -38 24.5 -185.5t47 -363.5t77 -478.5t111.5 -531.5t153.5 -522.5t201 -449t253.5 -314.5t312 -119q138 0 229 82t145 224t74.5 330t19 400.5t-23 439t-51 441.5t-64 409.5t-65.5 343 t-51.5 241t-22.5 104.5q-5 31 2.5 44t20.5 10.5t24.5 -17t16.5 -37.5q3 -8 27 -109t60 -266t76.5 -384t75.5 -462t59 -499t24 -496.5t-29.5 -455.5t-99.5 -375t-188 -253.5t-292 -93.5q-220 0 -396.5 97t-320 263.5t-253.5 389.5t-196 471t-148.5 510.5t-110 509.5 t-82 464.5t-62.5 376.5zM202 2755q-15 74 27 129t117 58q74 3 136.5 -50t78.5 -127q15 -74 -26 -128t-115 -56q-74 -3 -139.5 48.5t-78.5 125.5zM661 2755q-15 74 27 129t116 58t137 -50t78 -127t-26 -128t-115 -56q-74 -3 -139 48.5t-78 125.5z" />
<glyph unicode="&#xdd;" horiz-adv-x="2521" d="M-409.5 2451q-0.5 25 16.5 33.5t46.5 0t62.5 -39.5q26 -23 92.5 -116.5t158.5 -232t200.5 -307.5t221.5 -344t221.5 -345.5t198.5 -311t152.5 -236.5t85.5 -124q28 422 91 731.5t146 528.5t177.5 357.5t189.5 220.5t180.5 116.5t149.5 44.5q97 15 159 8.5t86 -27 t12.5 -48.5t-57.5 -59q-115 -15 -213.5 -121t-182 -276.5t-150 -392t-121.5 -467t-98.5 -504t-76.5 -503t-59 -462.5t-43.5 -384t-32 -266t-24.5 -110q-26 -23 -75.5 -29.5t-102 -2.5t-97.5 16.5t-63 30.5q-10 8 -7.5 77t14 175t28 239.5t34.5 271.5q44 323 105 724 q-374 553 -673 999q-128 189 -252 373.5t-224 334t-168 248.5t-80 116q-28 38 -28.5 63zM402 2031.5q0 16.5 31 29.5q20 8 70 55t118 110t146 129.5t151 111t135.5 56.5t98.5 -32q51 -64 34.5 -121.5t-74 -110t-143.5 -97.5t-175.5 -81t-167.5 -62.5t-119 -39.5 q-23 -8 -48.5 0t-41 22t-15.5 30.5z" />
<glyph unicode="&#xde;" horiz-adv-x="1694" d="M-189.5 1552.5q-5.5 259.5 16.5 490t79.5 403.5t156 274t249.5 101q108 0 155.5 -83t51 -219t-27 -307.5t-78 -350.5t-105 -349.5t-106.5 -300.5q18 -102 37.5 -197t36.5 -177q15 102 48.5 216t92.5 210t151 157.5t228 61.5q143 0 251 -52.5t178 -135.5t104.5 -188 t31 -210t-44.5 -199.5t-123 -158.5q-95 -77 -215 -115.5t-238 -54t-221.5 -14t-165.5 6.5q0 -26 11.5 -99t28.5 -170t34.5 -206t33 -208.5t23.5 -176.5t5 -110q-8 -79 -31 -128t-55 -73.5t-70.5 -28t-73.5 9.5q-26 8 -68.5 116.5t-89.5 286.5t-97 412t-91 495t-69 536.5 t-33.5 535zM96 2291q-6 -128 3 -275t29 -307t46 -316q49 141 95 294.5t82 300.5t57.5 279t21.5 233t-23 160t-77 59q-79 0 -127.5 -55t-74.5 -150t-32 -223zM302 707q15 -77 25.5 -137.5t15.5 -98.5q38 -13 90.5 -22t111.5 -9t120.5 17t115.5 58q51 38 88 107t55 149.5 t17 166.5t-25.5 161.5t-74.5 129.5t-124 71q-61 15 -112.5 -10t-94 -76.5t-77 -119t-60 -138t-43.5 -137t-28 -112.5z" />
<glyph unicode="&#xdf;" horiz-adv-x="1707" d="M-164 1153q13 188 77 336.5t192 242t335 98.5q279 8 473.5 -57t312.5 -179t165.5 -261.5t29.5 -299.5t-93.5 -299.5t-201.5 -259.5q141 -59 228 -155t115.5 -203.5t-6.5 -211.5t-134.5 -175.5t-267.5 -98.5t-406 19q-44 15 -61.5 33t-11 31t32 19.5t69.5 3.5 q41 -5 121.5 4t157 43.5t125.5 103.5t28 190q-20 120 -76.5 176.5t-122 75.5t-126.5 15t-95 -4q-33 0 -53.5 10.5t-27 23.5t7.5 25.5t50 17.5q18 3 66.5 59t107.5 147t115.5 205t91 234.5t34.5 234.5t-54 202t-174 143t-328 55q-118 0 -185.5 -53.5t-95.5 -143t-25.5 -207.5 t23 -248.5t51 -263.5t60 -252t47.5 -218t15 -157q-8 -120 -30.5 -214t-56 -155t-75.5 -86.5t-86 -5.5q-23 10 -69 106t-96 246t-96 339t-68 385t-9 384z" />
<glyph unicode="&#xe0;" horiz-adv-x="1822" d="M-92 549q0 111 34.5 225t111.5 219q82 113 183 169.5t206 76.5q95 18 182 11.5t152 -24.5t99.5 -42t24.5 -42q-13 -20 -28 -18t-43.5 13.5t-75.5 24.5t-124 13q-72 0 -140 -32t-124 -87t-93 -129.5t-48 -155.5q-15 -123 13 -216.5t75.5 -159t106.5 -98.5t105 -33 q84 0 131.5 51t70.5 126.5t30.5 164t14 164t18 125.5t45.5 50q33 0 72.5 -55t87 -136t100 -177t112.5 -176.5t124 -135.5t133 -55q51 0 91 21.5t68 50.5q31 31 54 71l61 100q3 10 13 16.5t23 6.5q36 0 41 -36q0 -3 -14 -36t-43.5 -83t-74.5 -107.5t-103.5 -106t-131.5 -82 t-160 -33.5q-92 0 -175.5 60.5t-148.5 134.5t-106 137t-46 70q-3 -8 -28.5 -70.5t-77 -136.5t-128 -134.5t-181.5 -60.5q-113 0 -204 45t-153.5 122t-97 178t-34.5 212zM-87 1915q20 67 83 72t146.5 -27t180.5 -91t186.5 -123t162.5 -123t114 -90q23 -18 33.5 -42t8 -43.5 t-18 -24.5t-46.5 16q-20 15 -94.5 42t-174 64t-209.5 82t-197.5 93.5t-138.5 97t-36 97.5z" />
<glyph unicode="&#xe1;" horiz-adv-x="1822" d="M-92 549q0 111 34.5 225t111.5 219q82 113 183 169.5t206 76.5q95 18 182 11.5t152 -24.5t99.5 -42t24.5 -42q-13 -20 -28 -18t-43.5 13.5t-75.5 24.5t-124 13q-72 0 -140 -32t-124 -87t-93 -129.5t-48 -155.5q-15 -123 13 -216.5t75.5 -159t106.5 -98.5t105 -33 q84 0 131.5 51t70.5 126.5t30.5 164t14 164t18 125.5t45.5 50q33 0 72.5 -55t87 -136t100 -177t112.5 -176.5t124 -135.5t133 -55q51 0 91 21.5t68 50.5q31 31 54 71l61 100q3 10 13 16.5t23 6.5q36 0 41 -36q0 -3 -14 -36t-43.5 -83t-74.5 -107.5t-103.5 -106t-131.5 -82 t-160 -33.5q-92 0 -175.5 60.5t-148.5 134.5t-106 137t-46 70q-3 -8 -28.5 -70.5t-77 -136.5t-128 -134.5t-181.5 -60.5q-113 0 -204 45t-153.5 122t-97 178t-34.5 212zM149 1519.5q0 16.5 31 29.5q20 8 70 55t118 110t146 129.5t151 111t135.5 56.5t98.5 -32 q51 -64 34.5 -121.5t-74 -110t-143.5 -97.5t-175.5 -81t-167.5 -62.5t-119 -39.5q-23 -8 -48.5 0t-41 22t-15.5 30.5z" />
<glyph unicode="&#xe2;" horiz-adv-x="1822" d="M-92 549q0 111 34.5 225t111.5 219q82 113 183 169.5t206 76.5q95 18 182 11.5t152 -24.5t99.5 -42t24.5 -42q-13 -20 -28 -18t-43.5 13.5t-75.5 24.5t-124 13q-72 0 -140 -32t-124 -87t-93 -129.5t-48 -155.5q-15 -123 13 -216.5t75.5 -159t106.5 -98.5t105 -33 q84 0 131.5 51t70.5 126.5t30.5 164t14 164t18 125.5t45.5 50q33 0 72.5 -55t87 -136t100 -177t112.5 -176.5t124 -135.5t133 -55q51 0 91 21.5t68 50.5q31 31 54 71l61 100q3 10 13 16.5t23 6.5q36 0 41 -36q0 -3 -14 -36t-43.5 -83t-74.5 -107.5t-103.5 -106t-131.5 -82 t-160 -33.5q-92 0 -175.5 60.5t-148.5 134.5t-106 137t-46 70q-3 -8 -28.5 -70.5t-77 -136.5t-128 -134.5t-181.5 -60.5q-113 0 -204 45t-153.5 122t-97 178t-34.5 212zM59 1542q10 40 40.5 92.5t73 111.5t87.5 109t84.5 82t59.5 32t79.5 -26t133.5 -65.5t153.5 -88t146 -97 t110 -91t40.5 -68.5q-3 -36 -42 -67.5t-93 -52t-109 -26t-88 12.5q-31 15 -90 69t-123 113t-117.5 105t-74.5 46q-20 0 -52 -43.5t-66.5 -93.5t-72 -85.5t-67.5 -18.5q-23 10 -13 50z" />
<glyph unicode="&#xe3;" horiz-adv-x="1822" d="M-92 549q0 111 34.5 225t111.5 219q82 113 183 169.5t206 76.5q95 18 182 11.5t152 -24.5t99.5 -42t24.5 -42q-13 -20 -28 -18t-43.5 13.5t-75.5 24.5t-124 13q-72 0 -140 -32t-124 -87t-93 -129.5t-48 -155.5q-15 -123 13 -216.5t75.5 -159t106.5 -98.5t105 -33 q84 0 131.5 51t70.5 126.5t30.5 164t14 164t18 125.5t45.5 50q33 0 72.5 -55t87 -136t100 -177t112.5 -176.5t124 -135.5t133 -55q51 0 91 21.5t68 50.5q31 31 54 71l61 100q3 10 13 16.5t23 6.5q36 0 41 -36q0 -3 -14 -36t-43.5 -83t-74.5 -107.5t-103.5 -106t-131.5 -82 t-160 -33.5q-92 0 -175.5 60.5t-148.5 134.5t-106 137t-46 70q-3 -8 -28.5 -70.5t-77 -136.5t-128 -134.5t-181.5 -60.5q-113 0 -204 45t-153.5 122t-97 178t-34.5 212zM-21.5 1592q6.5 23 52.5 64q102 87 200.5 111.5t188.5 13t169 -46t144.5 -65.5t114 -45t74.5 17 q13 15 39.5 21.5t44.5 1.5t18 -23t-41 -51q-72 -74 -138.5 -94.5t-131.5 -12t-128 36.5t-127 54q-128 49 -227.5 62t-150.5 -39q-23 -26 -51.5 -34.5t-42.5 -1t-7.5 30.5z" />
<glyph unicode="&#xe4;" horiz-adv-x="1822" d="M-92 549q0 111 34.5 225t111.5 219q82 113 183 169.5t206 76.5q95 18 182 11.5t152 -24.5t99.5 -42t24.5 -42q-13 -20 -28 -18t-43.5 13.5t-75.5 24.5t-124 13q-72 0 -140 -32t-124 -87t-93 -129.5t-48 -155.5q-15 -123 13 -216.5t75.5 -159t106.5 -98.5t105 -33 q84 0 131.5 51t70.5 126.5t30.5 164t14 164t18 125.5t45.5 50q33 0 72.5 -55t87 -136t100 -177t112.5 -176.5t124 -135.5t133 -55q51 0 91 21.5t68 50.5q31 31 54 71l61 100q3 10 13 16.5t23 6.5q36 0 41 -36q0 -3 -14 -36t-43.5 -83t-74.5 -107.5t-103.5 -106t-131.5 -82 t-160 -33.5q-92 0 -175.5 60.5t-148.5 134.5t-106 137t-46 70q-3 -8 -28.5 -70.5t-77 -136.5t-128 -134.5t-181.5 -60.5q-113 0 -204 45t-153.5 122t-97 178t-34.5 212zM56 1654q-15 74 27 129t117 58q74 3 136.5 -50t78.5 -127q15 -74 -26 -128t-115 -56 q-74 -3 -139.5 48.5t-78.5 125.5zM515 1654q-15 74 27 129t116 58t137 -50t78 -127t-26 -128t-115 -56q-74 -3 -139 48.5t-78 125.5z" />
<glyph unicode="&#xe5;" horiz-adv-x="1822" d="M-92 549q0 111 34.5 225t111.5 219q82 113 183 169.5t206 76.5q95 18 182 11.5t152 -24.5t99.5 -42t24.5 -42q-13 -20 -28 -18t-43.5 13.5t-75.5 24.5t-124 13q-72 0 -140 -32t-124 -87t-93 -129.5t-48 -155.5q-15 -123 13 -216.5t75.5 -159t106.5 -98.5t105 -33 q84 0 131.5 51t70.5 126.5t30.5 164t14 164t18 125.5t45.5 50q33 0 72.5 -55t87 -136t100 -177t112.5 -176.5t124 -135.5t133 -55q51 0 91 21.5t68 50.5q31 31 54 71l61 100q3 10 13 16.5t23 6.5q36 0 41 -36q0 -3 -14 -36t-43.5 -83t-74.5 -107.5t-103.5 -106t-131.5 -82 t-160 -33.5q-92 0 -175.5 60.5t-148.5 134.5t-106 137t-46 70q-3 -8 -28.5 -70.5t-77 -136.5t-128 -134.5t-181.5 -60.5q-113 0 -204 45t-153.5 122t-97 178t-34.5 212zM349 1692q-10 54 2.5 102.5t42 85.5t74 57.5t98.5 20.5t106.5 -20.5t94.5 -57.5t71.5 -85.5 t39.5 -102.5t-2.5 -102.5t-43 -85.5t-75.5 -57.5t-99 -20.5t-105 20.5t-93 57.5t-71.5 85.5t-39.5 102.5zM538 1672q13 -72 64 -122t110 -50t92.5 50t20.5 122t-63 121.5t-109 49.5t-92 -49.5t-23 -121.5z" />
<glyph unicode="&#xe6;" horiz-adv-x="2170" d="M-110 549q0 111 34.5 225t111.5 219q82 113 183 169.5t206 76.5q95 18 162.5 19.5t108.5 -9t56.5 -28.5t5.5 -36q-13 -20 -28.5 -25t-34.5 -2.5t-39.5 8.5t-43.5 9q-72 5 -141 -25.5t-124 -88t-92 -133.5t-48 -157q-15 -123 13 -216.5t75.5 -159t106.5 -98.5t105 -33 q84 0 131.5 51t70.5 126.5t31 164t14 164t17.5 125.5t45.5 50l-23 -548q-41 -115 -100 -202q-51 -77 -129.5 -140t-185.5 -63q-113 0 -204 45t-153.5 122t-97 178t-34.5 212zM694 617q-18 100 1 215t76.5 213.5t157.5 164t246 65.5q118 0 196 -34.5t123 -88.5t62.5 -118 t17.5 -123q-3 -64 -37 -139.5t-83 -149.5t-104 -143t-101 -121q67 -82 151.5 -133t186.5 -51q72 0 156 31q69 28 159 88t179 183q10 23 24.5 25.5t26 -7.5t16.5 -25.5t0 -25.5q-5 -13 -70.5 -84.5t-170.5 -153.5t-242 -147.5t-285 -65.5q-151 0 -270 61.5t-206 154 t-139.5 202.5t-70.5 207zM1047 929q0 -115 38.5 -249.5t110.5 -249.5q46 46 98.5 106t98.5 125.5t75.5 131t29.5 121.5q-3 79 -27.5 134t-64 88.5t-89.5 49t-101 15.5q-87 0 -128 -78.5t-41 -193.5z" />
<glyph unicode="&#xe7;" horiz-adv-x="1336" d="M-136 617q-18 100 1.5 215t77 213.5t157.5 164t246 65.5q82 0 154.5 -25.5t130.5 -68t96 -96t54 -110.5q10 -41 14 -82t-4 -76.5t-27 -62.5t-50 -42q-26 -18 -61 -18q-59 0 -107.5 39.5t-59.5 98.5q-10 59 23.5 100t92.5 41q51 0 99 -36q-8 26 -25.5 69.5t-53.5 85.5 t-95 74t-148 32q-87 0 -127 -75.5t-40 -189.5t38.5 -247t110.5 -247t171.5 -189.5t225.5 -75.5q72 0 156 31q69 28 158.5 88t179.5 183q10 23 24 25.5t25.5 -7.5t17 -25.5t-0.5 -25.5q-5 -13 -70 -84.5t-170 -153.5t-242 -147.5t-286 -65.5q-151 0 -270 61.5t-206 154 t-139.5 202.5t-70.5 207zM431.5 -384q1.5 13 16.5 14t33 -2.5t18 -8.5q0 -3 25.5 -12t64 -16.5t83.5 -11.5t83.5 5t64 33.5t25.5 70.5q0 69 -36 87t-84.5 16.5t-96 -9t-67.5 10.5t-16.5 56t16 80.5t26 78t10.5 48.5q-5 13 26.5 17t70.5 6q46 3 105 0q-23 -38 -36 -71 q-13 -28 -19.5 -60t6.5 -53q8 -15 28.5 -7.5t48.5 20.5t60 23t61.5 -1.5t56.5 -50t45 -122.5t-14 -135.5t-90 -78.5t-133.5 -33.5t-147 1.5t-128 24.5t-76.5 36.5q-31 31 -29.5 44z" />
<glyph unicode="&#xe8;" horiz-adv-x="1336" d="M-328 1915q20 67 83 72t146.5 -27t180.5 -91t186.5 -123t162.5 -123t114 -90q23 -18 33.5 -42t8 -43.5t-18 -24.5t-46.5 16q-20 15 -94.5 42t-174 64t-209.5 82t-197.5 93.5t-138.5 97t-36 97.5zM-133 617q-18 100 1 215t77 213.5t157.5 164t245.5 65.5q118 0 196 -34.5 t123 -88.5t63 -118t18 -123q-3 -64 -37.5 -139.5t-83 -149.5t-104 -143t-101.5 -121q67 -82 151.5 -133t186.5 -51q72 0 156 31q69 28 159 88t179 183q10 23 24.5 25.5t26 -7.5t16.5 -25.5t0 -25.5q-5 -13 -70.5 -84.5t-170.5 -153.5t-242 -147.5t-285 -65.5 q-151 0 -270 61.5t-206 154t-139.5 202.5t-70.5 207zM220 929q0 -115 38.5 -249.5t110.5 -249.5q46 46 98.5 106t98.5 125.5t75.5 131t29.5 121.5q-3 79 -27 134t-64 88.5t-90 49t-101 15.5q-87 0 -128 -78.5t-41 -193.5z" />
<glyph unicode="&#xe9;" horiz-adv-x="1336" d="M-133 617q-18 100 1 215t77 213.5t157.5 164t245.5 65.5q118 0 196 -34.5t123 -88.5t63 -118t18 -123q-3 -64 -37.5 -139.5t-83 -149.5t-104 -143t-101.5 -121q67 -82 151.5 -133t186.5 -51q72 0 156 31q69 28 159 88t179 183q10 23 24.5 25.5t26 -7.5t16.5 -25.5 t0 -25.5q-5 -13 -70.5 -84.5t-170.5 -153.5t-242 -147.5t-285 -65.5q-151 0 -270 61.5t-206 154t-139.5 202.5t-70.5 207zM-95 1519.5q0 16.5 31 29.5q20 8 70 55t118 110t146 129.5t151 111t135.5 56.5t98.5 -32q51 -64 34.5 -121.5t-74 -110t-143.5 -97.5t-175.5 -81 t-167.5 -62.5t-119 -39.5q-23 -8 -48.5 0t-41 22t-15.5 30.5zM220 929q0 -115 38.5 -249.5t110.5 -249.5q46 46 98.5 106t98.5 125.5t75.5 131t29.5 121.5q-3 79 -27 134t-64 88.5t-90 49t-101 15.5q-87 0 -128 -78.5t-41 -193.5z" />
<glyph unicode="&#xea;" horiz-adv-x="1336" d="M-179 1542q10 40 40.5 92.5t73 111.5t87.5 109t84.5 82t59.5 32t79.5 -26t133.5 -65.5t153.5 -88t146 -97t110 -91t40.5 -68.5q-3 -36 -42 -67.5t-93 -52t-109 -26t-88 12.5q-31 15 -90 69t-123 113t-117.5 105t-74.5 46q-20 0 -52 -43.5t-66.5 -93.5t-72 -85.5 t-67.5 -18.5q-23 10 -13 50zM-133 617q-18 100 1 215t77 213.5t157.5 164t245.5 65.5q118 0 196 -34.5t123 -88.5t63 -118t18 -123q-3 -64 -37.5 -139.5t-83 -149.5t-104 -143t-101.5 -121q67 -82 151.5 -133t186.5 -51q72 0 156 31q69 28 159 88t179 183q10 23 24.5 25.5 t26 -7.5t16.5 -25.5t0 -25.5q-5 -13 -70.5 -84.5t-170.5 -153.5t-242 -147.5t-285 -65.5q-151 0 -270 61.5t-206 154t-139.5 202.5t-70.5 207zM220 929q0 -115 38.5 -249.5t110.5 -249.5q46 46 98.5 106t98.5 125.5t75.5 131t29.5 121.5q-3 79 -27 134t-64 88.5t-90 49 t-101 15.5q-87 0 -128 -78.5t-41 -193.5z" />
<glyph unicode="&#xeb;" horiz-adv-x="1336" d="M-185 1654q-15 74 27 129t117 58q74 3 136.5 -50t78.5 -127q15 -74 -26 -128t-115 -56q-74 -3 -139.5 48.5t-78.5 125.5zM-133 617q-18 100 1 215t77 213.5t157.5 164t245.5 65.5q118 0 196 -34.5t123 -88.5t63 -118t18 -123q-3 -64 -37.5 -139.5t-83 -149.5t-104 -143 t-101.5 -121q67 -82 151.5 -133t186.5 -51q72 0 156 31q69 28 159 88t179 183q10 23 24.5 25.5t26 -7.5t16.5 -25.5t0 -25.5q-5 -13 -70.5 -84.5t-170.5 -153.5t-242 -147.5t-285 -65.5q-151 0 -270 61.5t-206 154t-139.5 202.5t-70.5 207zM220 929q0 -115 38.5 -249.5 t110.5 -249.5q46 46 98.5 106t98.5 125.5t75.5 131t29.5 121.5q-3 79 -27 134t-64 88.5t-90 49t-101 15.5q-87 0 -128 -78.5t-41 -193.5zM274 1654q-15 74 27 129t116 58t137 -50t78 -127t-26 -128t-115 -56q-74 -3 -139 48.5t-78 125.5z" />
<glyph unicode="&#xec;" horiz-adv-x="1221" d="M-387 1915q20 67 83 72t146.5 -27t180.5 -91t187 -123t162.5 -123t113.5 -90q23 -18 33.5 -42t8 -43.5t-18 -24.5t-46.5 16q-20 15 -94.5 42t-174 64t-209.5 82t-197.5 93.5t-138.5 97t-36 97.5zM-110 376.5q-8 12.5 0 30.5q79 141 126.5 296t91 285.5t100 216 t153.5 85.5q41 0 71.5 -46t52.5 -123t40 -173t36 -198t38.5 -198t48.5 -173t65 -123t88 -46t101 21.5t89 50.5q46 31 87 71l59 100q3 10 12.5 16.5t22.5 6.5q36 0 41 -36q0 -3 -16.5 -36t-49.5 -83t-82 -107.5t-110.5 -106t-137 -82t-162.5 -33.5q-125 0 -207 65.5 t-132 161.5t-77 210t-41 210t-23 161t-24 65q-20 -64 -49.5 -146t-58 -154.5t-50 -126.5t-24.5 -62q-10 -18 -26.5 -21.5t-30.5 3t-22 19z" />
<glyph unicode="&#xed;" horiz-adv-x="1221" d="M-156 1519.5q0 16.5 31 29.5q20 8 70 55t118 110t146 129.5t151 111t135.5 56.5t98.5 -32q51 -64 34.5 -121.5t-74 -110t-143.5 -97.5t-175.5 -81t-167.5 -62.5t-119 -39.5q-23 -8 -48.5 0t-41 22t-15.5 30.5zM-110 376.5q-8 12.5 0 30.5q79 141 126.5 296t91 285.5 t100 216t153.5 85.5q41 0 71.5 -46t52.5 -123t40 -173t36 -198t38.5 -198t48.5 -173t65 -123t88 -46t101 21.5t89 50.5q46 31 87 71l59 100q3 10 12.5 16.5t22.5 6.5q36 0 41 -36q0 -3 -16.5 -36t-49.5 -83t-82 -107.5t-110.5 -106t-137 -82t-162.5 -33.5q-125 0 -207 65.5 t-132 161.5t-77 210t-41 210t-23 161t-24 65q-20 -64 -49.5 -146t-58 -154.5t-50 -126.5t-24.5 -62q-10 -18 -26.5 -21.5t-30.5 3t-22 19z" />
<glyph unicode="&#xee;" horiz-adv-x="1221" d="M-110 376.5q8 -12.5 22 -19t30.5 -3t26.5 21.5q3 8 24.5 62t50 126.5t58 154.5t49.5 146q15 0 24 -65t23 -161t41 -210t77 -210t132 -161.5t207 -65.5q87 0 162.5 33.5t137 82t110.5 106t82 107.5t49.5 83.5t16.5 35.5q-5 36 -41 36q-13 0 -23 -6.5t-12 -16.5l-59 -100 q-41 -41 -87 -71q-38 -28 -88.5 -50t-101.5 -22t-88 46t-65 123t-48.5 173t-38.5 198t-36 198t-40 173t-52.5 123t-71.5 46q-97 0 -153.5 -85.5t-100 -216t-91 -285.5t-126.5 -296q-8 -18 0 -30.5zM-110 1542q10 40 41 92.5t73 111.5t87 109t84.5 82t60.5 32q20 0 79 -26 t133 -65.5t153.5 -88t146 -97t110.5 -91t41 -68.5q-3 -36 -42.5 -67.5t-93.5 -52t-109 -26t-88 12.5q-31 15 -90 69t-123 113t-117.5 105t-74.5 46q-20 0 -52 -43.5t-66.5 -93.5t-72 -85.5t-67.5 -18.5q-23 10 -13 50z" />
<glyph unicode="&#xef;" horiz-adv-x="1221" d="M-172 1654q-15 74 27.5 129t116.5 58t137 -50t78 -127t-26 -128t-115 -56q-74 -3 -139.5 48.5t-78.5 125.5zM-110 376.5q-8 12.5 0 30.5q79 141 126.5 296t91 285.5t100 216t153.5 85.5q41 0 71.5 -46t52.5 -123t40 -173t36 -198t38.5 -198t48.5 -173t65 -123t88 -46 t101 21.5t89 50.5q46 31 87 71l59 100q3 10 12.5 16.5t22.5 6.5q36 0 41 -36q0 -3 -16.5 -36t-49.5 -83t-82 -107.5t-110.5 -106t-137 -82t-162.5 -33.5q-125 0 -207 65.5t-132 161.5t-77 210t-41 210t-23 161t-24 65q-20 -64 -49.5 -146t-58 -154.5t-50 -126.5t-24.5 -62 q-10 -18 -26.5 -21.5t-30.5 3t-22 19zM287 1654q-15 74 27 129t116 58t137 -50t78 -127t-25.5 -128t-115.5 -56q-74 -3 -139 48.5t-78 125.5z" />
<glyph unicode="&#xf0;" horiz-adv-x="1482" d="M-97 604q-20 115 2.5 216.5t80.5 182t147 133t202 70.5l-61.5 61.5t-61.5 58.5l-107 -36q-23 -8 -48.5 0t-41 22t-15.5 30.5t28 29.5q20 8 82 64q-100 102 -141 174q-51 84 -52 155t23 120.5t62.5 74t69.5 16.5q23 -5 108.5 -88t200.5 -206q54 44 109 81t104 56 t88.5 16.5t65.5 -33.5q38 -46 38 -90.5t-28 -85.5t-78 -79.5t-112 -71.5q69 -77 136 -155t125.5 -150t107.5 -132t82 -101q131 -148 164 -333q23 -125 -8 -235t-104 -193.5t-181.5 -131t-241.5 -47.5t-257.5 47.5t-225.5 131t-170 193.5t-92 235zM-20 653q8 -92 42 -178 t90.5 -152.5t128.5 -110t151 -53.5q77 -8 144.5 19t115 80.5t72 131.5t16.5 171q-5 92 -57.5 189t-111.5 179q-69 95 -159 185q-84 13 -165 -23t-143.5 -102.5t-97 -155t-26.5 -180.5z" />
<glyph unicode="&#xf1;" horiz-adv-x="1843" d="M-261 1037q3 49 18 95t48.5 81.5t87 57.5t135.5 22q97 0 140.5 -50t51.5 -130.5t-14 -179t-58 -198.5q49 -77 103 -147.5t102.5 -124t88 -87t60.5 -33.5q23 0 41 70.5t35.5 175.5t37 228t44 227.5t59 175t80.5 70.5q56 0 110 -80.5t107.5 -199.5t108.5 -260t112.5 -260 t120.5 -199.5t132 -80.5q51 0 90.5 21.5t68.5 50.5q31 31 53 71l62 100q3 10 13 16.5t23 6.5q36 0 41 -36q0 -3 -14.5 -36t-43.5 -83t-74 -107.5t-104 -106t-132 -82t-160 -33.5q-95 0 -171.5 56.5t-136.5 139.5t-105 181.5t-79.5 182t-56.5 140t-37 56.5q-23 0 -38.5 -56.5 t-32 -140t-37 -182t-54 -181.5t-82 -139.5t-119.5 -56.5q-72 0 -135 33.5t-118 90t-101 126.5t-84 145q-87 174 -154 396q-44 141 -33 254zM-14.5 1103q11.5 -59 45 -134.5t82.5 -156.5q26 79 43.5 155.5t16.5 135.5t-27 95t-87 36q-51 0 -68 -36t-5.5 -95zM-11.5 1592 q6.5 23 52.5 64q102 87 200.5 111.5t188.5 13t169 -46t144.5 -65.5t114 -45t74.5 17q13 15 39.5 21.5t44.5 1.5t18 -23t-41 -51q-72 -74 -138.5 -94.5t-131.5 -12t-128 36.5t-127 54q-128 49 -227.5 62t-150.5 -39q-23 -26 -51.5 -34.5t-42.5 -1t-7.5 30.5z" />
<glyph unicode="&#xf2;" horiz-adv-x="1359" d="M-315 1915q20 67 83 72t146.5 -27t180.5 -91t186.5 -123t162.5 -123t114 -90q23 -18 33.5 -42t8 -43.5t-18 -24.5t-46.5 16q-20 15 -94.5 42t-174 64t-209.5 82t-197.5 93.5t-138.5 97t-36 97.5zM-141 617q-23 131 2.5 244.5t91 198t164 134.5t221.5 50t239.5 -50 t212.5 -134.5t162.5 -198t89.5 -244.5t-4 -244.5t-92 -198t-165 -134.5t-223 -50t-238 50t-210 134.5t-161.5 198t-89.5 244.5zM212.5 779.5q10.5 -93.5 51.5 -190.5t102.5 -178t134 -133.5t149.5 -75.5t146 -5t114 70.5t64 128t10 169t-50 190.5t-103.5 176.5t-134 133.5 t-147 75.5t-145.5 3.5q-69 -18 -116 -70.5t-66.5 -126.5t-9 -167.5z" />
<glyph unicode="&#xf3;" horiz-adv-x="1359" d="M-141 617q-23 131 2.5 244.5t91 198t164 134.5t221.5 50t239.5 -50t212.5 -134.5t162.5 -198t89.5 -244.5t-4 -244.5t-92 -198t-165 -134.5t-223 -50t-238 50t-210 134.5t-161.5 198t-89.5 244.5zM-84 1519.5q0 16.5 31 29.5q20 8 70 55t118 110t146 129.5t151 111 t135.5 56.5t98.5 -32q51 -64 34.5 -121.5t-74 -110t-143.5 -97.5t-175.5 -81t-167.5 -62.5t-119 -39.5q-23 -8 -48.5 0t-41 22t-15.5 30.5zM212.5 779.5q10.5 -93.5 51.5 -190.5t102.5 -178t134 -133.5t149.5 -75.5t146 -5t114 70.5t64 128t10 169t-50 190.5t-103.5 176.5 t-134 133.5t-147 75.5t-145.5 3.5q-69 -18 -116 -70.5t-66.5 -126.5t-9 -167.5z" />
<glyph unicode="&#xf4;" horiz-adv-x="1359" d="M-169 1542q10 40 40.5 92.5t73 111.5t87.5 109t84.5 82t59.5 32t79.5 -26t133.5 -65.5t153.5 -88t146 -97t110 -91t40.5 -68.5q-3 -36 -42 -67.5t-93 -52t-109 -26t-88 12.5q-31 15 -90 69t-123 113t-117.5 105t-74.5 46q-20 0 -52 -43.5t-66.5 -93.5t-72 -85.5 t-67.5 -18.5q-23 10 -13 50zM-141 617q-23 131 2.5 244.5t91 198t164 134.5t221.5 50t239.5 -50t212.5 -134.5t162.5 -198t89.5 -244.5t-4 -244.5t-92 -198t-165 -134.5t-223 -50t-238 50t-210 134.5t-161.5 198t-89.5 244.5zM212.5 779.5q10.5 -93.5 51.5 -190.5 t102.5 -178t134 -133.5t149.5 -75.5t146 -5t114 70.5t64 128t10 169t-50 190.5t-103.5 176.5t-134 133.5t-147 75.5t-145.5 3.5q-69 -18 -116 -70.5t-66.5 -126.5t-9 -167.5z" />
<glyph unicode="&#xf5;" horiz-adv-x="1359" d="M-249.5 1592q6.5 23 52.5 64q102 87 200.5 111.5t188.5 13t169 -46t144.5 -65.5t114 -45t74.5 17q13 15 39.5 21.5t44.5 1.5t18 -23t-41 -51q-72 -74 -138.5 -94.5t-131.5 -12t-128 36.5t-127 54q-128 49 -227.5 62t-150.5 -39q-23 -26 -51.5 -34.5t-42.5 -1t-7.5 30.5z M-141 617q-23 131 2.5 244.5t91 198t164 134.5t221.5 50t239.5 -50t212.5 -134.5t162.5 -198t89.5 -244.5t-4 -244.5t-92 -198t-165 -134.5t-223 -50t-238 50t-210 134.5t-161.5 198t-89.5 244.5zM212.5 779.5q10.5 -93.5 51.5 -190.5t102.5 -178t134 -133.5t149.5 -75.5 t146 -5t114 70.5t64 128t10 169t-50 190.5t-103.5 176.5t-134 133.5t-147 75.5t-145.5 3.5q-69 -18 -116 -70.5t-66.5 -126.5t-9 -167.5z" />
<glyph unicode="&#xf6;" horiz-adv-x="1359" d="M-141 617q-23 131 2.5 244.5t91 198t164 134.5t221.5 50t239.5 -50t212.5 -134.5t162.5 -198t89.5 -244.5t-4 -244.5t-92 -198t-165 -134.5t-223 -50t-238 50t-210 134.5t-161.5 198t-89.5 244.5zM-108 1654q-15 74 27 129t117 58q74 3 136.5 -50t78.5 -127 q15 -74 -26 -128t-115 -56q-74 -3 -139.5 48.5t-78.5 125.5zM212.5 779.5q10.5 -93.5 51.5 -190.5t102.5 -178t134 -133.5t149.5 -75.5t146 -5t114 70.5t64 128t10 169t-50 190.5t-103.5 176.5t-134 133.5t-147 75.5t-145.5 3.5q-69 -18 -116 -70.5t-66.5 -126.5t-9 -167.5z M351 1654q-15 74 27 129t116 58t137 -50t78 -127t-26 -128t-115 -56q-74 -3 -139 48.5t-78 125.5z" />
<glyph unicode="&#xf7;" horiz-adv-x="537" d="M-430 835q133 -13 263.5 -12t248.5 6.5t217.5 9.5t171.5 -4q72 -5 120.5 -55t69 -108t13 -105t-48.5 -47h-172t-162.5 1t-163.5 1h-175q-110 0 -183 49t-117 107q-51 67 -82 157zM-48 993q-15 74 25.5 129t114.5 58t137 -49.5t78 -127.5q15 -74 -25.5 -127.5 t-114.5 -56.5t-137 48.5t-78 125.5zM62 353q-15 74 27 129t116 58t138 -49.5t77 -127.5q15 -74 -25.5 -127.5t-115.5 -56.5q-74 -3 -138 48.5t-79 125.5z" />
<glyph unicode="&#xf8;" horiz-adv-x="1359" d="M-141 617q-23 131 2.5 244.5t91 198t164 134.5t221.5 50t239.5 -50t212.5 -134.5t162.5 -198t89.5 -244.5t-4 -244.5t-92 -198t-165 -134.5t-223 -50t-238 50t-210 134.5t-161.5 198t-89.5 244.5zM97 -257q97 195 189 392.5t174 378.5t151.5 334.5t123.5 257.5 q52 105 85.5 155.5t47 55.5t6.5 -29.5t-38 -97.5q-62 -134 -119 -257.5t-115 -245t-117 -247.5t-123 -264q-78 -166 -128 -254t-81 -127q-37 -48 -56 -52zM212.5 779.5q10.5 -93.5 51.5 -190.5t102.5 -178t134 -133.5t149.5 -75.5t146 -5t114 70.5t64 128t10 169t-50 190.5 t-103.5 176.5t-134 133.5t-147 75.5t-145.5 3.5q-69 -18 -116 -70.5t-66.5 -126.5t-9 -167.5z" />
<glyph unicode="&#xf9;" horiz-adv-x="1766" d="M-259 1915q20 67 83 72t146.5 -27t180.5 -91t186.5 -123t162.5 -123t114 -90q23 -18 33.5 -42t8 -43.5t-18 -24.5t-46.5 16q-20 15 -94.5 42t-174 64t-209.5 82t-197.5 93.5t-138.5 97t-36 97.5zM-223 993q-8 92 19 161.5t65.5 105t75.5 33t45 -48.5q15 -82 42 -181.5 t63 -201t78 -196t87 -167.5t91 -118t90 -45q61 0 100.5 41t64 109t36 153.5t16.5 175.5t7.5 175.5t8 152t18 107.5t38.5 41q56 0 110 -80.5t106.5 -199.5t107.5 -260t112.5 -260t120 -199.5t132.5 -80.5q51 0 92 21.5t69 50.5q31 31 54 71l58 100q3 10 14.5 16.5t24.5 6.5 q33 0 38 -36q0 -3 -14 -36t-43.5 -83t-74 -107.5t-102.5 -106t-130.5 -82t-160.5 -33.5q-95 0 -166.5 46t-125 115.5t-92 148.5t-65.5 148.5t-45 115.5t-33 46q-8 -174 -41 -310q-15 -59 -37 -114t-52.5 -98.5t-73 -70.5t-95.5 -27q-90 0 -169.5 46t-146 124.5t-121.5 180.5 t-96 213.5t-66.5 224t-33.5 212.5z" />
<glyph unicode="&#xfa;" horiz-adv-x="1766" d="M-223 993q-8 92 19 161.5t65.5 105t75.5 33t45 -48.5q15 -82 42 -181.5t63 -201t78 -196t87 -167.5t91 -118t90 -45q61 0 100.5 41t64 109t36 153.5t16.5 175.5t7.5 175.5t8 152t18 107.5t38.5 41q56 0 110 -80.5t106.5 -199.5t107.5 -260t112.5 -260t120 -199.5 t132.5 -80.5q51 0 92 21.5t69 50.5q31 31 54 71l58 100q3 10 14.5 16.5t24.5 6.5q33 0 38 -36q0 -3 -14 -36t-43.5 -83t-74 -107.5t-102.5 -106t-130.5 -82t-160.5 -33.5q-95 0 -166.5 46t-125 115.5t-92 148.5t-65.5 148.5t-45 115.5t-33 46q-8 -174 -41 -310 q-15 -59 -37 -114t-52.5 -98.5t-73 -70.5t-95.5 -27q-90 0 -169.5 46t-146 124.5t-121.5 180.5t-96 213.5t-66.5 224t-33.5 212.5zM121 1519.5q0 16.5 31 29.5q20 8 70 55t118 110t146 129.5t151 111t135.5 56.5t98.5 -32q51 -64 34.5 -121.5t-74 -110t-143.5 -97.5 t-175.5 -81t-167.5 -62.5t-119 -39.5q-23 -8 -48.5 0t-41 22t-15.5 30.5z" />
<glyph unicode="&#xfb;" horiz-adv-x="1766" d="M-223 993q-8 92 19 161.5t65.5 105t75.5 33t45 -48.5q15 -82 42 -181.5t63 -201t78 -196t87 -167.5t91 -118t90 -45q61 0 100.5 41t64 109t36 153.5t16.5 175.5t7.5 175.5t8 152t18 107.5t38.5 41q56 0 110 -80.5t106.5 -199.5t107.5 -260t112.5 -260t120 -199.5 t132.5 -80.5q51 0 92 21.5t69 50.5q31 31 54 71l58 100q3 10 14.5 16.5t24.5 6.5q33 0 38 -36q0 -3 -14 -36t-43.5 -83t-74 -107.5t-102.5 -106t-130.5 -82t-160.5 -33.5q-95 0 -166.5 46t-125 115.5t-92 148.5t-65.5 148.5t-45 115.5t-33 46q-8 -174 -41 -310 q-15 -59 -37 -114t-52.5 -98.5t-73 -70.5t-95.5 -27q-90 0 -169.5 46t-146 124.5t-121.5 180.5t-96 213.5t-66.5 224t-33.5 212.5zM-159 1542q10 40 40.5 92.5t73 111.5t87.5 109t84.5 82t59.5 32t79.5 -26t133.5 -65.5t153.5 -88t146 -97t110 -91t40.5 -68.5 q-3 -36 -42 -67.5t-93 -52t-109 -26t-88 12.5q-31 15 -90 69t-123 113t-117.5 105t-74.5 46q-20 0 -52 -43.5t-66.5 -93.5t-72 -85.5t-67.5 -18.5q-23 10 -13 50z" />
<glyph unicode="&#xfc;" horiz-adv-x="1766" d="M-223 993q-8 92 19 161.5t65.5 105t75.5 33t45 -48.5q15 -82 42 -181.5t63 -201t78 -196t87 -167.5t91 -118t90 -45q61 0 100.5 41t64 109t36 153.5t16.5 175.5t7.5 175.5t8 152t18 107.5t38.5 41q56 0 110 -80.5t106.5 -199.5t107.5 -260t112.5 -260t120 -199.5 t132.5 -80.5q51 0 92 21.5t69 50.5q31 31 54 71l58 100q3 10 14.5 16.5t24.5 6.5q33 0 38 -36q0 -3 -14 -36t-43.5 -83t-74 -107.5t-102.5 -106t-130.5 -82t-160.5 -33.5q-95 0 -166.5 46t-125 115.5t-92 148.5t-65.5 148.5t-45 115.5t-33 46q-8 -174 -41 -310 q-15 -59 -37 -114t-52.5 -98.5t-73 -70.5t-95.5 -27q-90 0 -169.5 46t-146 124.5t-121.5 180.5t-96 213.5t-66.5 224t-33.5 212.5zM-164 1654q-15 74 27 129t117 58q74 3 136.5 -50t78.5 -127q15 -74 -26 -128t-115 -56q-74 -3 -139.5 48.5t-78.5 125.5zM295 1654 q-15 74 27 129t116 58t137 -50t78 -127t-26 -128t-115 -56q-74 -3 -139 48.5t-78 125.5z" />
<glyph unicode="&#xfd;" horiz-adv-x="1461" d="M-138 810.5q10 167.5 79 341.5q26 64 58 88.5t58.5 11.5t39.5 -61.5t3 -130.5q-23 -159 12.5 -269t97 -178t133.5 -98.5t118 -30.5q84 0 131.5 55t69.5 138t27 180.5t8.5 180.5t15 138t45.5 55q23 0 52.5 -34.5t59 -90.5t58.5 -129t58 -148q64 -176 128 -399 q118 -297 137 -510.5t-31 -354.5t-156.5 -215t-239.5 -94.5t-279 6t-276 90.5q-128 61 -191 139.5t-74.5 165.5t19.5 180.5t91 188t140.5 187t170.5 176.5q46 46 75.5 68t43.5 28.5t16.5 0t-2.5 -22.5q-10 -33 -59 -105l121 95q8 3 -15.5 -30.5t-54.5 -74.5 q-36 -46 -87 -107q-87 -46 -158.5 -116.5t-117.5 -151.5t-59 -162.5t15.5 -147t102.5 -106.5t205 -41q136 0 219 43.5t125 121.5t52.5 183t-2.5 228t-40 256t-57 269q-41 -115 -100 -205q-51 -77 -129.5 -139.5t-185.5 -62.5q-169 0 -276.5 82t-156 216.5t-38.5 302z M-33 1519.5q0 16.5 31 29.5q20 8 70 55t118 110t146 129.5t151 111t135.5 56.5t98.5 -32q51 -64 34.5 -121.5t-74 -110t-143.5 -97.5t-175.5 -81t-167.5 -62.5t-119 -39.5q-23 -8 -48.5 0t-41 22t-15.5 30.5z" />
<glyph unicode="&#xfe;" horiz-adv-x="1694" d="M-166 1429.5q0 226.5 26.5 429t88 352t162.5 238t253 88.5q108 0 155 -83t50.5 -219t-27 -307.5t-78 -350.5t-105 -349.5t-106.5 -300.5q18 -102 37.5 -197t34.5 -177q15 102 48.5 216t93.5 210t152 157.5t228 61.5q143 0 251 -52.5t178.5 -135.5t105 -188t30.5 -210 t-45 -200t-123 -159q-95 -77 -215 -115t-239 -53.5t-223 -14t-165 6.5q0 -38 11.5 -105t23 -141t19 -146t2.5 -120q-8 -79 -31 -128t-55 -73t-70 -28t-74 9q-26 8 -65.5 103.5t-83 250.5t-88.5 361t-79.5 434t-56 468.5t-21.5 467zM146 2007q-5 -128 4 -275t28 -307t45 -317 q49 141 95 294.5t81.5 301t57.5 279.5t23 233t-22 160t-77 59q-79 0 -127.5 -55.5t-75.5 -150t-32 -222.5zM351 422q15 -77 26.5 -137t16.5 -98q38 -13 89.5 -22t110.5 -9t120.5 16.5t117.5 57.5q51 38 88 107.5t55 150t15.5 166.5t-26.5 161.5t-74 129t-125 71.5 q-61 15 -112 -10.5t-93.5 -76.5t-75.5 -119t-60 -138t-45 -137t-28 -113z" />
<glyph unicode="&#xff;" horiz-adv-x="1461" d="M-138 810.5q10 167.5 79 341.5q26 64 58 88.5t58.5 11.5t39.5 -61.5t3 -130.5q-23 -159 12.5 -269t97 -178t133.5 -98.5t118 -30.5q84 0 131.5 55t69.5 138t27 180.5t8.5 180.5t15 138t45.5 55q23 0 52.5 -34.5t59 -90.5t58.5 -129t58 -148q64 -176 128 -399 q118 -297 137 -510.5t-31 -354.5t-156.5 -215t-239.5 -94.5t-279 6t-276 90.5q-128 61 -191 139.5t-74.5 165.5t19.5 180.5t91 188t140.5 187t170.5 176.5q46 46 75.5 68t43.5 28.5t16.5 0t-2.5 -22.5q-10 -33 -59 -105l121 95q8 3 -15.5 -30.5t-54.5 -74.5 q-36 -46 -87 -107q-87 -46 -158.5 -116.5t-117.5 -151.5t-59 -162.5t15.5 -147t102.5 -106.5t205 -41q136 0 219 43.5t125 121.5t52.5 183t-2.5 228t-40 256t-57 269q-41 -115 -100 -205q-51 -77 -129.5 -139.5t-185.5 -62.5q-169 0 -276.5 82t-156 216.5t-38.5 302z M-121 1654q-15 74 27 129t117 58q74 3 136.5 -50t78.5 -127q15 -74 -26 -128t-115 -56q-74 -3 -139.5 48.5t-78.5 125.5zM338 1654q-15 74 27 129t116 58t137 -50t78 -127t-26 -128t-115 -56q-74 -3 -139 48.5t-78 125.5z" />
<glyph unicode="&#x152;" horiz-adv-x="3522" d="M-169 1505.5q41 281.5 160 490t306 330t425 121.5q225 0 444 -110t406 -300.5t329 -449t211 -555.5h-87q-8 41 -20.5 82t-25.5 84q-92 269 -242 490.5t-329 372.5t-373.5 221.5t-374.5 34.5q-182 -36 -306 -169t-184 -333t-48.5 -448t101.5 -517q92 -266 241.5 -487.5 t329 -374t372.5 -223t375 -34.5q166 33 289 154l44 -241q-118 -133 -271.5 -207t-337.5 -74q-238 0 -468.5 121.5t-422.5 330t-331.5 489t-196.5 600.5q-56 320 -15 601.5zM1489 1753.5q9 158.5 85.5 290.5t195.5 226.5t265 147t295 52.5q138 0 243 -37t184 -94.5 t134.5 -132t90 -150t52.5 -143t25 -116.5q5 -10 6.5 -19t6.5 -22q15 -92 -38.5 -156t-145.5 -64q-46 0 -89.5 16.5t-79.5 47.5t-60 70.5t-32 85.5q-18 92 35.5 157.5t145.5 65.5q54 0 105 -23q-20 69 -60 143t-107.5 133t-171.5 97.5t-252 38.5q-118 0 -198.5 -60 t-128 -157.5t-61.5 -221.5t2.5 -254.5t65.5 -253.5t127 -219t184 -153.5t242 -52.5q61 0 94.5 -18t37.5 -38.5t-22 -38.5t-79 -18q-195 0 -324.5 -70.5t-202 -184t-93 -259.5t3.5 -298.5t90.5 -298.5t166.5 -260t229.5 -184t280.5 -70q113 0 189.5 55t126.5 142t76.5 192 t38.5 203.5t12 179t-3 116.5q-3 54 8.5 78t29.5 19t33.5 -39.5t20.5 -98.5q3 -41 0.5 -135.5t-20.5 -210t-55.5 -239.5t-104 -226.5t-165 -168t-236.5 -65.5q-225 0 -430 84.5t-366 229.5t-265 338t-127 413.5t46 456t256 462.5q-179 189 -250.5 370t-62.5 339.5z" />
<glyph unicode="&#x153;" horiz-adv-x="2209" d="M-141 617q-23 131 2.5 244.5t91 198t164 134.5t221.5 50t239.5 -50t212.5 -134.5t162.5 -198t89.5 -244.5t-4 -244.5t-92 -198t-165 -134.5t-223 -50t-238 50t-210 134.5t-161.5 198t-89.5 244.5zM212.5 779.5q10.5 -93.5 51.5 -190.5t102.5 -178t134 -133.5t149.5 -75.5 t146 -5t114 70.5t64 128t10 169t-50 190.5t-103.5 176.5t-134 133.5t-147 75.5t-145.5 3.5q-69 -18 -116 -70.5t-66.5 -126.5t-9 -167.5zM743 617q-18 100 1 215t77 213.5t157.5 164t245.5 65.5q118 0 196 -34.5t123 -88.5t63 -118t18 -123q-3 -64 -37.5 -139.5t-83 -149.5 t-104 -143t-101.5 -121q67 -82 151.5 -133t186.5 -51q72 0 156 31q69 28 159 88t179 183q10 23 24.5 25.5t26 -7.5t16.5 -25.5t0 -25.5q-5 -13 -70.5 -84.5t-170.5 -153.5t-242 -147.5t-285 -65.5q-151 0 -270 61.5t-206 154t-139.5 202.5t-70.5 207zM1096 929 q0 -115 38.5 -249.5t110.5 -249.5q46 46 98.5 106t98.5 125.5t75.5 131t29.5 121.5q-3 79 -27 134t-64 88.5t-90 49t-101 15.5q-87 0 -128 -78.5t-41 -193.5z" />
<glyph unicode="&#x178;" horiz-adv-x="2521" d="M-409.5 2451q-0.5 25 16.5 33.5t46.5 0t62.5 -39.5q26 -23 92.5 -116.5t158.5 -232t200.5 -307.5t221.5 -344t221.5 -345.5t198.5 -311t152.5 -236.5t85.5 -124q28 422 91 731.5t146 528.5t177.5 357.5t189.5 220.5t180.5 116.5t149.5 44.5q97 15 159 8.5t86 -27 t12.5 -48.5t-57.5 -59q-115 -15 -213.5 -121t-182 -276.5t-150 -392t-121.5 -467t-98.5 -504t-76.5 -503t-59 -462.5t-43.5 -384t-32 -266t-24.5 -110q-26 -23 -75.5 -29.5t-102 -2.5t-97.5 16.5t-63 30.5q-10 8 -7.5 77t14 175t28 239.5t34.5 271.5q44 323 105 724 q-374 553 -673 999q-128 189 -252 373.5t-224 334t-168 248.5t-80 116q-28 38 -28.5 63zM312 2166q-15 74 27 129t117 58q74 3 136.5 -50t78.5 -127q15 -74 -26 -128t-115 -56q-74 -3 -139.5 48.5t-78.5 125.5zM771 2166q-15 74 27 129t116 58t137 -50t78 -127t-26 -128 t-115 -56q-74 -3 -139 48.5t-78 125.5z" />
<glyph unicode="&#x2c6;" horiz-adv-x="1323" d="M-115 1542q10 40 40.5 92.5t73 111.5t87.5 109t84.5 82t59.5 32t79.5 -26t133.5 -65.5t153.5 -88t146 -97t110 -91t40.5 -68.5q-3 -36 -42 -67.5t-93 -52t-109 -26t-88 12.5q-31 15 -90 69t-123 113t-117.5 105t-74.5 46q-20 0 -52 -43.5t-66.5 -93.5t-72 -85.5 t-67.5 -18.5q-23 10 -13 50z" />
<glyph unicode="&#x2dc;" horiz-adv-x="1707" d="M-75.5 1592q6.5 23 52.5 64q102 87 200.5 111.5t188.5 13t169 -46t144.5 -65.5t114 -45t74.5 17q13 15 39.5 21.5t44.5 1.5t18 -23t-41 -51q-72 -74 -138.5 -94.5t-131.5 -12t-128 36.5t-127 54q-128 49 -227.5 62t-150.5 -39q-23 -26 -51.5 -34.5t-42.5 -1t-7.5 30.5z " />
<glyph unicode="&#x2000;" horiz-adv-x="1664" />
<glyph unicode="&#x2001;" horiz-adv-x="3329" />
<glyph unicode="&#x2002;" horiz-adv-x="1664" />
<glyph unicode="&#x2003;" horiz-adv-x="3329" />
<glyph unicode="&#x2004;" horiz-adv-x="1109" />
<glyph unicode="&#x2005;" horiz-adv-x="832" />
<glyph unicode="&#x2006;" horiz-adv-x="554" />
<glyph unicode="&#x2007;" horiz-adv-x="554" />
<glyph unicode="&#x2008;" horiz-adv-x="416" />
<glyph unicode="&#x2009;" horiz-adv-x="665" />
<glyph unicode="&#x200a;" horiz-adv-x="184" />
<glyph unicode="&#x2010;" d="M-205 835q133 -13 263.5 -12t248.5 6.5t217.5 9.5t171.5 -4q72 -5 120.5 -55t69 -108t13 -105t-48.5 -47h-172t-162.5 1t-163.5 1h-175q-110 0 -183 49t-117 107q-51 67 -82 157z" />
<glyph unicode="&#x2011;" d="M-205 835q133 -13 263.5 -12t248.5 6.5t217.5 9.5t171.5 -4q72 -5 120.5 -55t69 -108t13 -105t-48.5 -47h-172t-162.5 1t-163.5 1h-175q-110 0 -183 49t-117 107q-51 67 -82 157z" />
<glyph unicode="&#x2012;" d="M-205 835q133 -13 263.5 -12t248.5 6.5t217.5 9.5t171.5 -4q72 -5 120.5 -55t69 -108t13 -105t-48.5 -47h-172t-162.5 1t-163.5 1h-175q-110 0 -183 49t-117 107q-51 67 -82 157z" />
<glyph unicode="&#x2013;" d="M-205 835q133 -13 263.5 -12t248.5 6.5t217.5 9.5t171.5 -4q72 -5 120.5 -55t69 -108t13 -105t-48.5 -47h-172t-162.5 1t-163.5 1h-175q-110 0 -183 49t-117 107q-51 67 -82 157z" />
<glyph unicode="&#x2014;" d="M-205 835q133 -13 263.5 -12t248.5 6.5t217.5 9.5t171.5 -4q72 -5 120.5 -55t69 -108t13 -105t-48.5 -47h-172t-162.5 1t-163.5 1h-175q-110 0 -183 49t-117 107q-51 67 -82 157z" />
<glyph unicode="&#x2018;" horiz-adv-x="414" d="M-236 1354q-8 61 4 120t32.5 109t43.5 88.5t38 59.5q15 20 37 21.5t40 -11.5t23 -36t-13 -51q-26 -31 -10.5 -76t36.5 -83q59 -20 101 -74t45 -121q0 -36 -13 -66.5t-38.5 -51t-57.5 -29.5t-70 -4t-73 23t-62 46.5t-45 63t-18 72.5z" />
<glyph unicode="&#x2019;" horiz-adv-x="414" d="M-282 1623q-3 74 50 119t130 32q38 -5 72.5 -23t61.5 -46t43.5 -62.5t16.5 -73.5q10 -61 -1.5 -121t-32 -110t-43.5 -87.5t-38 -57.5t-38 -21.5t-40 11.5t-22 36t15 51q23 31 9 75.5t-34 82.5q-64 20 -105 74t-44 121z" />
<glyph unicode="&#x201a;" horiz-adv-x="558" d="M110 338q0 74 52.5 119t129.5 32q38 -5 72.5 -23t61.5 -46t45 -62.5t18 -73.5q8 -61 -3.5 -121.5t-32 -110t-43.5 -87t-39 -57.5q-15 -20 -38 -21.5t-40 11t-22 35.5t16 52q23 31 9 75.5t-35 82.5q-64 20 -106 74t-45 121z" />
<glyph unicode="&#x201c;" horiz-adv-x="652" d="M-271 1354q-8 61 3.5 120t32 109t43.5 88.5t38 59.5q15 20 38.5 21.5t40 -11.5t21.5 -36t-13 -51q-26 -31 -10 -76t36 -83q20 -8 37 -19.5t37 -23.5q10 97 51 171t67 108q15 20 38 21.5t40 -11.5t22 -36t-13 -51q-26 -31 -10.5 -76t36.5 -83q61 -20 103 -74t45 -121 q3 -74 -51 -118.5t-131 -32.5q-82 13 -143 77q-20 -41 -62.5 -62.5t-98.5 -14.5q-38 5 -73 23t-62 46.5t-44.5 63t-17.5 72.5z" />
<glyph unicode="&#x201d;" horiz-adv-x="652" d="M-317 1623q-3 74 49.5 119t129.5 32q87 -13 143 -77q20 41 64 63t97 14q38 -5 73 -23t63 -46t45 -62.5t17 -73.5q10 -61 -1.5 -121t-32 -110t-45 -87.5t-39.5 -57.5t-38.5 -21.5t-40 11.5t-21.5 36t15 51q23 31 9 75.5t-34 82.5q-38 15 -77 44q-10 -97 -51 -171.5 t-67 -107.5q-15 -20 -38 -21.5t-40 11.5t-22 36t16 51q23 31 9 75.5t-35 82.5q-64 20 -104.5 74t-43.5 121z" />
<glyph unicode="&#x201e;" horiz-adv-x="652" d="M-84 302q0 36 12.5 66.5t37 51t56.5 29.5t70 4q84 -13 146 -77q20 41 64 63t97 14q38 -5 73 -23t63 -46t44.5 -62.5t16.5 -73.5q10 -61 -1 -121t-31.5 -110t-45 -87.5t-39.5 -57.5t-38.5 -21.5t-40 11.5t-21.5 36t15 51q23 31 9 75.5t-34 83.5q-38 15 -77 43 q-10 -97 -52.5 -171.5t-67.5 -107.5q-15 -20 -38.5 -21.5t-40 11.5t-21.5 36t15 51q23 31 9 75.5t-35 83.5q-61 20 -101.5 73.5t-43.5 120.5z" />
<glyph unicode="&#x2022;" horiz-adv-x="896" d="M0 940q-13 64 1 121.5t48.5 99.5t87 66.5t116.5 24.5t125.5 -24.5t111.5 -66.5t84.5 -99.5t47.5 -121.5q10 -64 -4 -122t-50 -100t-88 -66.5t-116 -24.5t-125.5 24.5t-110.5 66.5t-83.5 100t-44.5 122z" />
<glyph unicode="&#x2026;" horiz-adv-x="1612" d="M72 412q-15 74 27 129t116 58t138 -49.5t77 -127.5q15 -74 -25.5 -127.5t-115.5 -56.5q-74 -3 -138 48.5t-79 125.5zM609 412q-15 74 27 129t117 58q74 3 138 -49.5t77 -127.5q15 -74 -26 -127.5t-115 -56.5t-138.5 48.5t-79.5 125.5zM1147 412q-15 74 27 129t116 58 t138 -49.5t77 -127.5q15 -74 -25.5 -127.5t-115.5 -56.5q-74 -3 -138 48.5t-79 125.5z" />
<glyph unicode="&#x202f;" horiz-adv-x="665" />
<glyph unicode="&#x2039;" horiz-adv-x="732" d="M-49 602q-5 20 12 74t43.5 121.5t64 139.5t74.5 129.5t74 92t63 29.5q38 -8 77.5 -54t69 -103.5t45 -112.5t2.5 -86q-10 -28 -55 -78t-95 -102.5t-88 -98.5t-33 -67q3 -15 28.5 -36.5t60 -50t74 -58t71.5 -59t50 -56t10 -44.5q-8 -20 -50 -2.5t-101 57t-126.5 93.5 t-126.5 106.5t-100 98.5t-44 67z" />
<glyph unicode="&#x203a;" horiz-adv-x="732" d="M-79 924q-5 56 5 114t33 104t59 54q26 5 74.5 -31t107.5 -93.5t121.5 -130.5t113.5 -139.5t86 -121.5t40 -76q5 -20 -20.5 -66t-65.5 -100t-90 -109t-96 -93.5t-83 -56.5t-52 3q-23 28 5 71.5t70 88.5t79.5 84.5t34.5 62.5q-3 13 -29.5 38.5t-66.5 59t-86 69t-89.5 70 t-76.5 64t-46 47.5q-23 31 -28 87z" />
<glyph unicode="&#x205f;" horiz-adv-x="832" />
<glyph unicode="&#x20ac;" horiz-adv-x="1354" d="M-140 1094.5q17 221.5 104 414.5t246 326.5t392 151.5q189 15 333.5 -31t246 -119t159 -156.5t72.5 -147.5q8 -23 8 -35q5 -5 5 -9t2 -9q18 -69 -19 -123t-106 -59t-128 41t-79 115q-18 72 17.5 123t105.5 56q49 5 84 -13q-36 54 -89.5 113t-131.5 106.5t-183 74 t-239 16.5q-131 -10 -215 -108.5t-126.5 -253.5t-45 -348t32 -391.5t102.5 -387t166.5 -333t225.5 -227.5t278 -70q131 10 223 69t153.5 131.5t94.5 140.5t41 94q10 36 26.5 50t29.5 10t17 -25.5t-9 -60.5q-10 -26 -28 -77t-50 -113.5t-83.5 -129t-124.5 -124.5 t-172.5 -97.5t-232.5 -49.5q-200 -15 -374 75.5t-313.5 241.5t-238 345.5t-145.5 386.5q-49 195 -32 416.5zM-61 1039q133 -13 263.5 -11.5t248 6.5t217.5 9t172 -4q72 -5 120.5 -55t69 -107.5t12.5 -105t-49 -47.5q-179 0 -335 1.5t-341 1.5q-110 0 -183 48.5t-116 107.5 q-51 67 -79 156zM0 681q133 -13 263.5 -11.5t248.5 6.5t218 9t174 -4q72 -5 120.5 -55t69 -107.5t11.5 -105t-50 -47.5h-172t-162.5 1.5t-163.5 1.5h-176q-110 0 -183 48.5t-116 107.5q-51 67 -82 156z" />
<glyph unicode="&#x2122;" horiz-adv-x="1472" d="M-543 1779q59 -13 136 -16.5t161.5 -3.5t167.5 3.5t153.5 7.5t123 6.5t75.5 2.5q67 -5 78.5 -39.5t-19.5 -55.5q-8 -5 -44 -8.5t-87 -6t-115 -2.5t-128 2q5 -36 18 -110t28 -162.5t32 -183t32 -174t25.5 -134.5t13.5 -65q5 -15 2.5 -27t-9 -12t-15.5 13t-19 46 q-5 18 -15.5 77t-24.5 137t-29.5 169t-29.5 174t-25.5 151t-16.5 101q-90 3 -163 6.5t-114 8.5q-51 8 -87 24.5t-59 32.5q-28 18 -46 38zM33 1738q74 0 132 -34.5t94 -75.5q44 -46 71 -107q-3 61 13 107q13 41 49 75.5t105 34.5q54 0 105 -84q13 20 33 49.5t56 34.5 q72 10 122 -11.5t84.5 -58.5t55 -78t35.5 -69q10 -18 24.5 -67t29.5 -110t28 -129t20.5 -127t7.5 -102.5t-13 -53.5q-10 -10 -20 -2.5t-21.5 23t-24.5 32t-28 29.5q-10 8 -20.5 64t-24.5 135.5t-33.5 169t-50 163.5t-74 119t-107.5 35q-26 -5 -43.5 -27t-25.5 -35 q44 -77 77 -188t56 -217.5t33 -184.5t5 -85q-10 -26 -52 2t-71 108q-28 169 -58 304q-13 56 -29.5 112.5t-34.5 99t-38.5 69t-43.5 26.5q-59 0 -82 -55t-23 -138t16.5 -179t34.5 -180.5t28 -141t0 -58.5q-31 -8 -63 19t-34 63q-20 215 -51 354.5t-69.5 222.5t-84.5 115 t-95 32z" />
<glyph unicode="&#xe000;" horiz-adv-x="1292" d="M0 0v1293h1293v-1293h-1293z" />
<glyph unicode="&#xfb01;" horiz-adv-x="2009" d="M-160 1351.5q-4 243.5 20.5 458.5t84.5 376.5t160 256t251 94.5q97 0 144.5 -68t59 -179t-8 -258.5t-57.5 -306t-87 -320t-97 -299.5q41 38 84 66q31 20 79.5 20.5t105 -12.5t113 -34.5t105 -42t83 -37t44.5 -16.5q15 0 23 6t15.5 12.5t14 8t19.5 -8.5t15.5 -24.5t-8 -40 t-34.5 -68t-65 -106.5q-28 -44 -73 -46t-100 17t-115 51t-116.5 61.5t-104 47.5t-75.5 5q-26 -13 -41 -28t-26 -31q36 -236 77 -457t77 -404t60 -310t27 -168q10 -115 0 -208.5t-39.5 -153.5t-78 -84.5t-115.5 -1.5q-26 8 -66.5 109t-87 269t-92.5 386.5t-84.5 464.5 t-62.5 503t-28 500.5zM165.5 2035q-11.5 -182 5 -417.5t52.5 -488.5q49 141 93.5 292t79 295.5t55 275t22 229t-21.5 156.5t-77 58q-100 0 -148.5 -109t-60 -291zM815.5 851.5q6.5 47.5 42 121.5t85.5 144.5t107.5 121.5t106.5 51q41 0 72 -46t52.5 -123t39.5 -173t36 -198 t38.5 -198t48.5 -173t65 -123t88 -46t101 21.5t89 50.5q46 31 87 71l59 100q3 10 13 16.5t23 6.5q36 0 41 -36q0 -3 -17 -36t-50 -83t-82 -107.5t-110 -106t-136.5 -82t-162.5 -33.5q-125 0 -207.5 65.5t-132.5 161.5t-76.5 210t-41 210t-23 161t-24.5 65 q-79 -72 -108.5 -66.5t-23 53zM819 1702q15 -90 88 -151t163 -61t140 61.5t34 150.5q-15 87 -87 148.5t-161 61.5q-90 0 -141 -61.5t-36 -148.5z" />
<glyph unicode="&#xfb02;" horiz-adv-x="2224" d="M-160 1351.5q-4 243.5 20.5 458.5t84.5 376.5t160 256t251 94.5q97 0 144.5 -68t59 -179t-8 -258.5t-57.5 -306t-87 -320t-97 -299.5q41 38 84 66q31 20 79.5 20.5t105 -12.5t113 -34.5t105 -42t83 -37t44.5 -16.5q15 0 23 6t15.5 12.5t14 8t19.5 -8.5t15.5 -24.5t-8 -40 t-34.5 -68t-65 -106.5q-28 -44 -73 -46t-100 17t-115 51t-116.5 61.5t-104 47.5t-75.5 5q-26 -13 -41 -28t-26 -31q36 -236 77 -457t77 -404t60 -310t27 -168q10 -115 0 -208.5t-39.5 -153.5t-78 -84.5t-115.5 -1.5q-26 8 -66.5 109t-87 269t-92.5 386.5t-84.5 464.5 t-62.5 503t-28 500.5zM165.5 2035q-11.5 -182 5 -417.5t52.5 -488.5q49 141 93.5 292t79 295.5t55 275t22 229t-21.5 156.5t-77 58q-100 0 -148.5 -109t-60 -291zM937 1252q-28 358 18 642q20 120 58.5 235.5t102.5 206.5t159 146t225 55q131 0 188.5 -57.5t60 -152.5 t-37 -215t-101.5 -246q-143 -294 -414 -670l-77 20q238 338 376 604q59 113 101 221.5t50 194.5t-26.5 138.5t-129.5 52.5t-150 -95t-74 -251t-7.5 -355.5t46 -407t92 -407t129 -356t153.5 -251t169 -94.5q46 -5 95 20q44 20 96.5 73t108.5 160q5 13 18 14.5t25.5 -5 t20.5 -19.5t5 -25q-5 -13 -41 -83.5t-104 -148.5t-167.5 -141t-232.5 -63q-105 0 -194.5 59t-164 159t-134.5 229t-106 270t-81 282t-55 261z" />
</font>
</defs>
</svg>
